STARTFONT 2.1
COMMENT
COMMENT Converted from OpenType font "Roboto-Bold.ttf" by "otf2bdf 3.0".
COMMENT
FONT -FreeType-Roboto-Bold-R-Normal--39-280-100-100-P-204-ISO10646-1
SIZE 28 100 100
FONTBOUNDINGBOX 74 50 -28 -10
STARTPROPERTIES 19
FOUNDRY "FreeType"
FAMILY_NAME "Roboto"
WEIGHT_NAME "Bold"
SLANT "R"
SETWIDTH_NAME "Normal"
ADD_STYLE_NAME ""
PIXEL_SIZE 39
POINT_SIZE 280
RESOLUTION_X 100
RESOLUTION_Y 100
SPACING "P"
AVERAGE_WIDTH 204
CHARSET_REGISTRY "ISO10646"
CHARSET_ENCODING "1"
FONT_ASCENT 36
FONT_DESCENT 9
COPYRIGHT "Copyright 2011 The Roboto Project Authors (https://github.com/googlefonts/roboto-classic)"
_OTF_FONTFILE "Roboto-Bold.ttf"
_OTF_PSNAME "Roboto-Bold"
ENDPROPERTIES
CHARS 922
STARTCHAR 0000
ENCODING 0
SWIDTH 0 0
DWIDTH 0 0
BBX 0 0 0 0
BITMAP
ENDCHAR
STARTCHAR 0002
ENCODING 2
SWIDTH 0 0
DWIDTH 0 0
BBX 0 0 0 0
BITMAP
ENDCHAR
STARTCHAR 000D
ENCODING 13
SWIDTH 231 0
DWIDTH 9 0
BBX 0 0 0 0
BITMAP
ENDCHAR
STARTCHAR 0020
ENCODING 32
SWIDTH 231 0
DWIDTH 9 0
BBX 0 0 0 0
BITMAP
ENDCHAR
STARTCHAR 0021
ENCODING 33
SWIDTH 257 0
DWIDTH 10 0
BBX 6 28 2 0
BITMAP
FC
7C
7C
7C
7C
7C
7C
7C
7C
7C
7C
7C
7C
7C
7C
7C
7C
7C
7C
7C
00
00
00
7C
FC
FC
FC
7C
ENDCHAR
STARTCHAR 0022
ENCODING 34
SWIDTH 308 0
DWIDTH 12 0
BBX 10 10 1 19
BITMAP
F3C0
F3C0
F3C0
F3C0
F3C0
F3C0
F3C0
F3C0
E3C0
E3C0
ENDCHAR
STARTCHAR 0023
ENCODING 35
SWIDTH 591 0
DWIDTH 23 0
BBX 21 28 1 0
BITMAP
00E1C0
00E1C0
00E1C0
01E3C0
01E3C0
01C3C0
01C380
01C380
3FFFF8
3FFFF8
3FFFF8
038780
038700
038700
078700
078F00
078F00
FFFFF0
FFFFF0
FFFFF0
0F0E00
0F1E00
0E1E00
0E1C00
0E1C00
0E1C00
1E3C00
1E3C00
ENDCHAR
STARTCHAR 0024
ENCODING 36
SWIDTH 565 0
DWIDTH 22 0
BBX 19 36 2 -4
BITMAP
00E000
00E000
00E000
00E000
03F800
0FFE00
1FFF00
3FFF80
7F1FC0
7E0FC0
7C07C0
7C07C0
7C07E0
7E0000
7F0000
3F8000
3FF000
1FFC00
07FE00
01FF80
007F80
001FC0
000FC0
F807C0
F807E0
F807C0
FC07C0
7E0FC0
7FFFC0
3FFF80
1FFF00
07FC00
00E000
00E000
00E000
00E000
ENDCHAR
STARTCHAR 0025
ENCODING 37
SWIDTH 720 0
DWIDTH 28 0
BBX 25 28 2 0
BITMAP
1F800000
7FC00000
7FE00000
F1E06000
F0F07000
E0F0F000
E0F1E000
E0F1C000
F0F3C000
F9E38000
7FE78000
3FCF0000
0F0E0000
001E0000
003C0000
00380000
0079FE00
0073FF00
00F3FF00
01E78780
01C78780
03C78780
07878780
07078780
0F078780
0203FF00
0003FF00
0000FE00
ENDCHAR
STARTCHAR 0026
ENCODING 38
SWIDTH 642 0
DWIDTH 25 0
BBX 24 28 1 0
BITMAP
01F800
07FE00
0FFF00
0FFF80
1F9F80
1F0F80
1F0780
1F0780
1F0F80
1F1F00
0FBF00
0FFE00
07F800
07F000
0FF800
1FF83C
3FFC3C
7E7E7C
7C3F7C
FC1FFC
FC1FF8
FC0FF8
7C07F0
7E0FF0
7FFFF8
3FFFFC
1FFF7E
07FC7F
ENDCHAR
STARTCHAR 0027
ENCODING 39
SWIDTH 154 0
DWIDTH 6 0
BBX 4 10 1 19
BITMAP
F0
F0
F0
F0
F0
F0
F0
F0
F0
F0
ENDCHAR
STARTCHAR 0028
ENCODING 40
SWIDTH 334 0
DWIDTH 13 0
BBX 11 40 2 -9
BITMAP
0040
00C0
01E0
03C0
0780
0F80
0F00
1E00
1E00
3E00
3C00
7C00
7C00
7800
7800
7800
F800
F800
F800
F800
F800
F800
F800
7800
7800
7800
7800
7C00
7C00
3C00
3E00
1E00
1E00
0F00
0F80
0780
03C0
01E0
00C0
0040
ENDCHAR
STARTCHAR 0029
ENCODING 41
SWIDTH 334 0
DWIDTH 13 0
BBX 11 38 1 -8
BITMAP
E000
F000
F800
7C00
3C00
1E00
1F00
0F00
0F80
0F80
0780
07C0
07C0
07C0
07C0
07C0
03C0
03C0
03E0
03E0
03E0
03C0
07C0
07C0
07C0
07C0
07C0
0780
0F80
0F80
0F00
1F00
1E00
3C00
7C00
F800
F000
E000
ENDCHAR
STARTCHAR 002A
ENCODING 42
SWIDTH 437 0
DWIDTH 17 0
BBX 16 17 1 11
BITMAP
03C0
03C0
03C0
03C0
03C0
E3C7
F9DF
FFFF
7FFE
07F0
07E0
0FF0
1EF0
3E78
3C3C
383C
0810
ENDCHAR
STARTCHAR 002B
ENCODING 43
SWIDTH 540 0
DWIDTH 21 0
BBX 19 20 1 3
BITMAP
01F000
01F000
01F000
01F000
01F000
01F000
01F000
01F000
FFFFE0
FFFFE0
FFFFE0
FFFFE0
01F000
01F000
01F000
01F000
01F000
01F000
01F000
01F000
ENDCHAR
STARTCHAR 002C
ENCODING 44
SWIDTH 231 0
DWIDTH 9 0
BBX 6 12 1 -7
BITMAP
3C
3C
3C
3C
3C
3C
7C
7C
78
F8
F0
20
ENDCHAR
STARTCHAR 002D
ENCODING 45
SWIDTH 385 0
DWIDTH 15 0
BBX 11 4 2 10
BITMAP
FFE0
FFE0
FFE0
FFE0
ENDCHAR
STARTCHAR 002E
ENCODING 46
SWIDTH 282 0
DWIDTH 11 0
BBX 7 5 2 0
BITMAP
7C
FC
FE
7C
7C
ENDCHAR
STARTCHAR 002F
ENCODING 47
SWIDTH 360 0
DWIDTH 14 0
BBX 14 30 0 -2
BITMAP
003C
007C
0078
0078
00F8
00F0
00F0
01F0
01E0
01E0
03E0
03C0
03C0
07C0
0780
0780
0F80
0F00
0F00
1E00
1E00
1E00
3C00
3C00
3C00
7800
7800
7800
F000
F000
ENDCHAR
STARTCHAR 0030
ENCODING 48
SWIDTH 565 0
DWIDTH 22 0
BBX 19 28 2 0
BITMAP
03F800
0FFE00
1FFF00
3FFF00
7F1F80
7C0FC0
FC0FC0
FC07C0
F807C0
F807C0
F807C0
F807E0
F807E0
F807E0
F807E0
F807E0
F807E0
F807E0
F807C0
F807C0
FC07C0
FC0FC0
7C0FC0
7E1F80
3FFF80
3FFF00
1FFE00
07F800
ENDCHAR
STARTCHAR 0031
ENCODING 49
SWIDTH 565 0
DWIDTH 22 0
BBX 12 28 3 0
BITMAP
0010
00F0
07F0
1FF0
FFF0
FFF0
FFF0
F1F0
81F0
01F0
01F0
01F0
01F0
01F0
01F0
01F0
01F0
01F0
01F0
01F0
01F0
01F0
01F0
01F0
01F0
01F0
01F0
01F0
ENDCHAR
STARTCHAR 0032
ENCODING 50
SWIDTH 565 0
DWIDTH 22 0
BBX 20 28 1 0
BITMAP
03FC00
0FFF00
1FFF80
3FFFC0
7F1FC0
7E07E0
7C07E0
FC07E0
FC07E0
0007E0
0007C0
000FC0
000FC0
001F80
003F00
007E00
00FC00
01FC00
03F800
07F000
0FE000
0FC000
1F8000
3F0000
7FFFF0
7FFFF0
7FFFF0
7FFFF0
ENDCHAR
STARTCHAR 0033
ENCODING 51
SWIDTH 565 0
DWIDTH 22 0
BBX 19 28 1 0
BITMAP
03FC00
0FFF00
1FFF80
3FFFC0
7F9FC0
7E07E0
7C07E0
7C03E0
0007E0
0007E0
0007C0
001FC0
03FF80
03FE00
03FF00
03FFC0
000FC0
0007E0
0003E0
0003E0
FC03E0
FC03E0
FC07E0
7E0FE0
7FFFC0
3FFF80
1FFF00
07FC00
ENDCHAR
STARTCHAR 0034
ENCODING 52
SWIDTH 565 0
DWIDTH 22 0
BBX 20 28 1 0
BITMAP
000F80
001F80
003F80
003F80
007F80
00FF80
00FF80
01FF80
03EF80
03EF80
07CF80
078F80
0F8F80
1F0F80
1E0F80
3E0F80
7C0F80
7C0F80
FFFFF0
FFFFF0
FFFFF0
FFFFF0
000F80
000F80
000F80
000F80
000F80
000F80
ENDCHAR
STARTCHAR 0035
ENCODING 53
SWIDTH 565 0
DWIDTH 22 0
BBX 19 28 2 0
BITMAP
3FFFC0
3FFFC0
3FFFC0
3FFFC0
3FFFC0
3E0000
3E0000
7C0000
7C0000
7C0000
7DFC00
7FFF00
7FFF80
7FFF80
7C1FC0
000FC0
0007C0
0007E0
0007E0
0007E0
F807E0
FC07C0
FC0FC0
7E1FC0
7FFF80
3FFF80
1FFE00
07FC00
ENDCHAR
STARTCHAR 0036
ENCODING 54
SWIDTH 565 0
DWIDTH 22 0
BBX 19 28 2 0
BITMAP
003E00
01FE00
03FE00
07FE00
0FFC00
1FC000
3F0000
3E0000
7E0000
7C0000
FDFE00
FFFF00
FFFF80
FFFFC0
FE0FC0
FC07E0
F807E0
F807E0
F807E0
F807E0
FC07E0
FC07E0
7C0FC0
7E1FC0
3FFF80
1FFF80
0FFF00
07FC00
ENDCHAR
STARTCHAR 0037
ENCODING 55
SWIDTH 565 0
DWIDTH 22 0
BBX 20 28 1 0
BITMAP
FFFFF0
FFFFF0
FFFFF0
FFFFF0
FFFFE0
0007E0
0007C0
0007C0
000F80
000F80
001F80
001F00
003F00
003E00
007E00
007C00
00FC00
00FC00
00F800
01F800
01F000
03F000
03E000
07E000
07E000
0FC000
0FC000
1F8000
ENDCHAR
STARTCHAR 0038
ENCODING 56
SWIDTH 565 0
DWIDTH 22 0
BBX 19 28 2 0
BITMAP
03F800
1FFE00
3FFF00
7FFF80
7F3F80
7E0FC0
FC0FC0
FC0FC0
FC0FC0
7C0FC0
7E0F80
3F3F80
3FFF00
0FFE00
1FFE00
3FFF80
7E1F80
FC0FC0
F807C0
F807C0
F807E0
F807C0
FC0FC0
FE1FC0
7FFFC0
3FFF80
1FFF00
0FFC00
ENDCHAR
STARTCHAR 0039
ENCODING 57
SWIDTH 565 0
DWIDTH 22 0
BBX 18 28 2 0
BITMAP
03F000
0FFC00
3FFE00
3FFF00
7F3F80
FC0F80
FC0FC0
F80FC0
F807C0
F807C0
F807C0
F807C0
FC07C0
FC0FC0
7E1FC0
7FFFC0
3FFFC0
1FF7C0
07CFC0
000F80
000F80
001F00
003F00
01FE00
0FFC00
0FF800
0FF000
0F8000
ENDCHAR
STARTCHAR 003A
ENCODING 58
SWIDTH 257 0
DWIDTH 10 0
BBX 7 21 2 0
BITMAP
78
7C
FE
FC
7C
10
00
00
00
00
00
00
00
00
00
00
7C
FC
FE
7C
7C
ENDCHAR
STARTCHAR 003B
ENCODING 59
SWIDTH 257 0
DWIDTH 10 0
BBX 7 28 1 -7
BITMAP
3C
7E
7E
7E
3E
10
00
00
00
00
00
00
00
00
00
00
3E
3E
3E
3E
3E
3E
3C
3C
7C
78
F0
20
ENDCHAR
STARTCHAR 003C
ENCODING 60
SWIDTH 488 0
DWIDTH 19 0
BBX 16 18 1 3
BITMAP
0001
0007
001F
00FF
03FF
0FFF
7FF8
FFC0
FE00
FC00
FF80
FFF0
1FFE
07FF
00FF
003F
000F
0001
ENDCHAR
STARTCHAR 003D
ENCODING 61
SWIDTH 565 0
DWIDTH 22 0
BBX 17 13 3 6
BITMAP
FFFF80
FFFF80
FFFF80
FFFF80
FFFF80
000000
000000
000000
000000
FFFF80
FFFF80
FFFF80
FFFF80
ENDCHAR
STARTCHAR 003E
ENCODING 62
SWIDTH 514 0
DWIDTH 20 0
BBX 17 18 2 3
BITMAP
800000
F00000
FC0000
FF0000
FFE000
7FF800
0FFF00
01FF80
007F80
003F80
00FF80
07FF00
3FFC00
FFF000
FF8000
FE0000
F80000
C00000
ENDCHAR
STARTCHAR 003F
ENCODING 63
SWIDTH 488 0
DWIDTH 19 0
BBX 17 28 1 0
BITMAP
07F000
1FFC00
3FFE00
7FFF00
FF7F00
FC1F80
FC1F80
F81F80
001F80
001F80
003F00
007F00
00FE00
01FC00
01F800
03F000
03E000
03E000
03E000
03C000
000000
000000
000000
03C000
07E000
07E000
07E000
03C000
ENDCHAR
STARTCHAR 0040
ENCODING 64
SWIDTH 874 0
DWIDTH 34 0
BBX 31 36 2 -9
BITMAP
0007F000
007FFE00
00FFFF80
03F80FC0
07E003E0
0F8000F0
1F000078
1E000038
3C01E03C
3C07F81C
781FFE1E
781FFC1E
F03C1C0E
F07C3C0E
F0783C0E
F0783C0E
E0F03C0E
E0F03C0E
E0F03C0E
E0F03C0E
E0F03C1E
E0F07C1C
E0F07C3C
F0F8FC38
F07FFFF8
F07FDFF0
783F0FE0
78000000
7C000000
3E000000
1F000000
0FC00800
07FFFC00
03FFFC00
00FFF800
000F0000
ENDCHAR
STARTCHAR 0041
ENCODING 65
SWIDTH 668 0
DWIDTH 26 0
BBX 26 28 0 0
BITMAP
003F0000
003F0000
003F8000
007F8000
007F8000
00FFC000
00FFC000
00FFC000
01FBE000
01F3E000
01F3F000
03F1F000
03E1F000
03E1F800
07E0F800
07C0F800
0FC0FC00
0FC0FC00
0FFFFC00
1FFFFE00
1FFFFE00
1FFFFF00
3F003F00
3F003F00
7E001F80
7E001F80
7E001F80
FC000FC0
ENDCHAR
STARTCHAR 0042
ENCODING 66
SWIDTH 617 0
DWIDTH 24 0
BBX 21 28 2 0
BITMAP
FFF000
FFFF00
FFFFC0
FFFFE0
FFFFF0
FC07F0
FC03F0
FC01F0
FC01F0
FC01F0
FC03F0
FC07E0
FFFFE0
FFFF80
FFFFC0
FFFFE0
FC03F0
FC01F8
FC01F8
FC01F8
FC01F8
FC01F8
FC03F8
FC1FF0
FFFFF0
FFFFE0
FFFFC0
FFFE00
ENDCHAR
STARTCHAR 0043
ENCODING 67
SWIDTH 642 0
DWIDTH 25 0
BBX 22 28 2 0
BITMAP
01FE00
07FF80
0FFFE0
1FFFF0
3FFFF8
7F01F8
7E00FC
7C00FC
FC00FC
FC007C
FC0000
F80000
F80000
F80000
F80000
F80000
F80000
F80000
FC0000
FC00FC
FC00FC
7E00FC
7E01F8
3F87F8
3FFFF0
1FFFE0
07FFC0
03FF00
ENDCHAR
STARTCHAR 0044
ENCODING 68
SWIDTH 642 0
DWIDTH 25 0
BBX 22 28 2 0
BITMAP
FFE000
FFFE00
FFFF00
FFFFC0
FFFFE0
FC0FE0
FC03F0
FC03F0
FC01F8
FC01F8
FC00F8
FC00F8
FC00FC
FC00FC
FC00FC
FC00FC
FC00FC
FC00F8
FC01F8
FC01F8
FC01F8
FC03F0
FC07F0
FC7FE0
FFFFC0
FFFF80
FFFE00
FFF800
ENDCHAR
STARTCHAR 0045
ENCODING 69
SWIDTH 540 0
DWIDTH 21 0
BBX 19 28 2 0
BITMAP
FFFFE0
FFFFE0
FFFFE0
FFFFE0
FFFFE0
FC0000
FC0000
FC0000
FC0000
FC0000
FC0000
FC0000
FFFF80
FFFF80
FFFF80
FFFF80
FC0000
FC0000
FC0000
FC0000
FC0000
FC0000
FC0000
FC0000
FFFFE0
FFFFE0
FFFFE0
FFFFE0
ENDCHAR
STARTCHAR 0046
ENCODING 70
SWIDTH 540 0
DWIDTH 21 0
BBX 19 28 2 0
BITMAP
FFFFE0
FFFFE0
FFFFE0
FFFFE0
FFFFE0
FC0000
FC0000
FC0000
FC0000
FC0000
FC0000
FC0000
FFFF80
FFFF80
FFFF80
FFFF80
FFFF80
FC0000
FC0000
FC0000
FC0000
FC0000
FC0000
FC0000
FC0000
FC0000
FC0000
FC0000
ENDCHAR
STARTCHAR 0047
ENCODING 71
SWIDTH 668 0
DWIDTH 26 0
BBX 22 28 2 0
BITMAP
00FF00
07FFC0
0FFFE0
1FFFF0
3FE7F8
3F01F8
7E00FC
7E00FC
FC007C
FC0000
FC0000
FC0000
FC0000
FC0000
FC1FFC
FC1FFC
FC1FFC
FC1FFC
FC007C
FC007C
7E007C
7E007C
7F007C
3FC1FC
1FFFFC
0FFFF8
07FFF0
01FFC0
ENDCHAR
STARTCHAR 0048
ENCODING 72
SWIDTH 694 0
DWIDTH 27 0
BBX 23 28 2 0
BITMAP
FC007E
FC007E
FC007E
FC007E
FC007E
FC007E
FC007E
FC007E
FC007E
FC007E
FC007E
FC007E
FFFFFE
FFFFFE
FFFFFE
FFFFFE
FC007E
FC007E
FC007E
FC007E
FC007E
FC007E
FC007E
FC007E
FC007E
FC007E
FC007E
FC007E
ENDCHAR
STARTCHAR 0049
ENCODING 73
SWIDTH 282 0
DWIDTH 11 0
BBX 6 28 3 0
BITMAP
FC
FC
FC
FC
FC
FC
FC
FC
FC
FC
FC
FC
FC
FC
FC
FC
FC
FC
FC
FC
FC
FC
FC
FC
FC
FC
FC
FC
ENDCHAR
STARTCHAR 004A
ENCODING 74
SWIDTH 540 0
DWIDTH 21 0
BBX 18 28 1 0
BITMAP
0007C0
0007C0
0007C0
0007C0
0007C0
0007C0
0007C0
0007C0
0007C0
0007C0
0007C0
0007C0
0007C0
0007C0
0007C0
0007C0
0007C0
0007C0
0007C0
0007C0
FC07C0
FC0FC0
FC0FC0
FE1FC0
7FFF80
3FFF00
1FFE00
0FF800
ENDCHAR
STARTCHAR 004B
ENCODING 75
SWIDTH 617 0
DWIDTH 24 0
BBX 23 28 2 0
BITMAP
FC00FE
FC01FC
FC03F8
FC07F0
FC07E0
FC0FE0
FC1FC0
FC3F80
FC7F00
FC7E00
FCFE00
FDFC00
FDF800
FFF800
FFFC00
FFFE00
FFFE00
FFBF00
FF3F80
FE1F80
FC1FC0
FC0FE0
FC07E0
FC07F0
FC03F8
FC01F8
FC01FC
FC00FE
ENDCHAR
STARTCHAR 004C
ENCODING 76
SWIDTH 540 0
DWIDTH 21 0
BBX 18 28 2 0
BITMAP
FC0000
FC0000
FC0000
FC0000
FC0000
FC0000
FC0000
FC0000
FC0000
FC0000
FC0000
FC0000
FC0000
FC0000
FC0000
FC0000
FC0000
FC0000
FC0000
FC0000
FC0000
FC0000
FC0000
FC0000
FFFFC0
FFFFC0
FFFFC0
FFFFC0
ENDCHAR
STARTCHAR 004D
ENCODING 77
SWIDTH 874 0
DWIDTH 34 0
BBX 30 28 2 0
BITMAP
FF0003FC
FF0003FC
FF8007FC
FF8007FC
FF8007FC
FFC00FFC
FFC00FFC
FFC00FFC
FFE01FFC
FFE01FFC
FDE01EFC
FDF03EFC
FDF03EFC
FCF87CFC
FCF87CFC
FC7878FC
FC7CF8FC
FC7CF8FC
FC3CF0FC
FC3FF0FC
FC3FF0FC
FC1FE0FC
FC1FE0FC
FC1FE0FC
FC0FC0FC
FC0FC0FC
FC0780FC
FC0780FC
ENDCHAR
STARTCHAR 004E
ENCODING 78
SWIDTH 694 0
DWIDTH 27 0
BBX 23 28 2 0
BITMAP
FC007E
FE007E
FE007E
FF007E
FF807E
FF807E
FFC07E
FFC07E
FFE07E
FFF07E
FDF07E
FDF87E
FCF87E
FC7C7E
FC7E7E
FC3E7E
FC3F7E
FC1F7E
FC0FFE
FC0FFE
FC07FE
FC07FE
FC03FE
FC01FE
FC01FE
FC00FE
FC00FE
FC007E
ENDCHAR
STARTCHAR 004F
ENCODING 79
SWIDTH 668 0
DWIDTH 26 0
BBX 23 28 2 0
BITMAP
00FE00
07FF80
0FFFE0
1FFFF0
3FFFF8
3F01F8
7E00FC
7E00FC
FC007E
FC007E
FC007E
F8007E
F8007E
F8007E
F8007E
F8007E
F8007E
FC007E
FC007E
FC007E
FC00FC
7E00FC
7F01F8
3F87F8
1FFFF0
0FFFE0
07FFC0
01FF00
ENDCHAR
STARTCHAR 0050
ENCODING 80
SWIDTH 642 0
DWIDTH 25 0
BBX 22 28 2 0
BITMAP
FFFC00
FFFF80
FFFFC0
FFFFE0
FFFFF0
FC03F8
FC01F8
FC00F8
FC00FC
FC00FC
FC00FC
FC01F8
FC01F8
FC07F8
FFFFF0
FFFFE0
FFFFC0
FFFF00
FC0000
FC0000
FC0000
FC0000
FC0000
FC0000
FC0000
FC0000
FC0000
FC0000
ENDCHAR
STARTCHAR 0051
ENCODING 81
SWIDTH 668 0
DWIDTH 26 0
BBX 23 33 2 -5
BITMAP
00FE00
07FF80
0FFFE0
1FFFF0
3FFFF8
3F01F8
7E00FC
7C00FC
FC007C
FC007E
FC007E
F8007E
F8007E
F8007E
F8007E
F8007E
F8007E
FC007E
FC007E
FC007E
FC00FC
7E00FC
7F01F8
3F87F8
1FFFF0
0FFFE0
07FFE0
01FFF0
0003F8
0001FE
0000FC
000038
000010
ENDCHAR
STARTCHAR 0052
ENCODING 82
SWIDTH 617 0
DWIDTH 24 0
BBX 22 28 2 0
BITMAP
FFF800
FFFF80
FFFFC0
FFFFE0
FFFFF0
FC03F0
FC01F8
FC01F8
FC01F8
FC01F8
FC01F8
FC01F8
FC03F0
FFFFF0
FFFFE0
FFFFC0
FFFF00
FFFF80
FC1F80
FC0FC0
FC0FC0
FC07E0
FC07E0
FC03F0
FC03F0
FC01F8
FC01F8
FC00FC
ENDCHAR
STARTCHAR 0053
ENCODING 83
SWIDTH 591 0
DWIDTH 23 0
BBX 22 28 1 0
BITMAP
01FE00
07FFC0
0FFFE0
1FFFF0
3FC7F8
7F01F8
7E01F8
7E00F8
7E0000
7F0000
3F8000
3FE000
1FFC00
0FFF80
03FFC0
00FFE0
001FF0
0003F8
0001F8
FC00F8
FC00FC
7C00FC
7E01F8
7F83F8
3FFFF8
1FFFF0
0FFFE0
03FF80
ENDCHAR
STARTCHAR 0054
ENCODING 84
SWIDTH 617 0
DWIDTH 24 0
BBX 22 28 1 0
BITMAP
FFFFFC
FFFFFC
FFFFFC
FFFFFC
FFFFFC
00FC00
00FC00
00FC00
00FC00
00FC00
00FC00
00FC00
00FC00
00FC00
00FC00
00FC00
00FC00
00FC00
00FC00
00FC00
00FC00
00FC00
00FC00
00FC00
00FC00
00FC00
00FC00
00FC00
ENDCHAR
STARTCHAR 0055
ENCODING 85
SWIDTH 642 0
DWIDTH 25 0
BBX 21 28 2 0
BITMAP
FC00F8
FC00F8
FC00F8
FC00F8
FC00F8
FC00F8
FC00F8
FC00F8
FC00F8
FC00F8
FC00F8
FC00F8
FC00F8
FC00F8
FC00F8
FC00F8
FC00F8
FC00F8
FC00F8
FC00F8
FC00F8
7C01F8
7E01F8
7F87F0
3FFFF0
1FFFE0
0FFFC0
03FF00
ENDCHAR
STARTCHAR 0056
ENCODING 86
SWIDTH 642 0
DWIDTH 25 0
BBX 25 28 0 0
BITMAP
FC001F80
7E001F80
7E003F80
7E003F00
3F003F00
3F007F00
3F007E00
1F807E00
1F807C00
1F80FC00
0F80FC00
0FC0F800
0FC1F800
07C1F800
07E1F000
07E3F000
03E3F000
03F3E000
03F3E000
01F7E000
01F7C000
01FFC000
00FFC000
00FF8000
00FF8000
007F8000
007F0000
003F0000
ENDCHAR
STARTCHAR 0057
ENCODING 87
SWIDTH 874 0
DWIDTH 34 0
BBX 32 28 1 0
BITMAP
F803C01F
FC07E01F
FC07E03F
FC07E03F
7C07E03F
7C0FF03E
7E0FF03E
7E0FF07E
7E0FF07E
3E1FF87C
3E1FF87C
3E1FF87C
3F1E78FC
1F1E7CFC
1F3E7CF8
1F3E7CF8
1F3C3CF8
1FBC3FF8
0FFC3FF0
0FFC3FF0
0FF81FF0
0FF81FF0
07F81FF0
07F81FE0
07F00FE0
07F00FE0
07F00FE0
03F00FC0
ENDCHAR
STARTCHAR 0058
ENCODING 88
SWIDTH 617 0
DWIDTH 24 0
BBX 23 28 1 0
BITMAP
FC00FE
FE00FC
7E01FC
7F01F8
3F03F8
1F83F0
1F87E0
0FC7E0
0FEFC0
07EFC0
03FF80
03FF80
01FF00
01FE00
01FE00
01FF00
03FF00
03FF80
07EFC0
0FEFC0
0FC7E0
1FC7E0
1F83F0
3F03F8
7F01F8
7E01FC
FE00FC
FC00FE
ENDCHAR
STARTCHAR 0059
ENCODING 89
SWIDTH 617 0
DWIDTH 24 0
BBX 24 28 0 0
BITMAP
FC003F
7E007E
7E007E
3F00FC
3F00FC
1F81F8
1F81F8
0FC1F0
0FC3F0
07C3E0
07E7E0
03E7C0
03FFC0
01FF80
01FF80
00FF00
00FF00
007E00
007E00
007E00
007E00
007E00
007E00
007E00
007E00
007E00
007E00
007E00
ENDCHAR
STARTCHAR 005A
ENCODING 90
SWIDTH 591 0
DWIDTH 23 0
BBX 21 28 1 0
BITMAP
FFFFF8
FFFFF8
FFFFF8
FFFFF8
FFFFF8
0003F0
0007E0
000FC0
000FC0
001F80
003F00
003F00
007E00
00FC00
01FC00
01F800
03F000
07F000
07E000
0FC000
1FC000
1F8000
3F0000
7E0000
7FFFF8
FFFFF8
FFFFF8
FFFFF8
ENDCHAR
STARTCHAR 005B
ENCODING 91
SWIDTH 257 0
DWIDTH 10 0
BBX 8 38 2 -6
BITMAP
FF
FF
FF
FF
FC
FC
FC
FC
FC
FC
FC
FC
FC
FC
FC
FC
FC
FC
FC
FC
FC
FC
FC
FC
FC
FC
FC
FC
FC
FC
FC
FC
FC
FC
FF
FF
FF
FF
ENDCHAR
STARTCHAR 005C
ENCODING 92
SWIDTH 411 0
DWIDTH 16 0
BBX 17 30 0 -2
BITMAP
FC0000
FC0000
7C0000
7E0000
3E0000
3F0000
3F0000
1F0000
1F8000
0F8000
0FC000
0FC000
07C000
07E000
07E000
03E000
03F000
01F000
01F800
01F800
00F800
00FC00
00FC00
007E00
007E00
003E00
003F00
003F00
001F00
001F80
ENDCHAR
STARTCHAR 005D
ENCODING 93
SWIDTH 257 0
DWIDTH 10 0
BBX 8 38 0 -6
BITMAP
FF
FF
FF
FF
1F
1F
1F
1F
1F
1F
1F
1F
1F
1F
1F
1F
1F
1F
1F
1F
1F
1F
1F
1F
1F
1F
1F
1F
1F
1F
1F
1F
1F
1F
FF
FF
FF
FF
ENDCHAR
STARTCHAR 005E
ENCODING 94
SWIDTH 437 0
DWIDTH 17 0
BBX 15 14 1 14
BITMAP
07C0
07C0
07C0
0FE0
0FE0
1FF0
1EF0
1EF0
3C78
3C78
7C7C
783C
783E
F01E
ENDCHAR
STARTCHAR 005F
ENCODING 95
SWIDTH 437 0
DWIDTH 17 0
BBX 17 4 0 -4
BITMAP
FFFF80
FFFF80
FFFF80
FFFF80
ENDCHAR
STARTCHAR 0060
ENCODING 96
SWIDTH 308 0
DWIDTH 12 0
BBX 9 6 2 23
BITMAP
F800
7C00
7E00
3E00
1F00
0F80
ENDCHAR
STARTCHAR 0061
ENCODING 97
SWIDTH 514 0
DWIDTH 20 0
BBX 18 21 1 0
BITMAP
03F800
0FFE00
1FFF00
3FFF80
7E1F80
7C0FC0
7C0FC0
000FC0
007FC0
0FFFC0
3FFFC0
7FFFC0
7E0FC0
FC0FC0
FC0FC0
FC0FC0
FC1FC0
7FFFC0
7FFFC0
3FF7C0
1FE7C0
ENDCHAR
STARTCHAR 0062
ENCODING 98
SWIDTH 540 0
DWIDTH 21 0
BBX 19 29 2 0
BITMAP
FC0000
FC0000
FC0000
FC0000
FC0000
FC0000
FC0000
FC0000
FCF800
FFFE00
FFFF00
FFFF80
FFBF80
FC0FC0
FC0FC0
FC07C0
FC07C0
FC07E0
FC07E0
FC07E0
FC07E0
FC07C0
FC07C0
FC0FC0
FE1FC0
FFFF80
FFFF80
FBFF00
F9FC00
ENDCHAR
STARTCHAR 0063
ENCODING 99
SWIDTH 514 0
DWIDTH 20 0
BBX 18 21 1 0
BITMAP
01F800
0FFE00
1FFF00
3FFF80
3F1F80
7E0FC0
7C07C0
7C07C0
FC0000
FC0000
FC0000
FC0000
FC0000
FC0000
7C07C0
7E07C0
7E0FC0
3FFF80
1FFF80
0FFF00
07FC00
ENDCHAR
STARTCHAR 0064
ENCODING 100
SWIDTH 540 0
DWIDTH 21 0
BBX 19 29 1 0
BITMAP
0007E0
0007E0
0007E0
0007E0
0007E0
0007E0
0007E0
0007E0
03E7E0
0FF7E0
1FFFE0
3FFFE0
7FBFE0
7E07E0
7C07E0
FC07E0
FC07E0
FC07E0
FC07E0
FC07E0
FC07E0
FC07E0
7C07E0
7E07E0
7F0FE0
3FFFE0
3FFFE0
1FFBE0
07F3E0
ENDCHAR
STARTCHAR 0065
ENCODING 101
SWIDTH 540 0
DWIDTH 21 0
BBX 19 21 1 0
BITMAP
01F800
07FE00
1FFF00
1FFF80
3F9FC0
7E07C0
7E07E0
7C03E0
FC03E0
FFFFE0
FFFFE0
FFFFE0
FC0000
7C0000
7E0000
7E0180
3F0380
3FFFC0
1FFFC0
0FFF80
03FE00
ENDCHAR
STARTCHAR 0066
ENCODING 102
SWIDTH 334 0
DWIDTH 13 0
BBX 13 30 1 0
BITMAP
0060
03F8
0FF8
0FF8
1FF8
1F80
1F00
1F00
1F00
FFF0
FFF0
FFF0
FFF0
1F00
1F00
1F00
1F00
1F00
1F00
1F00
1F00
1F00
1F00
1F00
1F00
1F00
1F00
1F00
1F00
1F00
ENDCHAR
STARTCHAR 0067
ENCODING 103
SWIDTH 565 0
DWIDTH 22 0
BBX 19 29 1 -8
BITMAP
03E3E0
0FFBE0
1FFFE0
3FFFE0
3F9FE0
7E07E0
7E03E0
7C03E0
FC03E0
FC03E0
FC03E0
FC03E0
FC03E0
FC03E0
7C03E0
7E07E0
7F0FE0
3FFFE0
1FFFE0
0FFBE0
07F3E0
0007E0
0007E0
1807E0
1E1FC0
3FFFC0
3FFF80
1FFE00
03F800
ENDCHAR
STARTCHAR 0068
ENCODING 104
SWIDTH 540 0
DWIDTH 21 0
BBX 18 29 2 0
BITMAP
F80000
F80000
F80000
F80000
F80000
F80000
F80000
F80000
F87C00
F9FE00
FBFF00
FFFF80
FF3F80
FC0FC0
F80FC0
F80FC0
F80FC0
F80FC0
F80FC0
F80FC0
F80FC0
F80FC0
F80FC0
F80FC0
F80FC0
F80FC0
F80FC0
F80FC0
F80FC0
ENDCHAR
STARTCHAR 0069
ENCODING 105
SWIDTH 257 0
DWIDTH 10 0
BBX 6 29 2 0
BITMAP
30
7C
FC
FC
FC
38
00
00
FC
FC
FC
FC
FC
FC
FC
FC
FC
FC
FC
FC
FC
FC
FC
FC
FC
FC
FC
FC
FC
ENDCHAR
STARTCHAR 006A
ENCODING 106
SWIDTH 257 0
DWIDTH 10 0
BBX 10 37 -2 -8
BITMAP
0300
0FC0
0FC0
0FC0
0FC0
0780
0000
0000
0FC0
0FC0
0FC0
0FC0
0FC0
0FC0
0FC0
0FC0
0FC0
0FC0
0FC0
0FC0
0FC0
0FC0
0FC0
0FC0
0FC0
0FC0
0FC0
0FC0
0FC0
0FC0
0FC0
0FC0
1FC0
FF80
FF80
FF00
FE00
ENDCHAR
STARTCHAR 006B
ENCODING 107
SWIDTH 514 0
DWIDTH 20 0
BBX 19 29 2 0
BITMAP
FC0000
FC0000
FC0000
FC0000
FC0000
FC0000
FC0000
FC0000
FC0FE0
FC1FC0
FC3F80
FC7F00
FC7E00
FCFC00
FDF800
FFF000
FFE000
FFE000
FFF000
FFF800
FFF800
FEFC00
FC7E00
FC7E00
FC3F00
FC1F80
FC1FC0
FC0FC0
FC07E0
ENDCHAR
STARTCHAR 006C
ENCODING 108
SWIDTH 257 0
DWIDTH 10 0
BBX 6 29 2 0
BITMAP
FC
FC
FC
FC
FC
FC
FC
FC
FC
FC
FC
FC
FC
FC
FC
FC
FC
FC
FC
FC
FC
FC
FC
FC
FC
FC
FC
FC
FC
ENDCHAR
STARTCHAR 006D
ENCODING 109
SWIDTH 848 0
DWIDTH 33 0
BBX 30 21 2 0
BITMAP
F87C0FC0
F9FF3FE0
FBFF7FF0
FFFFFFF8
FF3FF3F8
FC0FC0F8
FC0FC0FC
FC0FC0FC
FC0FC0FC
FC0FC0FC
FC0FC0FC
FC0FC0FC
FC0FC0FC
FC0FC0FC
FC0FC0FC
FC0FC0FC
FC0FC0FC
FC0FC0FC
FC0FC0FC
FC0FC0FC
FC0FC0FC
ENDCHAR
STARTCHAR 006E
ENCODING 110
SWIDTH 540 0
DWIDTH 21 0
BBX 18 21 2 0
BITMAP
F87C00
F9FF00
FBFF00
FFFF80
FF3F80
FC0FC0
F80FC0
F80FC0
F80FC0
F80FC0
F80FC0
F80FC0
F80FC0
F80FC0
F80FC0
F80FC0
F80FC0
F80FC0
F80FC0
F80FC0
F80FC0
ENDCHAR
STARTCHAR 006F
ENCODING 111
SWIDTH 540 0
DWIDTH 21 0
BBX 20 21 1 0
BITMAP
01F800
07FE00
1FFF80
3FFFC0
3F9FC0
7E07E0
7E07E0
7C03E0
FC03F0
FC03F0
FC03F0
FC03F0
FC03F0
FC03E0
7C03E0
7E07E0
7F0FC0
3FFFC0
1FFF80
0FFF00
03FC00
ENDCHAR
STARTCHAR 0070
ENCODING 112
SWIDTH 540 0
DWIDTH 21 0
BBX 19 29 2 -8
BITMAP
F8F800
FBFE00
FFFF00
FFFF80
FF3F80
FC0FC0
FC0FC0
FC07C0
FC07C0
FC07E0
FC07E0
FC07E0
FC07E0
FC07C0
FC07C0
FC0FC0
FE1FC0
FFFF80
FFFF00
FFFF00
FDFC00
FC0000
FC0000
FC0000
FC0000
FC0000
FC0000
FC0000
FC0000
ENDCHAR
STARTCHAR 0071
ENCODING 113
SWIDTH 540 0
DWIDTH 21 0
BBX 19 29 1 -8
BITMAP
03E3E0
0FFBE0
1FFFE0
3FFFE0
7FBFE0
7E07E0
7C07E0
FC07E0
FC07E0
FC07E0
FC07E0
FC07E0
FC07E0
FC07E0
7C07E0
7E07E0
7F0FE0
3FFFE0
3FFFE0
1FFFE0
07F7E0
0007E0
0007E0
0007E0
0007E0
0007E0
0007E0
0007E0
0007E0
ENDCHAR
STARTCHAR 0072
ENCODING 114
SWIDTH 360 0
DWIDTH 14 0
BBX 12 21 2 0
BITMAP
F8F0
F9F0
FBF0
FFF0
FFF0
FF00
FC00
FC00
FC00
FC00
FC00
FC00
FC00
FC00
FC00
FC00
FC00
FC00
FC00
FC00
FC00
ENDCHAR
STARTCHAR 0073
ENCODING 115
SWIDTH 488 0
DWIDTH 19 0
BBX 18 21 1 0
BITMAP
03F000
1FFE00
3FFF00
7FFF80
7E1F80
7C0F80
7C0F80
7E0000
7F8000
3FF800
1FFE00
0FFF00
01FF80
001F80
F80FC0
F80FC0
FC0F80
7FBF80
3FFF00
1FFE00
0FFC00
ENDCHAR
STARTCHAR 0074
ENCODING 116
SWIDTH 334 0
DWIDTH 13 0
BBX 12 26 0 0
BITMAP
1F80
1F80
1F80
1F80
1F80
FFF0
FFF0
FFF0
FFF0
1F80
1F80
1F80
1F80
1F80
1F80
1F80
1F80
1F80
1F80
1F80
1F80
1F80
1FF0
0FF0
0FF0
07F0
ENDCHAR
STARTCHAR 0075
ENCODING 117
SWIDTH 540 0
DWIDTH 21 0
BBX 18 21 2 0
BITMAP
F80FC0
F80FC0
F80FC0
F80FC0
F80FC0
F80FC0
F80FC0
F80FC0
F80FC0
F80FC0
F80FC0
F80FC0
F80FC0
F80FC0
F80FC0
FC0FC0
FC1FC0
7FFFC0
7FFFC0
3FF7C0
1FC7C0
ENDCHAR
STARTCHAR 0076
ENCODING 118
SWIDTH 488 0
DWIDTH 19 0
BBX 19 21 0 0
BITMAP
FC03E0
7C07E0
7E07E0
7E07C0
3E07C0
3E0FC0
3F0F80
1F0F80
1F1F80
1F1F00
0F9F00
0F9F00
0FBE00
07FE00
07FE00
07FC00
03FC00
03FC00
03F800
01F800
01F800
ENDCHAR
STARTCHAR 0077
ENCODING 119
SWIDTH 720 0
DWIDTH 28 0
BBX 27 21 1 0
BITMAP
F81E03E0
F81F07E0
F81F07C0
F83F07C0
7C3F07C0
7C3F87C0
7C3F8F80
7C7F8F80
3C7F8F80
3E7BCF80
3EF3CF00
3EF3DF00
1EF1FF00
1EF1FF00
1FE1FE00
1FE0FE00
0FE0FE00
0FC0FE00
0FC0FC00
0FC07C00
07C07C00
ENDCHAR
STARTCHAR 0078
ENCODING 120
SWIDTH 488 0
DWIDTH 19 0
BBX 18 21 1 0
BITMAP
FC0FC0
FC0FC0
7E1F80
7E1F00
3F3F00
1F3E00
1FFE00
0FFC00
0FFC00
07F800
07F000
07F800
0FFC00
0FFC00
1FFE00
1F3E00
3F3F00
7E1F00
7E1F80
FC0FC0
FC0FC0
ENDCHAR
STARTCHAR 0079
ENCODING 121
SWIDTH 488 0
DWIDTH 19 0
BBX 20 29 0 -8
BITMAP
FC03F0
FC07E0
7E07E0
7E07C0
7E0FC0
3E0FC0
3F0F80
1F0F80
1F1F80
1F9F00
0F9F00
0FBF00
0FFE00
07FE00
07FE00
07FC00
03FC00
03FC00
03F800
01F800
01F800
01F000
01F000
03F000
07E000
3FE000
3FC000
3F8000
3F0000
ENDCHAR
STARTCHAR 007A
ENCODING 122
SWIDTH 488 0
DWIDTH 19 0
BBX 17 21 1 0
BITMAP
7FFF80
7FFF80
7FFF80
7FFF80
7FFF80
003F00
007E00
00FC00
01FC00
01F800
03F000
07E000
0FC000
0FC000
1F8000
3F0000
7E0000
7FFF80
FFFF80
FFFF80
FFFF80
ENDCHAR
STARTCHAR 007B
ENCODING 123
SWIDTH 308 0
DWIDTH 12 0
BBX 11 37 1 -7
BITMAP
00C0
03E0
07E0
0FC0
0F80
0F80
1F00
1F00
1F00
1F00
1F00
1F00
1F00
1F00
1F00
3F00
FE00
FC00
F800
FC00
7E00
1F00
1F00
1F00
1F00
1F00
1F00
1F00
1F00
1F00
0F00
0F80
0F80
07C0
03E0
01E0
0040
ENDCHAR
STARTCHAR 007C
ENCODING 124
SWIDTH 231 0
DWIDTH 9 0
BBX 4 33 3 -5
BITMAP
F0
F0
F0
F0
F0
F0
F0
F0
F0
F0
F0
F0
F0
F0
F0
F0
F0
F0
F0
F0
F0
F0
F0
F0
F0
F0
F0
F0
F0
F0
F0
F0
F0
ENDCHAR
STARTCHAR 007D
ENCODING 125
SWIDTH 308 0
DWIDTH 12 0
BBX 11 37 1 -7
BITMAP
E000
F800
FC00
7C00
3E00
3E00
3E00
1E00
1F00
1F00
1F00
1F00
1F00
1F00
1F00
1F80
0FE0
07E0
03E0
0FE0
0F80
1F00
1F00
1F00
1F00
1F00
1F00
1F00
1F00
3E00
3E00
3E00
3E00
FC00
F800
F000
4000
ENDCHAR
STARTCHAR 007E
ENCODING 126
SWIDTH 642 0
DWIDTH 25 0
BBX 21 9 2 7
BITMAP
070000
1FC078
3FE078
7FF0F8
7FFFF8
F87FF0
F03FF0
F01FE0
000780
ENDCHAR
STARTCHAR 00A0
ENCODING 160
SWIDTH 231 0
DWIDTH 9 0
BBX 0 0 0 0
BITMAP
ENDCHAR
STARTCHAR 00A1
ENCODING 161
SWIDTH 282 0
DWIDTH 11 0
BBX 7 28 2 -7
BITMAP
38
7C
FE
FE
7C
38
00
00
00
7C
7C
7C
7C
7C
7C
7C
7C
7C
7C
7C
7C
7C
7C
7C
7C
7C
7C
7C
ENDCHAR
STARTCHAR 00A2
ENCODING 162
SWIDTH 565 0
DWIDTH 22 0
BBX 18 30 2 -5
BITMAP
00E000
00E000
00E000
00E000
03F000
0FFE00
1FFF00
3FFF80
7F3F80
7E0FC0
FC0FC0
FC07C0
FC0000
F80000
F80000
F80000
F80000
FC0000
FC07C0
7C0FC0
7E1F80
3FFF80
3FFF00
1FFE00
07FC00
00E000
00E000
00E000
00E000
00E000
ENDCHAR
STARTCHAR 00A3
ENCODING 163
SWIDTH 591 0
DWIDTH 23 0
BBX 20 28 2 0
BITMAP
00FE00
03FF80
07FFC0
0FFFE0
1FEFE0
1F83F0
1F83F0
1F03F0
1F0000
1F0000
1F0000
1F8000
1F8000
FFFC00
FFFC00
FFFC00
FFFC00
1F8000
1F8000
1F8000
1F8000
1F8000
1F0000
3F0000
FFFFF0
FFFFF0
FFFFF0
FFFFF0
ENDCHAR
STARTCHAR 00A4
ENCODING 164
SWIDTH 668 0
DWIDTH 26 0
BBX 23 24 2 -1
BITMAP
200008
71FF1C
FFFFFE
FFFFFE
7F83FC
3E00F8
3C0078
78003C
78003C
70001C
F0001E
F0001E
F0001E
F0001E
F0001E
70001C
78003C
78003C
3C0078
3E00F8
7F83FC
FFFFFE
F7FFDE
61FF0C
ENDCHAR
STARTCHAR 00A5
ENCODING 165
SWIDTH 514 0
DWIDTH 20 0
BBX 21 28 0 0
BITMAP
FC01F8
7E03F0
7E03F0
3E07E0
3F07E0
1F07C0
1F8FC0
1F8F80
0F9F80
0FDF00
07DF00
07FF00
03FE00
03FE00
3FFFE0
3FFFE0
3FFFE0
00F800
00F800
3FFFE0
3FFFE0
3FFFE0
3FFFE0
00F800
00F800
00F800
00F800
00F800
ENDCHAR
STARTCHAR 00A6
ENCODING 166
SWIDTH 231 0
DWIDTH 9 0
BBX 5 33 2 -5
BITMAP
F8
F8
F8
F8
F8
F8
F8
F8
F8
F8
F8
F8
F8
F8
F8
00
00
00
F8
F8
F8
F8
F8
F8
F8
F8
F8
F8
F8
F8
F8
F8
F8
ENDCHAR
STARTCHAR 00A7
ENCODING 167
SWIDTH 617 0
DWIDTH 24 0
BBX 20 37 2 -9
BITMAP
03FC00
0FFF80
3FFFC0
7FFFE0
7F8FE0
FC03F0
FC03F0
FC01F0
FC0000
7E0000
7FC000
3FF800
1FFF00
3FFFC0
7FFFE0
FC3FF0
F80FF0
F803F0
F801F0
FC01F0
FF01F0
7FE3F0
3FFFE0
1FFFC0
07FFC0
00FFE0
001FE0
0007F0
0003F0
F803F0
FC03F0
FE07F0
7FFFE0
7FFFE0
3FFFC0
0FFF00
006000
ENDCHAR
STARTCHAR 00A8
ENCODING 168
SWIDTH 462 0
DWIDTH 18 0
BBX 14 4 2 24
BITMAP
F03C
F87C
F87C
F83C
ENDCHAR
STARTCHAR 00A9
ENCODING 169
SWIDTH 771 0
DWIDTH 30 0
BBX 27 28 2 0
BITMAP
007F8000
01FFE000
07E1F800
0F003C00
1E000E00
38000700
383F8380
70FFC380
61F1E1C0
E1C0E1C0
C1C0E0C0
C380E0C0
C38000E0
C38000E0
C38000E0
C38000E0
C38000C0
C180E0C0
E1C0E0C0
61E1E1C0
70FFC180
307F8380
380C0700
1C000E00
0F001C00
07C07800
03FFF000
00FFC000
ENDCHAR
STARTCHAR 00AA
ENCODING 170
SWIDTH 437 0
DWIDTH 17 0
BBX 12 15 3 13
BITMAP
1F80
7FC0
FFE0
F0E0
60E0
00E0
1FE0
7FE0
F8E0
E0E0
E0E0
E1E0
FFE0
7FF0
3CF0
ENDCHAR
STARTCHAR 00AB
ENCODING 171
SWIDTH 488 0
DWIDTH 19 0
BBX 16 16 2 2
BITMAP
070F
0F1E
1E1C
1C3C
3C78
78F8
F8F0
F1E0
F1E0
F8F0
78F8
3C78
1C3C
1E1C
0F1E
070F
ENDCHAR
STARTCHAR 00AC
ENCODING 172
SWIDTH 540 0
DWIDTH 21 0
BBX 16 8 2 7
BITMAP
FFFF
FFFF
FFFF
0007
0007
0007
0007
0007
ENDCHAR
STARTCHAR 00AD
ENCODING 173
SWIDTH 385 0
DWIDTH 15 0
BBX 11 4 2 10
BITMAP
FFE0
FFE0
FFE0
FFE0
ENDCHAR
STARTCHAR 00AE
ENCODING 174
SWIDTH 771 0
DWIDTH 30 0
BBX 27 28 2 0
BITMAP
007F8000
01FFE000
07E1F800
0F003C00
1E000E00
38000700
38FF0380
70FFC380
60C3E1C0
E0C0E1C0
C0C0E0C0
C0C0E0C0
C0C1E0E0
C0FFC0E0
C0FF80E0
C0FFC0E0
C0C0E0C0
C0C0E0C0
E0C0E0C0
60C0E1C0
70C0E180
30C0E380
38000700
1C000E00
0F001C00
07C07800
03FFF000
00FFC000
ENDCHAR
STARTCHAR 00AF
ENCODING 175
SWIDTH 488 0
DWIDTH 19 0
BBX 13 3 3 25
BITMAP
FFF8
FFF8
FFF8
ENDCHAR
STARTCHAR 00B0
ENCODING 176
SWIDTH 385 0
DWIDTH 15 0
BBX 11 10 2 18
BITMAP
1F00
3F80
7FC0
71C0
E0E0
E0E0
70E0
7BC0
3F80
1F00
ENDCHAR
STARTCHAR 00B1
ENCODING 177
SWIDTH 514 0
DWIDTH 20 0
BBX 17 24 2 0
BITMAP
03E000
03E000
03E000
03E000
03E000
03E000
FFFF80
FFFF80
FFFF80
FFFF80
FFFF80
03E000
03E000
03E000
03E000
03E000
03E000
03E000
000000
000000
FFFF80
FFFF80
FFFF80
FFFF80
ENDCHAR
STARTCHAR 00B2
ENCODING 178
SWIDTH 360 0
DWIDTH 14 0
BBX 12 15 1 13
BITMAP
0F80
3FC0
7FE0
F9F0
F0F0
00F0
01E0
03E0
07C0
0F80
1F00
3C00
7FF0
FFF0
FFF0
ENDCHAR
STARTCHAR 00B3
ENCODING 179
SWIDTH 360 0
DWIDTH 14 0
BBX 12 15 1 12
BITMAP
0F80
3FE0
7FE0
F9F0
00F0
00F0
0FE0
0FC0
0FE0
00F0
00F0
F0F0
FFF0
7FE0
3FC0
ENDCHAR
STARTCHAR 00B4
ENCODING 180
SWIDTH 308 0
DWIDTH 12 0
BBX 9 6 2 23
BITMAP
1F80
1F00
3E00
7C00
7800
F800
ENDCHAR
STARTCHAR 00B5
ENCODING 181
SWIDTH 617 0
DWIDTH 24 0
BBX 18 29 3 -8
BITMAP
F80FC0
F80FC0
F80FC0
F80FC0
F80FC0
F80FC0
F80FC0
F80FC0
F80FC0
F80FC0
F80FC0
F80FC0
F80FC0
F80FC0
F80FC0
FC0FC0
FC1FC0
FFFFC0
FFFFC0
FFFFC0
FFF7C0
F80000
F80000
F80000
F80000
F80000
F80000
F80000
F80000
ENDCHAR
STARTCHAR 00B6
ENCODING 182
SWIDTH 488 0
DWIDTH 19 0
BBX 16 28 1 0
BITMAP
00FF
07FF
1FFF
3FFF
3FFF
7FFF
7FFF
7FFF
FFFF
FFFF
7FFF
7FFF
7FFF
7FFF
3FFF
1FFF
0FFF
03FF
001F
001F
001F
001F
001F
001F
001F
001F
001F
001F
ENDCHAR
STARTCHAR 00B7
ENCODING 183
SWIDTH 282 0
DWIDTH 11 0
BBX 6 6 3 10
BITMAP
78
FC
FC
FC
F8
30
ENDCHAR
STARTCHAR 00B8
ENCODING 184
SWIDTH 257 0
DWIDTH 10 0
BBX 7 9 2 -9
BITMAP
F0
FC
FE
3E
1E
3E
FE
FC
60
ENDCHAR
STARTCHAR 00B9
ENCODING 185
SWIDTH 360 0
DWIDTH 14 0
BBX 7 15 3 13
BITMAP
02
1E
FE
FE
FE
1E
1E
1E
1E
1E
1E
1E
1E
1E
1E
ENDCHAR
STARTCHAR 00BA
ENCODING 186
SWIDTH 437 0
DWIDTH 17 0
BBX 13 15 2 13
BITMAP
0FC0
3FE0
7FF0
7878
7038
F038
F038
F038
F038
F038
7038
7878
3FF0
1FE0
0F80
ENDCHAR
STARTCHAR 00BB
ENCODING 187
SWIDTH 488 0
DWIDTH 19 0
BBX 16 16 2 2
BITMAP
E1E0
F0E0
78F0
7878
3C3C
1E3C
1F1E
0F1F
0F1F
1F1E
1E3C
3C3C
7878
78F0
F0E0
E1E0
ENDCHAR
STARTCHAR 00BC
ENCODING 188
SWIDTH 694 0
DWIDTH 27 0
BBX 24 27 2 1
BITMAP
0E0000
7E0000
FE0060
FE00F0
8E00E0
0E01E0
0E01C0
0E0380
0E0780
0E0700
0E0F00
0E1E00
0E1C3E
0E3C3E
00387E
0070FE
00F0FE
00E1DE
01E39E
03C79E
03871E
078FFF
070FFF
0E0FFF
02001E
00001E
00001E
ENDCHAR
STARTCHAR 00BD
ENCODING 189
SWIDTH 745 0
DWIDTH 29 0
BBX 26 28 2 0
BITMAP
02000000
1E000000
FE000000
FE00C000
FE00E000
1E01E000
1E03C000
1E038000
1E078000
1E0F0000
1E0E0000
1E1E0000
1E1C0000
1E3C7E00
1E79FF80
0071FF80
00F3C780
01E3C3C0
01C00780
03C00780
03800F00
07801E00
0F007C00
0E00F800
1E01F000
0403FFC0
0003FFC0
0003FFC0
ENDCHAR
STARTCHAR 00BE
ENCODING 190
SWIDTH 797 0
DWIDTH 31 0
BBX 27 28 2 0
BITMAP
1F800000
7FC00000
7FE00000
F1F00C00
00F00E00
00F01C00
0FE03C00
0F803800
0FE07800
00F0F000
00F0E000
F0F1E000
FFF1C000
7FE383C0
3FC787C0
02070FC0
000F1FC0
001E1FC0
001C3BC0
003C7BC0
0038F3C0
0070E3C0
00F1FFE0
00E1FFE0
01E1FFE0
004003C0
000003C0
000003C0
ENDCHAR
STARTCHAR 00BF
ENCODING 191
SWIDTH 488 0
DWIDTH 19 0
BBX 17 28 1 -7
BITMAP
00E000
01F000
03F000
03F000
01F000
00C000
000000
000000
000000
01F000
01F000
03E000
03E000
07E000
0FC000
1F8000
3F0000
7E0000
7E0000
FC0000
FC0000
FC0F80
FC0F80
7E1F80
7FFF80
3FFF00
1FFE00
0FF800
ENDCHAR
STARTCHAR 00C0
ENCODING 192
SWIDTH 668 0
DWIDTH 26 0
BBX 26 35 0 0
BITMAP
01F00000
01F80000
00FC0000
007C0000
003E0000
001F0000
00000000
003F0000
003F0000
003F8000
007F8000
007F8000
00FFC000
00FFC000
00FFC000
01FBE000
01F3E000
01F3F000
03F1F000
03E1F000
03E1F800
07E0F800
07C0F800
0FC0FC00
0FC0FC00
0FFFFC00
1FFFFE00
1FFFFE00
1FFFFF00
3F003F00
3F003F00
7E001F80
7E001F80
7E001F80
FC000FC0
ENDCHAR
STARTCHAR 00C1
ENCODING 193
SWIDTH 668 0
DWIDTH 26 0
BBX 26 35 0 0
BITMAP
0003F000
0007E000
0007C000
000F8000
001F0000
001E0000
00000000
003F0000
003F0000
003F8000
007F8000
007F8000
00FFC000
00FFC000
00FFC000
01FBE000
01F3E000
01F3F000
03F1F000
03E1F000
03E1F800
07E0F800
07C0F800
0FC0FC00
0FC0FC00
0FFFFC00
1FFFFE00
1FFFFE00
1FFFFF00
3F003F00
3F003F00
7E001F80
7E001F80
7E001F80
FC000FC0
ENDCHAR
STARTCHAR 00C2
ENCODING 194
SWIDTH 668 0
DWIDTH 26 0
BBX 26 35 0 0
BITMAP
001E0000
003F0000
007FC000
00F3E000
01E1F000
02000000
00000000
003F0000
003F0000
003F8000
007F8000
007F8000
00FFC000
00FFC000
00FFC000
01FBE000
01F3E000
01F3F000
03F1F000
03E1F000
03E1F800
07E0F800
07C0F800
0FC0FC00
0FC0FC00
0FFFFC00
1FFFFE00
1FFFFE00
1FFFFF00
3F003F00
3F003F00
7E001F80
7E001F80
7E001F80
FC000FC0
ENDCHAR
STARTCHAR 00C3
ENCODING 195
SWIDTH 668 0
DWIDTH 26 0
BBX 26 35 0 0
BITMAP
00707000
01FCF000
01FFF000
03FFE000
0387C000
00000000
00000000
003F0000
003F0000
003F8000
007F8000
007F8000
00FFC000
00FFC000
00FFC000
01FBE000
01F3E000
01F3F000
03F1F000
03E1F000
03E1F800
07E0F800
07C0F800
0FC0FC00
0FC0FC00
0FFFFC00
1FFFFE00
1FFFFE00
1FFFFF00
3F003F00
3F003F00
7E001F80
7E001F80
7E001F80
FC000FC0
ENDCHAR
STARTCHAR 00C4
ENCODING 196
SWIDTH 668 0
DWIDTH 26 0
BBX 26 34 0 0
BITMAP
01C0F000
03E1F000
03E1F000
03E0F000
00804000
00000000
003F0000
003F0000
003F8000
007F8000
007F8000
00FFC000
00FFC000
00FFC000
01FBE000
01F3E000
01F3F000
03F1F000
03E1F000
03E1F800
07E0F800
07C0F800
0FC0FC00
0FC0FC00
0FFFFC00
1FFFFE00
1FFFFE00
1FFFFF00
3F003F00
3F003F00
7E001F80
7E001F80
7E001F80
FC000FC0
ENDCHAR
STARTCHAR 00C5
ENCODING 197
SWIDTH 668 0
DWIDTH 26 0
BBX 26 37 0 0
BITMAP
000E0000
003F0000
00738000
00618000
00618000
00718000
003F0000
001E0000
00000000
003F0000
003F0000
003F8000
007F8000
007F8000
00FFC000
00FFC000
00FFC000
01FBE000
01F3E000
01F3F000
03F1F000
03E1F000
03E1F800
07E0F800
07C0F800
0FC0FC00
0FC0FC00
0FFFFC00
1FFFFE00
1FFFFE00
1FFFFF00
3F003F00
3F003F00
7E001F80
7E001F80
7E001F80
FC000FC0
ENDCHAR
STARTCHAR 00C6
ENCODING 198
SWIDTH 925 0
DWIDTH 36 0
BBX 35 28 0 0
BITMAP
0001FFFFC0
0003FFFFC0
0003FFFFC0
0007FFFFC0
0007FFFFC0
000FFE0000
000FFE0000
001FBE0000
001F3E0000
003F3E0000
007E3E0000
007E3E0000
00FC3FFF80
00FC3FFF80
01F83FFF80
01F83FFF80
03F03E0000
03FFFE0000
07FFFE0000
07FFFF0000
0FFFFF0000
0FFFFF0000
1F803F0000
1F803F0000
3F003FFFE0
7F003FFFE0
7E003FFFE0
FE003FFFE0
ENDCHAR
STARTCHAR 00C7
ENCODING 199
SWIDTH 642 0
DWIDTH 25 0
BBX 22 37 2 -9
BITMAP
01FE00
07FF80
0FFFE0
1FFFF0
3FFFF8
7F01F8
7E00FC
7C00FC
FC00FC
FC007C
FC0000
F80000
F80000
F80000
F80000
F80000
F80000
F80000
FC0000
FC00FC
FC00FC
7E00FC
7E01F8
3F87F8
3FFFF0
1FFFE0
07FFC0
03FF00
007800
007C00
00FE00
001F00
001F00
003F00
007E00
007C00
007000
ENDCHAR
STARTCHAR 00C8
ENCODING 200
SWIDTH 540 0
DWIDTH 21 0
BBX 19 35 2 0
BITMAP
0F8000
07C000
07E000
03E000
01F000
00F800
000000
FFFFE0
FFFFE0
FFFFE0
FFFFE0
FFFFE0
FC0000
FC0000
FC0000
FC0000
FC0000
FC0000
FC0000
FFFF80
FFFF80
FFFF80
FFFF80
FC0000
FC0000
FC0000
FC0000
FC0000
FC0000
FC0000
FC0000
FFFFE0
FFFFE0
FFFFE0
FFFFE0
ENDCHAR
STARTCHAR 00C9
ENCODING 201
SWIDTH 540 0
DWIDTH 21 0
BBX 19 35 2 0
BITMAP
001F80
003F00
003E00
007C00
00F800
00F000
000000
FFFFE0
FFFFE0
FFFFE0
FFFFE0
FFFFE0
FC0000
FC0000
FC0000
FC0000
FC0000
FC0000
FC0000
FFFF80
FFFF80
FFFF80
FFFF80
FC0000
FC0000
FC0000
FC0000
FC0000
FC0000
FC0000
FC0000
FFFFE0
FFFFE0
FFFFE0
FFFFE0
ENDCHAR
STARTCHAR 00CA
ENCODING 202
SWIDTH 540 0
DWIDTH 21 0
BBX 19 35 2 0
BITMAP
00F000
01F800
03FE00
079F00
1F0F80
000000
000000
FFFFE0
FFFFE0
FFFFE0
FFFFE0
FFFFE0
FC0000
FC0000
FC0000
FC0000
FC0000
FC0000
FC0000
FFFF80
FFFF80
FFFF80
FFFF80
FC0000
FC0000
FC0000
FC0000
FC0000
FC0000
FC0000
FC0000
FFFFE0
FFFFE0
FFFFE0
FFFFE0
ENDCHAR
STARTCHAR 00CB
ENCODING 203
SWIDTH 540 0
DWIDTH 21 0
BBX 19 34 2 0
BITMAP
1E0780
1F0F80
1F0F80
1E0780
000000
000000
FFFFE0
FFFFE0
FFFFE0
FFFFE0
FFFFE0
FC0000
FC0000
FC0000
FC0000
FC0000
FC0000
FC0000
FFFF80
FFFF80
FFFF80
FFFF80
FC0000
FC0000
FC0000
FC0000
FC0000
FC0000
FC0000
FC0000
FFFFE0
FFFFE0
FFFFE0
FFFFE0
ENDCHAR
STARTCHAR 00CC
ENCODING 204
SWIDTH 282 0
DWIDTH 11 0
BBX 10 35 -1 0
BITMAP
FC00
7E00
3E00
1F00
0F80
0780
0000
0FC0
0FC0
0FC0
0FC0
0FC0
0FC0
0FC0
0FC0
0FC0
0FC0
0FC0
0FC0
0FC0
0FC0
0FC0
0FC0
0FC0
0FC0
0FC0
0FC0
0FC0
0FC0
0FC0
0FC0
0FC0
0FC0
0FC0
0FC0
ENDCHAR
STARTCHAR 00CD
ENCODING 205
SWIDTH 282 0
DWIDTH 11 0
BBX 9 35 3 0
BITMAP
1F80
1F00
3E00
7C00
7C00
F800
0000
FC00
FC00
FC00
FC00
FC00
FC00
FC00
FC00
FC00
FC00
FC00
FC00
FC00
FC00
FC00
FC00
FC00
FC00
FC00
FC00
FC00
FC00
FC00
FC00
FC00
FC00
FC00
FC00
ENDCHAR
STARTCHAR 00CE
ENCODING 206
SWIDTH 282 0
DWIDTH 11 0
BBX 13 35 -1 0
BITMAP
0F80
1FC0
3FE0
7CF0
F878
0000
0000
0FC0
0FC0
0FC0
0FC0
0FC0
0FC0
0FC0
0FC0
0FC0
0FC0
0FC0
0FC0
0FC0
0FC0
0FC0
0FC0
0FC0
0FC0
0FC0
0FC0
0FC0
0FC0
0FC0
0FC0
0FC0
0FC0
0FC0
0FC0
ENDCHAR
STARTCHAR 00CF
ENCODING 207
SWIDTH 282 0
DWIDTH 11 0
BBX 15 34 -2 0
BITMAP
783C
FC3E
FC3E
783C
0000
0000
07E0
07E0
07E0
07E0
07E0
07E0
07E0
07E0
07E0
07E0
07E0
07E0
07E0
07E0
07E0
07E0
07E0
07E0
07E0
07E0
07E0
07E0
07E0
07E0
07E0
07E0
07E0
07E0
ENDCHAR
STARTCHAR 00D0
ENCODING 208
SWIDTH 642 0
DWIDTH 25 0
BBX 24 28 0 0
BITMAP
1FF800
1FFF80
1FFFE0
1FFFF0
1FFFF8
1F81FC
1F80FE
1F807E
1F803E
1F803F
1F803F
1F803F
FFFC3F
FFFC3F
FFFC3F
FFFC3F
1F803F
1F803F
1F803F
1F803F
1F807E
1F80FE
1F81FC
1F8FF8
1FFFF8
1FFFE0
1FFFC0
1FFE00
ENDCHAR
STARTCHAR 00D1
ENCODING 209
SWIDTH 694 0
DWIDTH 27 0
BBX 23 35 2 0
BITMAP
00C0E0
03F1E0
07FFC0
07FFC0
070F80
000000
000000
FC007E
FE007E
FE007E
FF007E
FF807E
FF807E
FFC07E
FFC07E
FFE07E
FFF07E
FDF07E
FDF87E
FCF87E
FC7C7E
FC7E7E
FC3E7E
FC3F7E
FC1F7E
FC0FFE
FC0FFE
FC07FE
FC07FE
FC03FE
FC01FE
FC01FE
FC00FE
FC00FE
FC007E
ENDCHAR
STARTCHAR 00D2
ENCODING 210
SWIDTH 668 0
DWIDTH 26 0
BBX 23 35 2 0
BITMAP
07E000
03E000
01F000
00F800
00F800
007C00
000000
00FE00
07FF80
0FFFE0
1FFFF0
3FFFF8
3F01F8
7E00FC
7E00FC
FC007E
FC007E
FC007E
F8007E
F8007E
F8007E
F8007E
F8007E
F8007E
FC007E
FC007E
FC007E
FC00FC
7E00FC
7F01F8
3F87F8
1FFFF0
0FFFE0
07FFC0
01FF00
ENDCHAR
STARTCHAR 00D3
ENCODING 211
SWIDTH 668 0
DWIDTH 26 0
BBX 23 35 2 0
BITMAP
000FC0
001F80
001F00
003E00
003C00
007800
000000
00FE00
07FF80
0FFFE0
1FFFF0
3FFFF8
3F01F8
7E00FC
7E00FC
FC007E
FC007E
FC007E
F8007E
F8007E
F8007E
F8007E
F8007E
F8007E
FC007E
FC007E
FC007E
FC00FC
7E00FC
7F01F8
3F87F8
1FFFF0
0FFFE0
07FFC0
01FF00
ENDCHAR
STARTCHAR 00D4
ENCODING 212
SWIDTH 668 0
DWIDTH 26 0
BBX 23 35 2 0
BITMAP
007C00
00FE00
01FF00
03CF80
0787C0
000000
000000
00FE00
07FF80
0FFFE0
1FFFF0
3FFFF8
3F01F8
7E00FC
7E00FC
FC007E
FC007E
FC007E
F8007E
F8007E
F8007E
F8007E
F8007E
F8007E
FC007E
FC007E
FC007E
FC00FC
7E00FC
7F01F8
3F87F8
1FFFF0
0FFFE0
07FFC0
01FF00
ENDCHAR
STARTCHAR 00D5
ENCODING 213
SWIDTH 668 0
DWIDTH 26 0
BBX 23 35 2 0
BITMAP
01C1E0
03F1C0
07FFC0
0FFFC0
0F0F80
000000
000000
00FE00
07FF80
0FFFE0
1FFFF0
3FFFF8
3F01F8
7E00FC
7E00FC
FC007E
FC007E
FC007E
F8007E
F8007E
F8007E
F8007E
F8007E
F8007E
FC007E
FC007E
FC007E
FC00FC
7E00FC
7F01F8
3F87F8
1FFFF0
0FFFE0
07FFC0
01FF00
ENDCHAR
STARTCHAR 00D6
ENCODING 214
SWIDTH 668 0
DWIDTH 26 0
BBX 23 34 2 0
BITMAP
0783C0
0F87E0
0F87E0
0783C0
000000
000000
00FE00
07FF80
0FFFE0
1FFFF0
3FFFF8
3F01F8
7E00FC
7E00FC
FC007E
FC007E
FC007E
F8007E
F8007E
F8007E
F8007E
F8007E
F8007E
FC007E
FC007E
FC007E
FC00FC
7E00FC
7F01F8
3F87F8
1FFFF0
0FFFE0
07FFC0
01FF00
ENDCHAR
STARTCHAR 00D7
ENCODING 215
SWIDTH 514 0
DWIDTH 20 0
BBX 17 18 2 4
BITMAP
200200
700700
F80F80
FC1F80
7E3F00
3F7E00
1FFC00
0FF800
07F000
07F000
0FF800
1FFC00
3FFE00
7E7F00
FC3F80
F81F80
700F00
200600
ENDCHAR
STARTCHAR 00D8
ENCODING 216
SWIDTH 668 0
DWIDTH 26 0
BBX 23 31 2 -2
BITMAP
00001C
00FE3C
03FFF8
0FFFF0
1FFFF0
3FFFF8
3F01F8
7E01FC
7E03FC
FC07FE
FC077E
FC0F7E
FC0E7E
FC1E3E
FC3C3E
FC383E
FC783E
FC707E
FCF07E
FDE07E
FDC07E
7FC07C
7F80FC
7F81FC
3FC3F8
1FFFF0
1FFFE0
1FFFC0
3DFF00
380000
780000
ENDCHAR
STARTCHAR 00D9
ENCODING 217
SWIDTH 642 0
DWIDTH 25 0
BBX 21 35 2 0
BITMAP
0FC000
07E000
03E000
01F000
00F800
007800
000000
FC00F8
FC00F8
FC00F8
FC00F8
FC00F8
FC00F8
FC00F8
FC00F8
FC00F8
FC00F8
FC00F8
FC00F8
FC00F8
FC00F8
FC00F8
FC00F8
FC00F8
FC00F8
FC00F8
FC00F8
FC00F8
7C01F8
7E01F8
7F87F0
3FFFF0
1FFFE0
0FFFC0
03FF00
ENDCHAR
STARTCHAR 00DA
ENCODING 218
SWIDTH 642 0
DWIDTH 25 0
BBX 21 35 2 0
BITMAP
000F80
001F00
003F00
003E00
007C00
00F800
000000
FC00F8
FC00F8
FC00F8
FC00F8
FC00F8
FC00F8
FC00F8
FC00F8
FC00F8
FC00F8
FC00F8
FC00F8
FC00F8
FC00F8
FC00F8
FC00F8
FC00F8
FC00F8
FC00F8
FC00F8
FC00F8
7C01F8
7E01F8
7F87F0
3FFFF0
1FFFE0
0FFFC0
03FF00
ENDCHAR
STARTCHAR 00DB
ENCODING 219
SWIDTH 642 0
DWIDTH 25 0
BBX 21 35 2 0
BITMAP
007800
01FC00
03FE00
07CF00
0F8780
000040
000000
FC00F8
FC00F8
FC00F8
FC00F8
FC00F8
FC00F8
FC00F8
FC00F8
FC00F8
FC00F8
FC00F8
FC00F8
FC00F8
FC00F8
FC00F8
FC00F8
FC00F8
FC00F8
FC00F8
FC00F8
FC00F8
7C01F8
7E01F8
7F87F0
3FFFF0
1FFFE0
0FFFC0
03FF00
ENDCHAR
STARTCHAR 00DC
ENCODING 220
SWIDTH 642 0
DWIDTH 25 0
BBX 21 34 2 0
BITMAP
0F0380
0F87C0
0F87C0
0F07C0
000100
000000
FC00F8
FC00F8
FC00F8
FC00F8
FC00F8
FC00F8
FC00F8
FC00F8
FC00F8
FC00F8
FC00F8
FC00F8
FC00F8
FC00F8
FC00F8
FC00F8
FC00F8
FC00F8
FC00F8
FC00F8
FC00F8
7C01F8
7E01F8
7F87F0
3FFFF0
1FFFE0
0FFFC0
03FF00
ENDCHAR
STARTCHAR 00DD
ENCODING 221
SWIDTH 617 0
DWIDTH 24 0
BBX 24 35 0 0
BITMAP
0007E0
000FC0
000F80
001F00
003E00
003C00
000000
FC003F
7E007E
7E007E
3F00FC
3F00FC
1F81F8
1F81F8
0FC1F0
0FC3F0
07C3E0
07E7E0
03E7C0
03FFC0
01FF80
01FF80
00FF00
00FF00
007E00
007E00
007E00
007E00
007E00
007E00
007E00
007E00
007E00
007E00
007E00
ENDCHAR
STARTCHAR 00DE
ENCODING 222
SWIDTH 591 0
DWIDTH 23 0
BBX 19 28 3 0
BITMAP
F80000
F80000
F80000
F80000
F80000
FFC000
FFFE00
FFFF00
FFFF80
FFFFC0
F80FE0
F807E0
F803E0
F803E0
F803E0
F803E0
F807E0
F80FE0
FFFFC0
FFFF80
FFFF00
FFFE00
FFC000
F80000
F80000
F80000
F80000
F80000
ENDCHAR
STARTCHAR 00DF
ENCODING 223
SWIDTH 617 0
DWIDTH 24 0
BBX 20 30 3 0
BITMAP
01C000
0FF800
3FFE00
7FFF00
7FFF00
FC3F00
F81F80
F81F80
F81F80
F81F00
F83F00
F83E00
F87E00
F87E00
F87E00
F87E00
F87F00
F83F80
F81FC0
F80FE0
F807F0
F803F0
F801F0
F801F0
F801F0
F903F0
F9FFF0
F9FFE0
F9FFC0
F9FF80
ENDCHAR
STARTCHAR 00E0
ENCODING 224
SWIDTH 514 0
DWIDTH 20 0
BBX 18 29 1 0
BITMAP
1F8000
0F8000
07C000
03E000
01E000
01F000
000000
000000
03F800
0FFE00
1FFF00
3FFF80
7E1F80
7C0FC0
7C0FC0
000FC0
007FC0
0FFFC0
3FFFC0
7FFFC0
7E0FC0
FC0FC0
FC0FC0
FC0FC0
FC1FC0
7FFFC0
7FFFC0
3FF7C0
1FE7C0
ENDCHAR
STARTCHAR 00E1
ENCODING 225
SWIDTH 514 0
DWIDTH 20 0
BBX 18 29 1 0
BITMAP
003F00
007E00
007C00
00F800
00F000
01E000
000000
000000
03F800
0FFE00
1FFF00
3FFF80
7E1F80
7C0FC0
7C0FC0
000FC0
007FC0
0FFFC0
3FFFC0
7FFFC0
7E0FC0
FC0FC0
FC0FC0
FC0FC0
FC1FC0
7FFFC0
7FFFC0
3FF7C0
1FE7C0
ENDCHAR
STARTCHAR 00E2
ENCODING 226
SWIDTH 514 0
DWIDTH 20 0
BBX 18 29 1 0
BITMAP
01F000
03F800
07FC00
0F3E00
1E0F00
000000
000000
000000
03F800
0FFE00
1FFF00
3FFF80
7E1F80
7C0FC0
7C0FC0
000FC0
007FC0
0FFFC0
3FFFC0
7FFFC0
7E0FC0
FC0FC0
FC0FC0
FC0FC0
FC1FC0
7FFFC0
7FFFC0
3FF7C0
1FE7C0
ENDCHAR
STARTCHAR 00E3
ENCODING 227
SWIDTH 514 0
DWIDTH 20 0
BBX 18 29 1 0
BITMAP
070780
0FCF00
1FFF00
3FFF00
3C3C00
000000
000000
000000
03F800
0FFE00
1FFF00
3FFF80
7E1F80
7C0FC0
7C0FC0
000FC0
007FC0
0FFFC0
3FFFC0
7FFFC0
7E0FC0
FC0FC0
FC0FC0
FC0FC0
FC1FC0
7FFFC0
7FFFC0
3FF7C0
1FE7C0
ENDCHAR
STARTCHAR 00E4
ENCODING 228
SWIDTH 514 0
DWIDTH 20 0
BBX 18 28 1 0
BITMAP
1E0F00
3E0F80
3E0F80
1E0F00
000000
000000
000000
03F800
0FFE00
1FFF00
3FFF80
7E1F80
7C0FC0
7C0FC0
000FC0
007FC0
0FFFC0
3FFFC0
7FFFC0
7E0FC0
FC0FC0
FC0FC0
FC0FC0
FC1FC0
7FFFC0
7FFFC0
3FF7C0
1FE7C0
ENDCHAR
STARTCHAR 00E5
ENCODING 229
SWIDTH 514 0
DWIDTH 20 0
BBX 18 31 1 0
BITMAP
00E000
03F800
031800
071C00
061C00
031800
03F800
00E000
000000
000000
03F800
0FFE00
1FFF00
3FFF80
7E1F80
7C0FC0
7C0FC0
000FC0
007FC0
0FFFC0
3FFFC0
7FFFC0
7E0FC0
FC0FC0
FC0FC0
FC0FC0
FC1FC0
7FFFC0
7FFFC0
3FF7C0
1FE7C0
ENDCHAR
STARTCHAR 00E6
ENCODING 230
SWIDTH 822 0
DWIDTH 32 0
BBX 31 21 1 0
BITMAP
01F81F80
0FFE7FE0
1FFFFFF8
3FFFFFF8
7FBFFDFC
7E0FE07C
7C07E07E
0007C07E
0007C07E
0FFFFFFE
3FFFFFFE
7FFFFFFE
7F07C000
FC07C000
FC07E000
FC07E000
FC0FF818
7FFFFFFC
7FFFFFFC
3FFCFFFC
0FF83FF0
ENDCHAR
STARTCHAR 00E7
ENCODING 231
SWIDTH 514 0
DWIDTH 20 0
BBX 18 30 1 -9
BITMAP
01F800
0FFE00
1FFF00
3FFF80
3F1F80
7E0FC0
7C07C0
7C07C0
FC0000
FC0000
FC0000
FC0000
FC0000
FC0000
7C07C0
7E07C0
7E0FC0
3FFF80
1FFF80
0FFF00
07FC00
01F000
01F800
01FC00
003C00
003C00
007C00
00FC00
00F800
00E000
ENDCHAR
STARTCHAR 00E8
ENCODING 232
SWIDTH 540 0
DWIDTH 21 0
BBX 19 29 1 0
BITMAP
1F8000
0F8000
07C000
03E000
03E000
01F000
000000
000000
01F800
07FE00
1FFF00
1FFF80
3F9FC0
7E07C0
7E07E0
7C03E0
FC03E0
FFFFE0
FFFFE0
FFFFE0
FC0000
7C0000
7E0000
7E0180
3F0380
3FFFC0
1FFFC0
0FFF80
03FE00
ENDCHAR
STARTCHAR 00E9
ENCODING 233
SWIDTH 540 0
DWIDTH 21 0
BBX 19 29 1 0
BITMAP
003F00
007E00
007C00
00F800
01F000
01E000
000000
000000
01F800
07FE00
1FFF00
1FFF80
3F9FC0
7E07C0
7E07E0
7C03E0
FC03E0
FFFFE0
FFFFE0
FFFFE0
FC0000
7C0000
7E0000
7E0180
3F0380
3FFFC0
1FFFC0
0FFF80
03FE00
ENDCHAR
STARTCHAR 00EA
ENCODING 234
SWIDTH 540 0
DWIDTH 21 0
BBX 19 29 1 0
BITMAP
01F000
03F800
07FC00
0F3E00
1E1F00
000000
000000
000000
01F800
07FE00
1FFF00
1FFF80
3F9FC0
7E07C0
7E07E0
7C03E0
FC03E0
FFFFE0
FFFFE0
FFFFE0
FC0000
7C0000
7E0000
7E0180
3F0380
3FFFC0
1FFFC0
0FFF80
03FE00
ENDCHAR
STARTCHAR 00EB
ENCODING 235
SWIDTH 540 0
DWIDTH 21 0
BBX 19 28 1 0
BITMAP
1E0F00
3E1F80
3E1F80
1E0F00
000000
000000
000000
01F800
07FE00
1FFF00
1FFF80
3F9FC0
7E07C0
7E07E0
7C03E0
FC03E0
FFFFE0
FFFFE0
FFFFE0
FC0000
7C0000
7E0000
7E0180
3F0380
3FFFC0
1FFFC0
0FFF80
03FE00
ENDCHAR
STARTCHAR 00EC
ENCODING 236
SWIDTH 257 0
DWIDTH 10 0
BBX 9 29 -1 0
BITMAP
FC00
7C00
7E00
3E00
1F00
0F80
0000
0000
0F80
0F80
0F80
0F80
0F80
0F80
0F80
0F80
0F80
0F80
0F80
0F80
0F80
0F80
0F80
0F80
0F80
0F80
0F80
0F80
0F80
ENDCHAR
STARTCHAR 00ED
ENCODING 237
SWIDTH 257 0
DWIDTH 10 0
BBX 9 29 3 0
BITMAP
1F80
1F00
3E00
7C00
7800
F800
0000
0000
F800
F800
F800
F800
F800
F800
F800
F800
F800
F800
F800
F800
F800
F800
F800
F800
F800
F800
F800
F800
F800
ENDCHAR
STARTCHAR 00EE
ENCODING 238
SWIDTH 257 0
DWIDTH 10 0
BBX 15 29 -2 0
BITMAP
0780
0FC0
1FF0
3EF8
7C7C
F83E
0000
0000
07C0
07C0
07C0
07C0
07C0
07C0
07C0
07C0
07C0
07C0
07C0
07C0
07C0
07C0
07C0
07C0
07C0
07C0
07C0
07C0
07C0
ENDCHAR
STARTCHAR 00EF
ENCODING 239
SWIDTH 257 0
DWIDTH 10 0
BBX 15 28 -2 0
BITMAP
703C
F87C
F87E
F83C
3018
0000
0000
07C0
07C0
07C0
07C0
07C0
07C0
07C0
07C0
07C0
07C0
07C0
07C0
07C0
07C0
07C0
07C0
07C0
07C0
07C0
07C0
07C0
ENDCHAR
STARTCHAR 00F0
ENCODING 240
SWIDTH 565 0
DWIDTH 22 0
BBX 19 30 2 0
BITMAP
0C0000
0F8000
1FE300
1FFF80
0FFE00
03FC00
01FE00
03FF00
07BF80
021F80
000FC0
000FC0
0FF7C0
1FFFE0
3FFFE0
7FFFE0
FE07E0
FC03E0
F803E0
F803E0
F807E0
F807E0
F807E0
FC07C0
FC0FC0
7E1F80
7FFF80
3FFF00
1FFE00
07F800
ENDCHAR
STARTCHAR 00F1
ENCODING 241
SWIDTH 540 0
DWIDTH 21 0
BBX 18 29 2 0
BITMAP
0F0700
1FCF00
3FFF00
3FFE00
387C00
000000
000000
000000
F87C00
F9FF00
FBFF00
FFFF80
FF3F80
FC0FC0
F80FC0
F80FC0
F80FC0
F80FC0
F80FC0
F80FC0
F80FC0
F80FC0
F80FC0
F80FC0
F80FC0
F80FC0
F80FC0
F80FC0
F80FC0
ENDCHAR
STARTCHAR 00F2
ENCODING 242
SWIDTH 540 0
DWIDTH 21 0
BBX 20 29 1 0
BITMAP
1F8000
0FC000
07E000
03E000
01F000
00F800
000000
000000
01F800
07FE00
1FFF80
3FFFC0
3F9FC0
7E07E0
7E07E0
7C03E0
FC03F0
FC03F0
FC03F0
FC03F0
FC03F0
FC03E0
7C03E0
7E07E0
7F0FC0
3FFFC0
1FFF80
0FFF00
03FC00
ENDCHAR
STARTCHAR 00F3
ENCODING 243
SWIDTH 540 0
DWIDTH 21 0
BBX 20 29 1 0
BITMAP
001F80
003F00
007E00
007C00
00F800
01F000
000000
000000
01F800
07FE00
1FFF80
3FFFC0
3F9FC0
7E07E0
7E07E0
7C03E0
FC03F0
FC03F0
FC03F0
FC03F0
FC03F0
FC03E0
7C03E0
7E07E0
7F0FC0
3FFFC0
1FFF80
0FFF00
03FC00
ENDCHAR
STARTCHAR 00F4
ENCODING 244
SWIDTH 540 0
DWIDTH 21 0
BBX 20 29 1 0
BITMAP
00F000
01F800
07FC00
0F9F00
1F0F80
000000
000000
000000
01F800
07FE00
1FFF80
3FFFC0
3F9FC0
7E07E0
7E07E0
7C03E0
FC03F0
FC03F0
FC03F0
FC03F0
FC03F0
FC03E0
7C03E0
7E07E0
7F0FC0
3FFFC0
1FFF80
0FFF00
03FC00
ENDCHAR
STARTCHAR 00F5
ENCODING 245
SWIDTH 540 0
DWIDTH 21 0
BBX 20 29 1 0
BITMAP
078380
0FE780
1FFF80
1EFF00
1C3E00
000000
000000
000000
01F800
07FE00
1FFF80
3FFFC0
3F9FC0
7E07E0
7E07E0
7C03E0
FC03F0
FC03F0
FC03F0
FC03F0
FC03F0
FC03E0
7C03E0
7E07E0
7F0FC0
3FFFC0
1FFF80
0FFF00
03FC00
ENDCHAR
STARTCHAR 00F6
ENCODING 246
SWIDTH 540 0
DWIDTH 21 0
BBX 20 28 1 0
BITMAP
1E0780
1F0F80
1F0F80
1E0F80
000000
000000
000000
01F800
07FE00
1FFF80
3FFFC0
3F9FC0
7E07E0
7E07E0
7C03E0
FC03F0
FC03F0
FC03F0
FC03F0
FC03F0
FC03E0
7C03E0
7E07E0
7F0FC0
3FFFC0
1FFF80
0FFF00
03FC00
ENDCHAR
STARTCHAR 00F7
ENCODING 247
SWIDTH 565 0
DWIDTH 22 0
BBX 20 20 1 2
BITMAP
00F000
01F800
01F800
01F800
00F000
000000
000000
000000
FFFFF0
FFFFF0
FFFFF0
FFFFF0
000000
000000
000000
00F000
01F800
01F800
01F800
00F000
ENDCHAR
STARTCHAR 00F8
ENCODING 248
SWIDTH 540 0
DWIDTH 21 0
BBX 20 26 1 -3
BITMAP
0001C0
000380
01FB80
07FF00
1FFF80
3FFFC0
3F9FC0
7E1FE0
7E1FE0
7C3BE0
FC3BF0
FC73F0
FC73F0
FCE3F0
FCE3F0
FDC3E0
7DC3E0
7F87E0
7F8FC0
3FFFC0
1FFF80
0FFF00
0FFC00
1C0000
1C0000
380000
ENDCHAR
STARTCHAR 00F9
ENCODING 249
SWIDTH 540 0
DWIDTH 21 0
BBX 18 29 2 0
BITMAP
3F0000
1F8000
0FC000
07C000
03E000
01E000
000000
000000
F80FC0
F80FC0
F80FC0
F80FC0
F80FC0
F80FC0
F80FC0
F80FC0
F80FC0
F80FC0
F80FC0
F80FC0
F80FC0
F80FC0
F80FC0
FC0FC0
FC1FC0
7FFFC0
7FFFC0
3FF7C0
1FC7C0
ENDCHAR
STARTCHAR 00FA
ENCODING 250
SWIDTH 540 0
DWIDTH 21 0
BBX 18 29 2 0
BITMAP
003E00
007C00
00FC00
00F800
01F000
03E000
000000
000000
F80FC0
F80FC0
F80FC0
F80FC0
F80FC0
F80FC0
F80FC0
F80FC0
F80FC0
F80FC0
F80FC0
F80FC0
F80FC0
F80FC0
F80FC0
FC0FC0
FC1FC0
7FFFC0
7FFFC0
3FF7C0
1FC7C0
ENDCHAR
STARTCHAR 00FB
ENCODING 251
SWIDTH 540 0
DWIDTH 21 0
BBX 18 29 2 0
BITMAP
01E000
07F000
0FF800
1F3C00
3E1F00
000000
000000
000000
F80FC0
F80FC0
F80FC0
F80FC0
F80FC0
F80FC0
F80FC0
F80FC0
F80FC0
F80FC0
F80FC0
F80FC0
F80FC0
F80FC0
F80FC0
FC0FC0
FC1FC0
7FFFC0
7FFFC0
3FF7C0
1FC7C0
ENDCHAR
STARTCHAR 00FC
ENCODING 252
SWIDTH 540 0
DWIDTH 21 0
BBX 18 28 2 0
BITMAP
3C0F00
3E1F00
3E1F00
3C1F00
000000
000000
000000
F80FC0
F80FC0
F80FC0
F80FC0
F80FC0
F80FC0
F80FC0
F80FC0
F80FC0
F80FC0
F80FC0
F80FC0
F80FC0
F80FC0
F80FC0
FC0FC0
FC1FC0
7FFFC0
7FFFC0
3FF7C0
1FC7C0
ENDCHAR
STARTCHAR 00FD
ENCODING 253
SWIDTH 488 0
DWIDTH 19 0
BBX 20 37 0 -8
BITMAP
001F00
003E00
007E00
007C00
00F800
01F000
000000
000000
FC03F0
FC07E0
7E07E0
7E07C0
7E0FC0
3E0FC0
3F0F80
1F0F80
1F1F80
1F9F00
0F9F00
0FBF00
0FFE00
07FE00
07FE00
07FC00
03FC00
03FC00
03F800
01F800
01F800
01F000
01F000
03F000
07E000
3FE000
3FC000
3F8000
3F0000
ENDCHAR
STARTCHAR 00FE
ENCODING 254
SWIDTH 565 0
DWIDTH 22 0
BBX 19 37 2 -8
BITMAP
FC0000
FC0000
FC0000
FC0000
FC0000
FC0000
FC0000
FC0000
FCF800
FFFE00
FFFF00
FFFF80
FFBF80
FC0FC0
FC0FC0
FC07C0
FC07E0
FC07E0
FC07E0
FC07E0
FC07E0
FC07C0
FC07C0
FC0FC0
FE1FC0
FFFF80
FFFF80
FFFF00
FDFC00
FC0000
FC0000
FC0000
FC0000
FC0000
FC0000
FC0000
FC0000
ENDCHAR
STARTCHAR 00FF
ENCODING 255
SWIDTH 488 0
DWIDTH 19 0
BBX 20 36 0 -8
BITMAP
1E0780
1F0F80
1F0F80
1E0F80
000000
000000
000000
FC03F0
FC07E0
7E07E0
7E07C0
7E0FC0
3E0FC0
3F0F80
1F0F80
1F1F80
1F9F00
0F9F00
0FBF00
0FFE00
07FE00
07FE00
07FC00
03FC00
03FC00
03F800
01F800
01F800
01F000
01F000
03F000
07E000
3FE000
3FC000
3F8000
3F0000
ENDCHAR
STARTCHAR 0100
ENCODING 256
SWIDTH 668 0
DWIDTH 26 0
BBX 26 33 0 0
BITMAP
01FFF000
01FFF000
01FFF000
00000000
00000000
003F0000
003F0000
003F8000
007F8000
007F8000
00FFC000
00FFC000
00FFC000
01FBE000
01F3E000
01F3F000
03F1F000
03E1F000
03E1F800
07E0F800
07C0F800
0FC0FC00
0FC0FC00
0FFFFC00
1FFFFE00
1FFFFE00
1FFFFF00
3F003F00
3F003F00
7E001F80
7E001F80
7E001F80
FC000FC0
ENDCHAR
STARTCHAR 0101
ENCODING 257
SWIDTH 514 0
DWIDTH 20 0
BBX 18 28 1 0
BITMAP
1FFF00
1FFF00
1FFF00
1FFF00
000000
000000
000000
03F800
0FFE00
1FFF00
3FFF80
7E1F80
7C0FC0
7C0FC0
000FC0
007FC0
0FFFC0
3FFFC0
7FFFC0
7E0FC0
FC0FC0
FC0FC0
FC0FC0
FC1FC0
7FFFC0
7FFFC0
3FF7C0
1FE7C0
ENDCHAR
STARTCHAR 0102
ENCODING 258
SWIDTH 668 0
DWIDTH 26 0
BBX 26 35 0 0
BITMAP
01C0F000
01E1F000
01F3E000
00FFE000
007FC000
001E0000
00000000
003F0000
003F0000
003F8000
007F8000
007F8000
00FFC000
00FFC000
00FFC000
01FBE000
01F3E000
01F3F000
03F1F000
03E1F000
03E1F800
07E0F800
07C0F800
0FC0FC00
0FC0FC00
0FFFFC00
1FFFFE00
1FFFFE00
1FFFFF00
3F003F00
3F003F00
7E001F80
7E001F80
7E001F80
FC000FC0
ENDCHAR
STARTCHAR 0103
ENCODING 259
SWIDTH 514 0
DWIDTH 20 0
BBX 18 29 1 0
BITMAP
1E0F00
1E0F00
1FBE00
0FFE00
07FC00
00E000
000000
000000
03F800
0FFE00
1FFF00
3FFF80
7E1F80
7C0FC0
7C0FC0
000FC0
007FC0
0FFFC0
3FFFC0
7FFFC0
7E0FC0
FC0FC0
FC0FC0
FC0FC0
FC1FC0
7FFFC0
7FFFC0
3FF7C0
1FE7C0
ENDCHAR
STARTCHAR 0104
ENCODING 260
SWIDTH 668 0
DWIDTH 26 0
BBX 26 36 0 -8
BITMAP
003F0000
003F0000
003F8000
007F8000
007F8000
00FFC000
00FFC000
00FFC000
01FBE000
01F3E000
01F3F000
03F1F000
03E1F000
03E1F800
07E0F800
07C0F800
0FC0FC00
0FC0FC00
0FFFFC00
1FFFFE00
1FFFFE00
1FFFFF00
3F003F00
3F003F00
7E001F80
7E001F80
7E001F80
FC000FC0
00001F00
00003C00
00003C00
00007800
00007C00
00003F00
00003F80
00001F00
ENDCHAR
STARTCHAR 0105
ENCODING 261
SWIDTH 514 0
DWIDTH 20 0
BBX 18 29 1 -8
BITMAP
03F800
0FFE00
1FFF00
3FFF80
7E1F80
7C0FC0
7C0FC0
000FC0
007FC0
0FFFC0
3FFFC0
7FFFC0
7E0FC0
FC0FC0
FC0FC0
FC0FC0
FC1FC0
7FFFC0
7FFFC0
3FF7C0
0FE7C0
000F80
001F00
001E00
001E00
001E40
001FC0
001FC0
000780
ENDCHAR
STARTCHAR 0106
ENCODING 262
SWIDTH 642 0
DWIDTH 25 0
BBX 22 35 2 0
BITMAP
000FC0
001F80
003F00
003E00
007C00
007800
000000
01FE00
07FF80
0FFFE0
1FFFF0
3FFFF8
7F01F8
7E00FC
7C00FC
FC00FC
FC007C
FC0000
F80000
F80000
F80000
F80000
F80000
F80000
F80000
FC0000
FC00FC
FC00FC
7E00FC
7E01F8
3F87F8
3FFFF0
1FFFE0
07FFC0
03FF00
ENDCHAR
STARTCHAR 0107
ENCODING 263
SWIDTH 514 0
DWIDTH 20 0
BBX 18 29 1 0
BITMAP
003F00
007E00
007C00
00F800
01F000
01E000
000000
000000
01F800
0FFE00
1FFF00
3FFF80
3F1F80
7E0FC0
7C07C0
7C07C0
FC0000
FC0000
FC0000
FC0000
FC0000
FC0000
7C07C0
7E07C0
7E0FC0
3FFF80
1FFF80
0FFF00
07FC00
ENDCHAR
STARTCHAR 0108
ENCODING 264
SWIDTH 642 0
DWIDTH 25 0
BBX 22 35 2 0
BITMAP
007800
00FE00
03FF00
07CF80
0F87C0
000000
000000
01FE00
07FF80
0FFFE0
1FFFF0
3FFFF8
7F01F8
7E00FC
7C00FC
FC00FC
FC007C
FC0000
F80000
F80000
F80000
F80000
F80000
F80000
F80000
FC0000
FC00FC
FC00FC
7E00FC
7E01F8
3F87F8
3FFFF0
1FFFE0
07FFC0
03FF00
ENDCHAR
STARTCHAR 0109
ENCODING 265
SWIDTH 514 0
DWIDTH 20 0
BBX 18 29 1 0
BITMAP
01E000
03F800
07FC00
0F3E00
1E1F00
200000
000000
000000
01F800
0FFE00
1FFF00
3FFF80
3F1F80
7E0FC0
7C07C0
7C07C0
FC0000
FC0000
FC0000
FC0000
FC0000
FC0000
7C07C0
7E07C0
7E0FC0
3FFF80
1FFF80
0FFF00
07FC00
ENDCHAR
STARTCHAR 010A
ENCODING 266
SWIDTH 642 0
DWIDTH 25 0
BBX 22 35 2 0
BITMAP
007800
00FC00
00FC00
00FC00
007800
000000
000000
01FE00
07FF80
0FFFE0
1FFFF0
3FFFF8
7F01F8
7E00FC
7C00FC
FC00FC
FC007C
FC0000
F80000
F80000
F80000
F80000
F80000
F80000
F80000
FC0000
FC00FC
FC00FC
7E00FC
7E01F8
3F87F8
3FFFF0
1FFFE0
07FFC0
03FF00
ENDCHAR
STARTCHAR 010B
ENCODING 267
SWIDTH 514 0
DWIDTH 20 0
BBX 18 29 1 0
BITMAP
01E000
01F000
03F000
01F000
01E000
000000
000000
000000
01F800
0FFE00
1FFF00
3FFF80
3F1F80
7E0FC0
7C07C0
7C07C0
FC0000
FC0000
FC0000
FC0000
FC0000
FC0000
7C07C0
7E07C0
7E0FC0
3FFF80
1FFF80
0FFF00
07FC00
ENDCHAR
STARTCHAR 010C
ENCODING 268
SWIDTH 642 0
DWIDTH 25 0
BBX 22 35 2 0
BITMAP
0F87C0
07CF80
03FF00
01FE00
007C00
000000
000000
01FE00
07FF80
0FFFE0
1FFFF0
3FFFF8
7F01F8
7E00FC
7C00FC
FC00FC
FC007C
FC0000
F80000
F80000
F80000
F80000
F80000
F80000
F80000
FC0000
FC00FC
FC00FC
7E00FC
7E01F8
3F87F8
3FFFF0
1FFFE0
07FFC0
03FF00
ENDCHAR
STARTCHAR 010D
ENCODING 269
SWIDTH 514 0
DWIDTH 20 0
BBX 18 29 1 0
BITMAP
3E1F00
1F3E00
0FFC00
07F800
01F000
000000
000000
000000
01F800
0FFE00
1FFF00
3FFF80
3F1F80
7E0FC0
7C07C0
7C07C0
FC0000
FC0000
FC0000
FC0000
FC0000
FC0000
7C07C0
7E07C0
7E0FC0
3FFF80
1FFF80
0FFF00
07FC00
ENDCHAR
STARTCHAR 010E
ENCODING 270
SWIDTH 642 0
DWIDTH 25 0
BBX 22 35 2 0
BITMAP
7C3E00
3E7C00
1FF800
0FF000
07E000
000000
000000
FFE000
FFFE00
FFFF00
FFFFC0
FFFFE0
FC0FE0
FC03F0
FC03F0
FC01F8
FC01F8
FC00F8
FC00F8
FC00FC
FC00FC
FC00FC
FC00FC
FC00FC
FC00F8
FC01F8
FC01F8
FC01F8
FC03F0
FC07F0
FC7FE0
FFFFC0
FFFF80
FFFE00
FFF800
ENDCHAR
STARTCHAR 010F
ENCODING 271
SWIDTH 617 0
DWIDTH 24 0
BBX 26 29 1 0
BITMAP
0007E3C0
0007E3C0
0007E3C0
0007E780
0007E780
0007E780
0007E700
0007E200
03E7E000
0FF7E000
1FFFE000
3FFFE000
7FBFE000
7E07E000
7C07E000
FC07E000
FC07E000
FC07E000
FC07E000
FC07E000
FC07E000
FC07E000
7C07E000
7E07E000
7F0FE000
3FFFE000
3FFFE000
1FFBE000
07F3E000
ENDCHAR
STARTCHAR 0110
ENCODING 272
SWIDTH 642 0
DWIDTH 25 0
BBX 24 28 0 0
BITMAP
1FF800
1FFF80
1FFFE0
1FFFF0
1FFFF8
1F81FC
1F80FE
1F807E
1F803E
1F803F
1F803F
1F803F
FFFC3F
FFFC3F
FFFC3F
FFFC3F
1F803F
1F803F
1F803F
1F803F
1F807E
1F80FE
1F81FC
1F8FF8
1FFFF8
1FFFE0
1FFFC0
1FFE00
ENDCHAR
STARTCHAR 0111
ENCODING 273
SWIDTH 617 0
DWIDTH 24 0
BBX 22 29 1 0
BITMAP
0007E0
0007E0
00FFFC
00FFFC
00FFFC
00FFFC
0007E0
0007E0
03E7E0
0FF7E0
1FFFE0
3FFFE0
7FBFE0
7E07E0
7C07E0
FC07E0
FC07E0
FC07E0
FC07E0
FC07E0
FC07E0
FC07E0
7C07E0
7E07E0
7F0FE0
3FFFE0
3FFFE0
1FFBE0
07F3E0
ENDCHAR
STARTCHAR 0112
ENCODING 274
SWIDTH 540 0
DWIDTH 21 0
BBX 19 34 2 0
BITMAP
0FFF80
0FFF80
0FFF80
0FFF80
000000
000000
FFFFE0
FFFFE0
FFFFE0
FFFFE0
FFFFE0
FC0000
FC0000
FC0000
FC0000
FC0000
FC0000
FC0000
FFFF80
FFFF80
FFFF80
FFFF80
FC0000
FC0000
FC0000
FC0000
FC0000
FC0000
FC0000
FC0000
FFFFE0
FFFFE0
FFFFE0
FFFFE0
ENDCHAR
STARTCHAR 0113
ENCODING 275
SWIDTH 540 0
DWIDTH 21 0
BBX 19 28 1 0
BITMAP
1FFF00
1FFF00
1FFF00
1FFF00
000000
000000
000000
01F800
07FE00
1FFF00
1FFF80
3F9FC0
7E07C0
7E07E0
7C03E0
FC03E0
FFFFE0
FFFFE0
FFFFE0
FC0000
7C0000
7E0000
7E0180
3F0380
3FFFC0
1FFFC0
0FFF80
03FE00
ENDCHAR
STARTCHAR 0114
ENCODING 276
SWIDTH 540 0
DWIDTH 21 0
BBX 19 35 2 0
BITMAP
1E0780
0F0F00
0F9F00
07FE00
03FC00
007000
000000
FFFFE0
FFFFE0
FFFFE0
FFFFE0
FFFFE0
FC0000
FC0000
FC0000
FC0000
FC0000
FC0000
FC0000
FFFF80
FFFF80
FFFF80
FFFF80
FC0000
FC0000
FC0000
FC0000
FC0000
FC0000
FC0000
FC0000
FFFFE0
FFFFE0
FFFFE0
FFFFE0
ENDCHAR
STARTCHAR 0115
ENCODING 277
SWIDTH 540 0
DWIDTH 21 0
BBX 19 29 1 0
BITMAP
1E0F00
1E0F00
1FBE00
0FFE00
07FC00
00E000
000000
000000
01F800
07FE00
1FFF00
1FFF80
3F9FC0
7E07C0
7E07E0
7C03E0
FC03E0
FFFFE0
FFFFE0
FFFFE0
FC0000
7C0000
7E0000
7E0180
3F0380
3FFFC0
1FFFC0
0FFF80
03FE00
ENDCHAR
STARTCHAR 0116
ENCODING 278
SWIDTH 540 0
DWIDTH 21 0
BBX 19 35 2 0
BITMAP
00F000
01F800
01F800
01F800
00F000
000000
000000
FFFFE0
FFFFE0
FFFFE0
FFFFE0
FFFFE0
FC0000
FC0000
FC0000
FC0000
FC0000
FC0000
FC0000
FFFF80
FFFF80
FFFF80
FFFF80
FC0000
FC0000
FC0000
FC0000
FC0000
FC0000
FC0000
FC0000
FFFFE0
FFFFE0
FFFFE0
FFFFE0
ENDCHAR
STARTCHAR 0117
ENCODING 279
SWIDTH 540 0
DWIDTH 21 0
BBX 19 29 1 0
BITMAP
00E000
01F000
03F000
01F000
01E000
000000
000000
000000
01F800
07FE00
1FFF00
1FFF80
3F9FC0
7E07C0
7E07E0
7C03E0
FC03E0
FFFFE0
FFFFE0
FFFFE0
FC0000
7C0000
7E0000
7E0180
3F0380
3FFFC0
1FFFC0
0FFF80
03FE00
ENDCHAR
STARTCHAR 0118
ENCODING 280
SWIDTH 540 0
DWIDTH 21 0
BBX 19 36 2 -8
BITMAP
FFFFE0
FFFFE0
FFFFE0
FFFFE0
FFFFE0
FC0000
FC0000
FC0000
FC0000
FC0000
FC0000
FC0000
FFFF80
FFFF80
FFFF80
FFFF80
FC0000
FC0000
FC0000
FC0000
FC0000
FC0000
FC0000
FC0000
FFFFE0
FFFFE0
FFFFE0
FFFFE0
001E00
003C00
007800
007800
007D00
007F00
003F00
001F00
ENDCHAR
STARTCHAR 0119
ENCODING 281
SWIDTH 540 0
DWIDTH 21 0
BBX 19 28 1 -7
BITMAP
01F800
07FE00
1FFF00
1FFF80
3F9FC0
7E07C0
7E07E0
7C03E0
FC03E0
FFFFE0
FFFFE0
FFFFE0
FC0000
7C0000
7E0000
7E0180
3F0380
3FFFC0
1FFFC0
0FFF80
03FE00
007C00
007800
00F000
00F800
00FE00
007E00
003F00
ENDCHAR
STARTCHAR 011A
ENCODING 282
SWIDTH 540 0
DWIDTH 21 0
BBX 19 35 2 0
BITMAP
1F0F80
0F9F00
07FE00
03FC00
01F800
000000
000000
FFFFE0
FFFFE0
FFFFE0
FFFFE0
FFFFE0
FC0000
FC0000
FC0000
FC0000
FC0000
FC0000
FC0000
FFFF80
FFFF80
FFFF80
FFFF80
FC0000
FC0000
FC0000
FC0000
FC0000
FC0000
FC0000
FC0000
FFFFE0
FFFFE0
FFFFE0
FFFFE0
ENDCHAR
STARTCHAR 011B
ENCODING 283
SWIDTH 540 0
DWIDTH 21 0
BBX 19 29 1 0
BITMAP
3E1F00
1F3E00
07FC00
03F800
01F000
000000
000000
000000
01F800
07FE00
1FFF00
1FFF80
3F9FC0
7E07C0
7E07E0
7C03E0
FC03E0
FFFFE0
FFFFE0
FFFFE0
FC0000
7C0000
7E0000
7E0180
3F0380
3FFFC0
1FFFC0
0FFF80
03FE00
ENDCHAR
STARTCHAR 011C
ENCODING 284
SWIDTH 668 0
DWIDTH 26 0
BBX 22 35 2 0
BITMAP
007C00
00FE00
01FF00
03CF80
0F87C0
000000
000000
00FF00
07FFC0
0FFFE0
1FFFF0
3FE7F8
3F01F8
7E00FC
7E00FC
FC007C
FC0000
FC0000
FC0000
FC0000
FC0000
FC1FFC
FC1FFC
FC1FFC
FC1FFC
FC007C
FC007C
7E007C
7E007C
7F007C
3FC1FC
1FFFFC
0FFFF8
07FFF0
01FFC0
ENDCHAR
STARTCHAR 011D
ENCODING 285
SWIDTH 565 0
DWIDTH 22 0
BBX 19 37 1 -8
BITMAP
01F000
03F800
07FC00
0F9E00
1E0F00
000000
000000
000000
03E3E0
0FFBE0
1FFFE0
3FFFE0
3F9FE0
7E07E0
7E03E0
7C03E0
FC03E0
FC03E0
FC03E0
FC03E0
FC03E0
FC03E0
7C03E0
7E07E0
7F0FE0
3FFFE0
1FFFE0
0FFBE0
07F3E0
0007E0
0007E0
1807E0
1E1FC0
3FFFC0
3FFF80
1FFE00
03F800
ENDCHAR
STARTCHAR 011E
ENCODING 286
SWIDTH 668 0
DWIDTH 26 0
BBX 22 35 2 0
BITMAP
0783C0
0787C0
07FF80
03FF80
01FE00
001000
000000
00FF00
07FFC0
0FFFE0
1FFFF0
3FE7F8
3F01F8
7E00FC
7E00FC
FC007C
FC0000
FC0000
FC0000
FC0000
FC0000
FC1FFC
FC1FFC
FC1FFC
FC1FFC
FC007C
FC007C
7E007C
7E007C
7F007C
3FC1FC
1FFFFC
0FFFF8
07FFF0
01FFC0
ENDCHAR
STARTCHAR 011F
ENCODING 287
SWIDTH 565 0
DWIDTH 22 0
BBX 19 37 1 -8
BITMAP
1E0F00
1E0F00
1FBF00
0FFE00
07FC00
006000
000000
000000
03E3E0
0FFBE0
1FFFE0
3FFFE0
3F9FE0
7E07E0
7E03E0
7C03E0
FC03E0
FC03E0
FC03E0
FC03E0
FC03E0
FC03E0
7C03E0
7E07E0
7F0FE0
3FFFE0
1FFFE0
0FFBE0
07F3E0
0007E0
0007E0
1807E0
1E1FC0
3FFFC0
3FFF80
1FFE00
03F800
ENDCHAR
STARTCHAR 0120
ENCODING 288
SWIDTH 668 0
DWIDTH 26 0
BBX 22 35 2 0
BITMAP
007800
007C00
00FC00
007C00
007800
000000
000000
00FF00
07FFC0
0FFFE0
1FFFF0
3FE7F8
3F01F8
7E00FC
7E00FC
FC007C
FC0000
FC0000
FC0000
FC0000
FC0000
FC1FFC
FC1FFC
FC1FFC
FC1FFC
FC007C
FC007C
7E007C
7E007C
7F007C
3FC1FC
1FFFFC
0FFFF8
07FFF0
01FFC0
ENDCHAR
STARTCHAR 0121
ENCODING 289
SWIDTH 565 0
DWIDTH 22 0
BBX 19 37 1 -8
BITMAP
00E000
01F000
01F000
01F000
00E000
000000
000000
000000
03E3E0
0FFBE0
1FFFE0
3FFFE0
3F9FE0
7E07E0
7E03E0
7C03E0
FC03E0
FC03E0
FC03E0
FC03E0
FC03E0
FC03E0
7C03E0
7E07E0
7F0FE0
3FFFE0
1FFFE0
0FFBE0
07F3E0
0007E0
0007E0
1807E0
1E1FC0
3FFFC0
3FFF80
1FFE00
03F800
ENDCHAR
STARTCHAR 0122
ENCODING 290
SWIDTH 668 0
DWIDTH 26 0
BBX 22 38 2 -10
BITMAP
00FF00
07FFC0
0FFFE0
1FFFF0
3FE7F8
3F01F8
7E00FC
7E00FC
FC007C
FC0000
FC0000
FC0000
FC0000
FC0000
FC1FFC
FC1FFC
FC1FFC
FC1FFC
FC007C
FC007C
7E007C
7E007C
7F007C
3FC1FC
1FFFFC
0FFFF8
07FFF0
01FFC0
000000
000000
003C00
003C00
003C00
003C00
007800
007800
007000
002000
ENDCHAR
STARTCHAR 0123
ENCODING 291
SWIDTH 565 0
DWIDTH 22 0
BBX 19 40 1 -7
BITMAP
007000
00F800
00F000
00F000
01F000
01F000
01F000
01F000
000000
000000
000000
03E3E0
0FFBE0
1FFFE0
3FFFE0
3F9FE0
7E07E0
7E03E0
7C03E0
FC03E0
FC03E0
FC03E0
FC03E0
FC03E0
FC03E0
7C03E0
7E07E0
7F0FE0
3FFFE0
1FFFE0
0FFBE0
07F3E0
0007E0
0007E0
1807E0
1E1FC0
3FFFC0
3FFF80
1FFE00
03F800
ENDCHAR
STARTCHAR 0124
ENCODING 292
SWIDTH 694 0
DWIDTH 27 0
BBX 23 35 2 0
BITMAP
007C00
00FE00
01FF00
03E780
07C3C0
000020
000000
FC007E
FC007E
FC007E
FC007E
FC007E
FC007E
FC007E
FC007E
FC007E
FC007E
FC007E
FC007E
FFFFFE
FFFFFE
FFFFFE
FFFFFE
FC007E
FC007E
FC007E
FC007E
FC007E
FC007E
FC007E
FC007E
FC007E
FC007E
FC007E
FC007E
ENDCHAR
STARTCHAR 0125
ENCODING 293
SWIDTH 540 0
DWIDTH 21 0
BBX 18 36 2 0
BITMAP
07C000
0FF000
1FF800
3E7C00
7C3E00
000000
000000
F80000
F80000
F80000
F80000
F80000
F80000
F80000
F80000
F87C00
F9FE00
FBFF00
FFFF80
FF3F80
FC0FC0
F80FC0
F80FC0
F80FC0
F80FC0
F80FC0
F80FC0
F80FC0
F80FC0
F80FC0
F80FC0
F80FC0
F80FC0
F80FC0
F80FC0
F80FC0
ENDCHAR
STARTCHAR 0126
ENCODING 294
SWIDTH 694 0
DWIDTH 27 0
BBX 27 28 1 0
BITMAP
3E001F00
3E001F00
3E001F00
3E001F00
3E001F00
FFFFFFE0
FFFFFFE0
FFFFFFE0
3E001F00
3E001F00
3E001F00
3E001F00
3FFFFF00
3FFFFF00
3FFFFF00
3FFFFF00
3E001F00
3E001F00
3E001F00
3E001F00
3E001F00
3E001F00
3E001F00
3E001F00
3E001F00
3E001F00
3E001F00
3E001F00
ENDCHAR
STARTCHAR 0127
ENCODING 295
SWIDTH 565 0
DWIDTH 22 0
BBX 20 29 0 0
BITMAP
1F0000
1F0000
FFF800
FFF800
FFF800
FFF800
1F0000
1F0000
1F1F00
1F7FC0
1FFFE0
1FFFF0
1FEFF0
1F83F0
1F01F0
1F01F0
1F01F0
1F01F0
1F01F0
1F01F0
1F01F0
1F01F0
1F01F0
1F01F0
1F01F0
1F01F0
1F01F0
1F01F0
1F01F0
ENDCHAR
STARTCHAR 0128
ENCODING 296
SWIDTH 282 0
DWIDTH 11 0
BBX 14 35 -1 0
BITMAP
381C
7F3C
FFF8
FFF8
E1F0
0000
0000
0FC0
0FC0
0FC0
0FC0
0FC0
0FC0
0FC0
0FC0
0FC0
0FC0
0FC0
0FC0
0FC0
0FC0
0FC0
0FC0
0FC0
0FC0
0FC0
0FC0
0FC0
0FC0
0FC0
0FC0
0FC0
0FC0
0FC0
0FC0
ENDCHAR
STARTCHAR 0129
ENCODING 297
SWIDTH 257 0
DWIDTH 10 0
BBX 14 29 -2 0
BITMAP
081C
3F1C
7FFC
FFFC
F1F8
6000
0000
0000
07C0
07C0
07C0
07C0
07C0
07C0
07C0
07C0
07C0
07C0
07C0
07C0
07C0
07C0
07C0
07C0
07C0
07C0
07C0
07C0
07C0
ENDCHAR
STARTCHAR 012A
ENCODING 298
SWIDTH 282 0
DWIDTH 11 0
BBX 13 34 -1 0
BITMAP
FFF8
FFF8
FFF8
FFF8
0000
0000
0FC0
0FC0
0FC0
0FC0
0FC0
0FC0
0FC0
0FC0
0FC0
0FC0
0FC0
0FC0
0FC0
0FC0
0FC0
0FC0
0FC0
0FC0
0FC0
0FC0
0FC0
0FC0
0FC0
0FC0
0FC0
0FC0
0FC0
0FC0
ENDCHAR
STARTCHAR 012B
ENCODING 299
SWIDTH 257 0
DWIDTH 10 0
BBX 13 27 -1 0
BITMAP
FFF8
FFF8
FFF8
0000
0000
0000
0F80
0F80
0F80
0F80
0F80
0F80
0F80
0F80
0F80
0F80
0F80
0F80
0F80
0F80
0F80
0F80
0F80
0F80
0F80
0F80
0F80
ENDCHAR
STARTCHAR 012C
ENCODING 300
SWIDTH 282 0
DWIDTH 11 0
BBX 13 35 -1 0
BITMAP
F078
F078
7CF8
7FF0
3FE0
0700
0000
0FC0
0FC0
0FC0
0FC0
0FC0
0FC0
0FC0
0FC0
0FC0
0FC0
0FC0
0FC0
0FC0
0FC0
0FC0
0FC0
0FC0
0FC0
0FC0
0FC0
0FC0
0FC0
0FC0
0FC0
0FC0
0FC0
0FC0
0FC0
ENDCHAR
STARTCHAR 012D
ENCODING 301
SWIDTH 257 0
DWIDTH 10 0
BBX 13 29 -1 0
BITMAP
F078
F078
F8F8
7FF0
3FE0
1F80
0000
0000
0F80
0F80
0F80
0F80
0F80
0F80
0F80
0F80
0F80
0F80
0F80
0F80
0F80
0F80
0F80
0F80
0F80
0F80
0F80
0F80
0F80
ENDCHAR
STARTCHAR 012E
ENCODING 302
SWIDTH 282 0
DWIDTH 11 0
BBX 9 36 0 -8
BITMAP
1F80
1F80
1F80
1F80
1F80
1F80
1F80
1F80
1F80
1F80
1F80
1F80
1F80
1F80
1F80
1F80
1F80
1F80
1F80
1F80
1F80
1F80
1F80
1F80
1F80
1F80
1F80
1F80
3E00
7800
7800
F800
FC00
7F00
7F00
1E00
ENDCHAR
STARTCHAR 012F
ENCODING 303
SWIDTH 257 0
DWIDTH 10 0
BBX 8 37 0 -8
BITMAP
0C
1F
3F
3F
3F
0E
00
00
3F
3F
3F
3F
3F
3F
3F
3F
3F
3F
3F
3F
3F
3F
3F
3F
3F
3F
3F
3F
3F
3C
78
F0
F0
FA
FE
7E
3E
ENDCHAR
STARTCHAR 0130
ENCODING 304
SWIDTH 282 0
DWIDTH 11 0
BBX 6 35 3 0
BITMAP
70
F8
F8
F8
78
00
00
FC
FC
FC
FC
FC
FC
FC
FC
FC
FC
FC
FC
FC
FC
FC
FC
FC
FC
FC
FC
FC
FC
FC
FC
FC
FC
FC
FC
ENDCHAR
STARTCHAR 0131
ENCODING 305
SWIDTH 257 0
DWIDTH 10 0
BBX 5 21 3 0
BITMAP
F8
F8
F8
F8
F8
F8
F8
F8
F8
F8
F8
F8
F8
F8
F8
F8
F8
F8
F8
F8
F8
ENDCHAR
STARTCHAR 0132
ENCODING 306
SWIDTH 848 0
DWIDTH 33 0
BBX 28 28 3 0
BITMAP
FC0003F0
FC0003F0
FC0003F0
FC0003F0
FC0003F0
FC0003F0
FC0003F0
FC0003F0
FC0003F0
FC0003F0
FC0003F0
FC0003F0
FC0003F0
FC0003F0
FC0003F0
FC0003F0
FC0003F0
FC0003F0
FC0003F0
FC0003F0
FC7E03F0
FC7E03F0
FC7E07E0
FC3F0FE0
FC3FFFC0
FC1FFFC0
FC0FFF80
FC03FE00
ENDCHAR
STARTCHAR 0133
ENCODING 307
SWIDTH 514 0
DWIDTH 20 0
BBX 16 37 2 -8
BITMAP
300C
7C1F
FC3F
FC3F
FC1F
380E
0000
0000
FC1F
FC1F
FC1F
FC1F
FC1F
FC1F
FC1F
FC1F
FC1F
FC1F
FC1F
FC1F
FC1F
FC1F
FC1F
FC1F
FC1F
FC1F
FC1F
FC1F
FC1F
001F
001F
001F
003F
03FF
03FE
03FC
03F8
ENDCHAR
STARTCHAR 0134
ENCODING 308
SWIDTH 540 0
DWIDTH 21 0
BBX 22 35 1 0
BITMAP
000780
000FE0
001FF0
003CF8
00787C
000000
000000
0007C0
0007C0
0007C0
0007C0
0007C0
0007C0
0007C0
0007C0
0007C0
0007C0
0007C0
0007C0
0007C0
0007C0
0007C0
0007C0
0007C0
0007C0
0007C0
0007C0
FC07C0
FC0FC0
FC0FC0
FE1FC0
7FFF80
3FFF00
1FFE00
0FF800
ENDCHAR
STARTCHAR 0135
ENCODING 309
SWIDTH 257 0
DWIDTH 10 0
BBX 14 37 -2 -8
BITMAP
0780
0FC0
1FE0
3EF0
7C78
F83C
0000
0000
07C0
07C0
07C0
07C0
07C0
07C0
07C0
07C0
07C0
07C0
07C0
07C0
07C0
07C0
07C0
07C0
07C0
07C0
07C0
07C0
07C0
07C0
07C0
07C0
0FC0
7FC0
FF80
FF00
FE00
ENDCHAR
STARTCHAR 0136
ENCODING 310
SWIDTH 617 0
DWIDTH 24 0
BBX 23 37 2 -9
BITMAP
FC00FE
FC01FC
FC03F8
FC07F0
FC07E0
FC0FE0
FC1FC0
FC3F80
FC7F00
FC7E00
FCFE00
FDFC00
FDF800
FFF800
FFFC00
FFFE00
FFFE00
FFBF00
FF3F80
FE1F80
FC1FC0
FC0FE0
FC07E0
FC07F0
FC03F8
FC01F8
FC01FC
FC00FE
000000
00F000
00F000
00F000
00F000
00F000
01E000
00E000
004000
ENDCHAR
STARTCHAR 0137
ENCODING 311
SWIDTH 514 0
DWIDTH 20 0
BBX 19 38 2 -9
BITMAP
FC0000
FC0000
FC0000
FC0000
FC0000
FC0000
FC0000
FC0000
FC0FE0
FC1FC0
FC3F80
FC7F00
FC7E00
FCFC00
FDF800
FFF000
FFE000
FFE000
FFF000
FFF800
FFF800
FEFC00
FC7E00
FC7E00
FC3F00
FC1F80
FC1FC0
FC0FC0
FC07E0
000000
01E000
01E000
01E000
01C000
03C000
03C000
078000
010000
ENDCHAR
STARTCHAR 0138
ENCODING 312
SWIDTH 565 0
DWIDTH 22 0
BBX 20 21 2 0
BITMAP
FC07F0
FC0FE0
FC0FC0
FC1FC0
FC3F80
FC3F00
FC7F00
FCFE00
FFFC00
FFF800
FFF800
FFFC00
FFFC00
FCFE00
FC7F00
FC3F00
FC3F80
FC1FC0
FC0FE0
FC0FE0
FC07F0
ENDCHAR
STARTCHAR 0139
ENCODING 313
SWIDTH 540 0
DWIDTH 21 0
BBX 18 35 2 0
BITMAP
0FC000
0F8000
1F0000
3E0000
3C0000
7C0000
000000
FC0000
FC0000
FC0000
FC0000
FC0000
FC0000
FC0000
FC0000
FC0000
FC0000
FC0000
FC0000
FC0000
FC0000
FC0000
FC0000
FC0000
FC0000
FC0000
FC0000
FC0000
FC0000
FC0000
FC0000
FFFFC0
FFFFC0
FFFFC0
FFFFC0
ENDCHAR
STARTCHAR 013A
ENCODING 314
SWIDTH 257 0
DWIDTH 10 0
BBX 10 37 2 0
BITMAP
0FC0
0F80
1F00
3E00
3E00
7C00
0000
0000
FC00
FC00
FC00
FC00
FC00
FC00
FC00
FC00
FC00
FC00
FC00
FC00
FC00
FC00
FC00
FC00
FC00
FC00
FC00
FC00
FC00
FC00
FC00
FC00
FC00
FC00
FC00
FC00
FC00
ENDCHAR
STARTCHAR 013B
ENCODING 315
SWIDTH 540 0
DWIDTH 21 0
BBX 18 38 2 -10
BITMAP
FC0000
FC0000
FC0000
FC0000
FC0000
FC0000
FC0000
FC0000
FC0000
FC0000
FC0000
FC0000
FC0000
FC0000
FC0000
FC0000
FC0000
FC0000
FC0000
FC0000
FC0000
FC0000
FC0000
FC0000
FFFFC0
FFFFC0
FFFFC0
FFFFC0
000000
000000
01E000
01E000
01E000
01E000
01E000
03C000
01C000
008000
ENDCHAR
STARTCHAR 013C
ENCODING 316
SWIDTH 257 0
DWIDTH 10 0
BBX 6 39 2 -10
BITMAP
FC
FC
FC
FC
FC
FC
FC
FC
FC
FC
FC
FC
FC
FC
FC
FC
FC
FC
FC
FC
FC
FC
FC
FC
FC
FC
FC
FC
FC
00
00
78
78
78
78
70
F0
E0
20
ENDCHAR
STARTCHAR 013D
ENCODING 317
SWIDTH 540 0
DWIDTH 21 0
BBX 18 28 2 0
BITMAP
FC1E00
FC1E00
FC1E00
FC1E00
FC1E00
FC3C00
FC3C00
FC1800
FC0000
FC0000
FC0000
FC0000
FC0000
FC0000
FC0000
FC0000
FC0000
FC0000
FC0000
FC0000
FC0000
FC0000
FC0000
FC0000
FFFFC0
FFFFC0
FFFFC0
FFFFC0
ENDCHAR
STARTCHAR 013E
ENCODING 318
SWIDTH 334 0
DWIDTH 13 0
BBX 13 29 2 0
BITMAP
FC78
FC78
FC78
FC70
FCF0
FCF0
FCE0
FC00
FC00
FC00
FC00
FC00
FC00
FC00
FC00
FC00
FC00
FC00
FC00
FC00
FC00
FC00
FC00
FC00
FC00
FC00
FC00
FC00
FC00
ENDCHAR
STARTCHAR 013F
ENCODING 319
SWIDTH 540 0
DWIDTH 21 0
BBX 18 28 2 0
BITMAP
FC0000
FC0000
FC0000
FC0000
FC0000
FC0000
FC0000
FC0000
FC0000
FC0000
FC3C00
FC7E00
FC7E00
FC3E00
FC3C00
FC0000
FC0000
FC0000
FC0000
FC0000
FC0000
FC0000
FC0000
FC0000
FFFFC0
FFFFC0
FFFFC0
FFFFC0
ENDCHAR
STARTCHAR 0140
ENCODING 320
SWIDTH 360 0
DWIDTH 14 0
BBX 13 29 2 0
BITMAP
FC00
FC00
FC00
FC00
FC00
FC00
FC00
FC00
FC00
FC00
FC00
FC00
FCF8
FCF8
FCF8
FCF8
FC70
FC00
FC00
FC00
FC00
FC00
FC00
FC00
FC00
FC00
FC00
FC00
FC00
ENDCHAR
STARTCHAR 0141
ENCODING 321
SWIDTH 540 0
DWIDTH 21 0
BBX 20 28 1 0
BITMAP
3F0000
3F0000
3F0000
3F0000
3F0000
3F0000
3F0000
3F0000
3F0000
3F0000
3F3000
3FF000
3FF000
FFC000
FF0000
FF0000
3F0000
3F0000
3F0000
3F0000
3F0000
3F0000
3F0000
3F0000
3FFFF0
3FFFF0
3FFFF0
3FFFF0
ENDCHAR
STARTCHAR 0142
ENCODING 322
SWIDTH 282 0
DWIDTH 11 0
BBX 10 29 1 0
BITMAP
3F00
3F00
3F00
3F00
3F00
3F00
3F00
3F00
3F00
3F00
3F00
3FC0
3FC0
3FC0
FF80
FF00
FF00
3F00
3F00
3F00
3F00
3F00
3F00
3F00
3F00
3F00
3F00
3F00
3F00
ENDCHAR
STARTCHAR 0143
ENCODING 323
SWIDTH 694 0
DWIDTH 27 0
BBX 23 35 2 0
BITMAP
0007C0
000F80
001F80
001F00
003E00
007C00
000000
FC007E
FE007E
FE007E
FF007E
FF807E
FF807E
FFC07E
FFC07E
FFE07E
FFF07E
FDF07E
FDF87E
FCF87E
FC7C7E
FC7E7E
FC3E7E
FC3F7E
FC1F7E
FC0FFE
FC0FFE
FC07FE
FC07FE
FC03FE
FC01FE
FC01FE
FC00FE
FC00FE
FC007E
ENDCHAR
STARTCHAR 0144
ENCODING 324
SWIDTH 540 0
DWIDTH 21 0
BBX 18 29 2 0
BITMAP
003F00
007E00
00FC00
00F800
01F000
03E000
000000
000000
F87C00
F9FF00
FBFF00
FFFF80
FF3F80
FC0FC0
F80FC0
F80FC0
F80FC0
F80FC0
F80FC0
F80FC0
F80FC0
F80FC0
F80FC0
F80FC0
F80FC0
F80FC0
F80FC0
F80FC0
F80FC0
ENDCHAR
STARTCHAR 0145
ENCODING 325
SWIDTH 694 0
DWIDTH 27 0
BBX 23 37 2 -10
BITMAP
FC007E
FE007E
FE007E
FF007E
FF807E
FF807E
FFC07E
FFC07E
FFE07E
FFF07E
FDF07E
FDF87E
FCF87E
FC7C7E
FC7E7E
FC3E7E
FC3F7E
FC1F7E
FC0FFE
FC0FFE
FC07FE
FC07FE
FC03FE
FC01FE
FC01FE
FC00FE
FC00FE
FC007E
000000
000000
003C00
003C00
003C00
003800
007800
007800
007000
ENDCHAR
STARTCHAR 0146
ENCODING 326
SWIDTH 540 0
DWIDTH 21 0
BBX 18 30 2 -10
BITMAP
F87C00
F9FF00
FBFF00
FFFF80
FF3F80
FC0FC0
F80FC0
F80FC0
F80FC0
F80FC0
F80FC0
F80FC0
F80FC0
F80FC0
F80FC0
F80FC0
F80FC0
F80FC0
F80FC0
F80FC0
F80FC0
000000
000000
01E000
01E000
01E000
01E000
03C000
03C000
038000
ENDCHAR
STARTCHAR 0147
ENCODING 327
SWIDTH 694 0
DWIDTH 27 0
BBX 23 35 2 0
BITMAP
07C3E0
03E7C0
01FF80
00FF00
007E00
000000
000000
FC007E
FE007E
FE007E
FF007E
FF807E
FF807E
FFC07E
FFC07E
FFE07E
FFF07E
FDF07E
FDF87E
FCF87E
FC7C7E
FC7E7E
FC3E7E
FC3F7E
FC1F7E
FC0FFE
FC0FFE
FC07FE
FC07FE
FC03FE
FC01FE
FC01FE
FC00FE
FC00FE
FC007E
ENDCHAR
STARTCHAR 0148
ENCODING 328
SWIDTH 540 0
DWIDTH 21 0
BBX 18 29 2 0
BITMAP
3E1F00
1F3E00
0FFC00
07F800
03F000
000000
000000
000000
F87C00
F9FF00
FBFF00
FFFF80
FF3F80
FC0FC0
F80FC0
F80FC0
F80FC0
F80FC0
F80FC0
F80FC0
F80FC0
F80FC0
F80FC0
F80FC0
F80FC0
F80FC0
F80FC0
F80FC0
F80FC0
ENDCHAR
STARTCHAR 0149
ENCODING 329
SWIDTH 540 0
DWIDTH 21 0
BBX 22 29 -2 0
BITMAP
780000
780000
780000
780000
780000
F00000
F00000
200000
0F87C0
0F9FF0
0FBFF0
0FFFF8
0FF3F8
0FC0FC
0F80FC
0F80FC
0F80FC
0F80FC
0F80FC
0F80FC
0F80FC
0F80FC
0F80FC
0F80FC
0F80FC
0F80FC
0F80FC
0F80FC
0F80FC
ENDCHAR
STARTCHAR 014A
ENCODING 330
SWIDTH 694 0
DWIDTH 27 0
BBX 23 36 2 -8
BITMAP
FC007E
FE007E
FE007E
FF007E
FF807E
FF807E
FFC07E
FFC07E
FFE07E
FFF07E
FDF07E
FDF87E
FCF87E
FC7C7E
FC7E7E
FC3E7E
FC3F7E
FC1F7E
FC0FFE
FC0FFE
FC07FE
FC07FE
FC03FE
FC01FE
FC01FE
FC00FE
FC00FE
FC007E
00007E
00007E
00007E
0000FE
0007FC
0007FC
0007F8
0007E0
ENDCHAR
STARTCHAR 014B
ENCODING 331
SWIDTH 540 0
DWIDTH 21 0
BBX 18 29 2 -8
BITMAP
F87C00
F9FF00
FBFF00
FFFF80
FFBF80
FC0FC0
FC0FC0
FC0FC0
FC0FC0
FC0FC0
FC0FC0
FC0FC0
FC0FC0
FC0FC0
FC0FC0
FC0FC0
FC0FC0
FC0FC0
FC0FC0
FC0FC0
FC0FC0
000FC0
000FC0
000FC0
001FC0
00FF80
00FF80
00FF00
00FC00
ENDCHAR
STARTCHAR 014C
ENCODING 332
SWIDTH 668 0
DWIDTH 26 0
BBX 23 33 2 0
BITMAP
07FFC0
07FFC0
07FFC0
000000
000000
00FE00
07FF80
0FFFE0
1FFFF0
3FFFF8
3F01F8
7E00FC
7E00FC
FC007E
FC007E
FC007E
F8007E
F8007E
F8007E
F8007E
F8007E
F8007E
FC007E
FC007E
FC007E
FC00FC
7E00FC
7F01F8
3F87F8
1FFFF0
0FFFE0
07FFC0
01FF00
ENDCHAR
STARTCHAR 014D
ENCODING 333
SWIDTH 540 0
DWIDTH 21 0
BBX 20 28 1 0
BITMAP
1FFF00
1FFF00
1FFF00
1FFF00
000000
000000
000000
01F800
07FE00
1FFF80
3FFFC0
3F9FC0
7E07E0
7E07E0
7C03E0
FC03F0
FC03F0
FC03F0
FC03F0
FC03F0
FC03E0
7C03E0
7E07E0
7F0FC0
3FFFC0
1FFF80
0FFF00
03FC00
ENDCHAR
STARTCHAR 014E
ENCODING 334
SWIDTH 668 0
DWIDTH 26 0
BBX 23 35 2 0
BITMAP
0783C0
0783C0
07C780
03FF80
01FF00
003800
000000
00FE00
07FF80
0FFFE0
1FFFF0
3FFFF8
3F01F8
7E00FC
7E00FC
FC007E
FC007E
FC007E
F8007E
F8007E
F8007E
F8007E
F8007E
F8007E
FC007E
FC007E
FC007E
FC00FC
7E00FC
7F01F8
3F87F8
1FFFF0
0FFFE0
07FFC0
01FF00
ENDCHAR
STARTCHAR 014F
ENCODING 335
SWIDTH 540 0
DWIDTH 21 0
BBX 20 29 1 0
BITMAP
1E0780
1F0F00
0F9F00
07FE00
03FC00
006000
000000
000000
01F800
07FE00
1FFF80
3FFFC0
3F9FC0
7E07E0
7E07E0
7C03E0
FC03F0
FC03F0
FC03F0
FC03F0
FC03F0
FC03E0
7C03E0
7E07E0
7F0FC0
3FFFC0
1FFF80
0FFF00
03FC00
ENDCHAR
STARTCHAR 0150
ENCODING 336
SWIDTH 668 0
DWIDTH 26 0
BBX 23 35 2 0
BITMAP
007CF8
00F9F0
00F1E0
01E3C0
03E780
03CF80
000000
00FE00
07FF80
0FFFE0
1FFFF0
3FFFF8
3F01F8
7E00FC
7E00FC
FC007E
FC007E
FC007E
F8007E
F8007E
F8007E
F8007E
F8007E
F8007E
FC007E
FC007E
FC007E
FC00FC
7E00FC
7F01F8
3F87F8
1FFFF0
0FFFE0
07FFC0
01FF00
ENDCHAR
STARTCHAR 0151
ENCODING 337
SWIDTH 540 0
DWIDTH 21 0
BBX 20 29 1 0
BITMAP
01F1F0
01E3E0
03E7C0
07CF80
078F00
0F1E00
000000
000000
01F800
07FE00
1FFF80
3FFFC0
3F9FC0
7E07E0
7E07E0
7C03E0
FC03F0
FC03F0
FC03F0
FC03F0
FC03F0
FC03E0
7C03E0
7E07E0
7F0FC0
3FFFC0
1FFF80
0FFF00
03FC00
ENDCHAR
STARTCHAR 0152
ENCODING 338
SWIDTH 951 0
DWIDTH 37 0
BBX 34 28 2 0
BITMAP
00FFFFFFC0
07FFFFFFC0
0FFFFFFFC0
1FFFFFFFC0
3FC1FFFFC0
7E01F80000
7E01F80000
FC01F80000
FC01F80000
F801F80000
F801F80000
F801F80000
F801FFFF00
F801FFFF00
F801FFFF00
F801FFFF00
F801F80000
F801F80000
F801F80000
FC01F80000
FC01F80000
7C01F80000
7E01F80000
3F01F80000
3FFFFFFFC0
1FFFFFFFC0
07FFFFFFC0
01FFFFFFC0
ENDCHAR
STARTCHAR 0153
ENCODING 339
SWIDTH 900 0
DWIDTH 35 0
BBX 32 21 2 0
BITMAP
03F00FC0
0FFE3FF0
1FFF7FF8
3FFFFFFC
7F3FFCFE
7E0FF83E
FC07F03E
F807F03F
F807E03F
F807FFFF
F807FFFF
F807FFFF
F807E000
F807E000
FC07F000
FC0FF000
7E1FFC0C
7FFFFFFE
3FFFFFFE
1FFE7FFE
07FC1FF8
ENDCHAR
STARTCHAR 0154
ENCODING 340
SWIDTH 617 0
DWIDTH 24 0
BBX 22 35 2 0
BITMAP
003F00
007E00
007C00
00F800
00F000
01E000
000000
FFF800
FFFF80
FFFFC0
FFFFE0
FFFFF0
FC03F0
FC01F8
FC01F8
FC01F8
FC01F8
FC01F8
FC01F8
FC03F0
FFFFF0
FFFFE0
FFFFC0
FFFF00
FFFF80
FC1F80
FC0FC0
FC0FC0
FC07E0
FC07E0
FC03F0
FC03F0
FC01F8
FC01F8
FC00FC
ENDCHAR
STARTCHAR 0155
ENCODING 341
SWIDTH 360 0
DWIDTH 14 0
BBX 12 29 2 0
BITMAP
01F0
03E0
07E0
07C0
0F80
1F00
0000
0000
F8F0
F9F0
FBF0
FFF0
FFF0
FF00
FC00
FC00
FC00
FC00
FC00
FC00
FC00
FC00
FC00
FC00
FC00
FC00
FC00
FC00
FC00
ENDCHAR
STARTCHAR 0156
ENCODING 342
SWIDTH 617 0
DWIDTH 24 0
BBX 22 37 2 -10
BITMAP
FFF800
FFFF80
FFFFC0
FFFFE0
FFFFF0
FC03F0
FC01F8
FC01F8
FC01F8
FC01F8
FC01F8
FC01F8
FC03F0
FFFFF0
FFFFE0
FFFFC0
FFFF00
FFFF80
FC1F80
FC0FC0
FC0FC0
FC07E0
FC07E0
FC03F0
FC03F0
FC01F8
FC01F8
FC00FC
000000
000000
00F000
00F000
00F000
01E000
01E000
01C000
01C000
ENDCHAR
STARTCHAR 0157
ENCODING 343
SWIDTH 360 0
DWIDTH 14 0
BBX 12 30 2 -10
BITMAP
F8F0
F9F0
FBF0
FFF0
FFF0
FF00
FC00
FC00
FC00
FC00
FC00
FC00
FC00
FC00
FC00
FC00
FC00
FC00
FC00
FC00
FC00
0000
0000
7800
7800
7800
7800
F000
F000
E000
ENDCHAR
STARTCHAR 0158
ENCODING 344
SWIDTH 617 0
DWIDTH 24 0
BBX 22 35 2 0
BITMAP
3E0F00
1F1E00
0FBC00
07F800
01F000
000000
000000
FFF800
FFFF80
FFFFC0
FFFFE0
FFFFF0
FC03F0
FC01F8
FC01F8
FC01F8
FC01F8
FC01F8
FC01F8
FC03F0
FFFFF0
FFFFE0
FFFFC0
FFFF00
FFFF80
FC1F80
FC0FC0
FC0FC0
FC07E0
FC07E0
FC03F0
FC03F0
FC01F8
FC01F8
FC00FC
ENDCHAR
STARTCHAR 0159
ENCODING 345
SWIDTH 360 0
DWIDTH 14 0
BBX 14 29 1 0
BITMAP
F87C
7CF8
3FF0
1FE0
0F80
0000
0000
0000
7C78
7CF8
7DF8
7FF8
7FF8
7F80
7E00
7E00
7E00
7E00
7E00
7E00
7E00
7E00
7E00
7E00
7E00
7E00
7E00
7E00
7E00
ENDCHAR
STARTCHAR 015A
ENCODING 346
SWIDTH 591 0
DWIDTH 23 0
BBX 22 35 1 0
BITMAP
000FC0
001F80
001F00
003E00
003C00
007800
000000
01FE00
07FFC0
0FFFE0
1FFFF0
3FC7F8
7F01F8
7E01F8
7E00F8
7E0000
7F0000
3F8000
3FE000
1FFC00
0FFF80
03FFC0
00FFE0
001FF0
0003F8
0001F8
FC00F8
FC00FC
7C00FC
7E01F8
7F83F8
3FFFF8
1FFFF0
0FFFE0
03FF80
ENDCHAR
STARTCHAR 015B
ENCODING 347
SWIDTH 488 0
DWIDTH 19 0
BBX 18 29 1 0
BITMAP
003F00
007E00
00FC00
00F800
01F000
01E000
000000
000000
03F000
1FFE00
3FFF00
7FFF80
7E1F80
7C0F80
7C0F80
7E0000
7F8000
3FF800
1FFE00
0FFF00
01FF80
001F80
F80FC0
F80FC0
FC0F80
7FBF80
3FFF00
1FFE00
0FFC00
ENDCHAR
STARTCHAR 015C
ENCODING 348
SWIDTH 591 0
DWIDTH 23 0
BBX 22 35 1 0
BITMAP
007C00
00FE00
01FF00
03CF80
0787C0
000000
000000
01FE00
07FFC0
0FFFE0
1FFFF0
3FC7F8
7F01F8
7E01F8
7E00F8
7E0000
7F0000
3F8000
3FE000
1FFC00
0FFF80
03FFC0
00FFE0
001FF0
0003F8
0001F8
FC00F8
FC00FC
7C00FC
7E01F8
7F83F8
3FFFF8
1FFFF0
0FFFE0
03FF80
ENDCHAR
STARTCHAR 015D
ENCODING 349
SWIDTH 488 0
DWIDTH 19 0
BBX 18 29 1 0
BITMAP
01E000
03F000
0FF800
1F3E00
3E1F00
000000
000000
000000
03F000
1FFE00
3FFF00
7FFF80
7E1F80
7C0F80
7C0F80
7E0000
7F8000
3FF800
1FFE00
0FFF00
01FF80
001F80
F80FC0
F80FC0
FC0F80
7FBF80
3FFF00
1FFE00
0FFC00
ENDCHAR
STARTCHAR 015E
ENCODING 350
SWIDTH 591 0
DWIDTH 23 0
BBX 22 37 1 -9
BITMAP
01FE00
07FFC0
0FFFE0
1FFFF0
3FC7F8
7F01F8
7E01F8
7E00F8
7E0000
7F0000
3F8000
3FE000
1FFC00
0FFF80
03FFC0
00FFE0
001FF0
0003F8
0001F8
FC00F8
FC00FC
7C00FC
7E01F8
7F83F8
3FFFF8
1FFFF0
0FFFE0
03FF80
007800
007E00
007F00
001F00
001F00
003F00
007F00
007C00
007000
ENDCHAR
STARTCHAR 015F
ENCODING 351
SWIDTH 488 0
DWIDTH 19 0
BBX 18 30 1 -9
BITMAP
03F000
1FFE00
3FFF00
7FFF80
7E1F80
7C0F80
7C0F80
7E0000
7F8000
3FF800
1FFE00
0FFF00
01FF80
001F80
F80FC0
F80FC0
FC0F80
7FBF80
3FFF00
1FFE00
0FFC00
01E000
01F000
03F800
007C00
007C00
00FC00
01F800
01F000
01C000
ENDCHAR
STARTCHAR 0160
ENCODING 352
SWIDTH 591 0
DWIDTH 23 0
BBX 22 35 1 0
BITMAP
0F83C0
07C780
03FF00
01FE00
007C00
000000
000000
01FE00
07FFC0
0FFFE0
1FFFF0
3FC7F8
7F01F8
7E01F8
7E00F8
7E0000
7F0000
3F8000
3FE000
1FFC00
0FFF80
03FFC0
00FFE0
001FF0
0003F8
0001F8
FC00F8
FC00FC
7C00FC
7E01F8
7F83F8
3FFFF8
1FFFF0
0FFFE0
03FF80
ENDCHAR
STARTCHAR 0161
ENCODING 353
SWIDTH 488 0
DWIDTH 19 0
BBX 18 29 1 0
BITMAP
3E1F00
1F3E00
0FFC00
07F800
03F000
000000
000000
000000
03F000
1FFE00
3FFF00
7FFF80
7E1F80
7C0F80
7C0F80
7E0000
7F8000
3FF800
1FFE00
0FFF00
01FF80
001F80
F80FC0
F80FC0
FC0F80
7FBF80
3FFF00
1FFE00
0FFC00
ENDCHAR
STARTCHAR 0162
ENCODING 354
SWIDTH 617 0
DWIDTH 24 0
BBX 22 37 1 -9
BITMAP
FFFFFC
FFFFFC
FFFFFC
FFFFFC
FFFFFC
00FC00
00FC00
00FC00
00FC00
00FC00
00FC00
00FC00
00FC00
00FC00
00FC00
00FC00
00FC00
00FC00
00FC00
00FC00
00FC00
00FC00
00FC00
00FC00
00FC00
00FC00
00FC00
00FC00
007800
007C00
007E00
001F00
001F00
007E00
007E00
007C00
004000
ENDCHAR
STARTCHAR 0163
ENCODING 355
SWIDTH 334 0
DWIDTH 13 0
BBX 13 35 0 -9
BITMAP
1F80
1F80
1F80
1F80
1F80
FFF0
FFF0
FFF0
FFF0
1F80
1F80
1F80
1F80
1F80
1F80
1F80
1F80
1F80
1F80
1F80
1F80
1F80
1FF0
0FF0
0FF0
07F0
03C0
03E0
03F8
00F8
00F8
01F8
03F0
03E0
0300
ENDCHAR
STARTCHAR 0164
ENCODING 356
SWIDTH 617 0
DWIDTH 24 0
BBX 22 35 1 0
BITMAP
0F87C0
07CF80
03FF00
01FE00
00FC00
000000
000000
FFFFFC
FFFFFC
FFFFFC
FFFFFC
FFFFFC
00FC00
00FC00
00FC00
00FC00
00FC00
00FC00
00FC00
00FC00
00FC00
00FC00
00FC00
00FC00
00FC00
00FC00
00FC00
00FC00
00FC00
00FC00
00FC00
00FC00
00FC00
00FC00
00FC00
ENDCHAR
STARTCHAR 0165
ENCODING 357
SWIDTH 334 0
DWIDTH 13 0
BBX 16 32 0 0
BITMAP
000F
000F
000F
000F
000F
001E
1F9E
1F8C
1F80
1F80
1F80
FFF0
FFF0
FFF0
FFF0
1F80
1F80
1F80
1F80
1F80
1F80
1F80
1F80
1F80
1F80
1F80
1F80
1F80
1FF0
0FF0
0FF0
07F0
ENDCHAR
STARTCHAR 0166
ENCODING 358
SWIDTH 617 0
DWIDTH 24 0
BBX 22 28 1 0
BITMAP
FFFFFC
FFFFFC
FFFFFC
FFFFFC
FFFFFC
00FC00
00FC00
00FC00
00FC00
00FC00
0FFF80
0FFF80
0FFF80
0FFF80
00FC00
00FC00
00FC00
00FC00
00FC00
00FC00
00FC00
00FC00
00FC00
00FC00
00FC00
00FC00
00FC00
00FC00
ENDCHAR
STARTCHAR 0167
ENCODING 359
SWIDTH 334 0
DWIDTH 13 0
BBX 14 26 -1 0
BITMAP
0FC0
0FC0
0FC0
0FC0
0FC0
7FF8
7FF8
7FF8
7FF8
0FC0
0FC0
0FC0
FFFC
FFFC
FFFC
FFFC
0FC0
0FC0
0FC0
0FC0
0FC0
0FC0
0FF8
07F8
07F8
03F8
ENDCHAR
STARTCHAR 0168
ENCODING 360
SWIDTH 642 0
DWIDTH 25 0
BBX 21 35 2 0
BITMAP
0381C0
07E3C0
0FFF80
0FFF80
0E1F00
000000
000000
FC00F8
FC00F8
FC00F8
FC00F8
FC00F8
FC00F8
FC00F8
FC00F8
FC00F8
FC00F8
FC00F8
FC00F8
FC00F8
FC00F8
FC00F8
FC00F8
FC00F8
FC00F8
FC00F8
FC00F8
FC00F8
7C01F8
7E01F8
7F87F0
3FFFF0
1FFFE0
0FFFC0
03FF00
ENDCHAR
STARTCHAR 0169
ENCODING 361
SWIDTH 540 0
DWIDTH 21 0
BBX 18 29 2 0
BITMAP
0F0700
1FCF00
3FFF00
3DFE00
387C00
000000
000000
000000
F80FC0
F80FC0
F80FC0
F80FC0
F80FC0
F80FC0
F80FC0
F80FC0
F80FC0
F80FC0
F80FC0
F80FC0
F80FC0
F80FC0
F80FC0
FC0FC0
FC1FC0
7FFFC0
7FFFC0
3FF7C0
1FC7C0
ENDCHAR
STARTCHAR 016A
ENCODING 362
SWIDTH 642 0
DWIDTH 25 0
BBX 21 33 2 0
BITMAP
0FFF80
0FFF80
0FFF80
000000
000000
FC00F8
FC00F8
FC00F8
FC00F8
FC00F8
FC00F8
FC00F8
FC00F8
FC00F8
FC00F8
FC00F8
FC00F8
FC00F8
FC00F8
FC00F8
FC00F8
FC00F8
FC00F8
FC00F8
FC00F8
FC00F8
7C01F8
7E01F8
7F87F0
3FFFF0
1FFFE0
0FFFC0
03FF00
ENDCHAR
STARTCHAR 016B
ENCODING 363
SWIDTH 540 0
DWIDTH 21 0
BBX 18 28 2 0
BITMAP
3FFE00
3FFE00
3FFE00
3FFE00
000000
000000
000000
F80FC0
F80FC0
F80FC0
F80FC0
F80FC0
F80FC0
F80FC0
F80FC0
F80FC0
F80FC0
F80FC0
F80FC0
F80FC0
F80FC0
F80FC0
FC0FC0
FC1FC0
7FFFC0
7FFFC0
3FF7C0
1FC7C0
ENDCHAR
STARTCHAR 016C
ENCODING 364
SWIDTH 642 0
DWIDTH 25 0
BBX 21 35 2 0
BITMAP
0F0780
0F0780
078F80
07FF00
03FE00
00F800
000000
FC00F8
FC00F8
FC00F8
FC00F8
FC00F8
FC00F8
FC00F8
FC00F8
FC00F8
FC00F8
FC00F8
FC00F8
FC00F8
FC00F8
FC00F8
FC00F8
FC00F8
FC00F8
FC00F8
FC00F8
FC00F8
7C01F8
7E01F8
7F87F0
3FFFF0
1FFFE0
0FFFC0
03FF00
ENDCHAR
STARTCHAR 016D
ENCODING 365
SWIDTH 540 0
DWIDTH 21 0
BBX 18 29 2 0
BITMAP
3C0E00
3E1E00
1F3E00
1FFC00
07F800
00C000
000000
000000
F80FC0
F80FC0
F80FC0
F80FC0
F80FC0
F80FC0
F80FC0
F80FC0
F80FC0
F80FC0
F80FC0
F80FC0
F80FC0
F80FC0
F80FC0
FC0FC0
FC1FC0
7FFFC0
7FFFC0
3FF7C0
1FC7C0
ENDCHAR
STARTCHAR 016E
ENCODING 366
SWIDTH 642 0
DWIDTH 25 0
BBX 21 37 2 0
BITMAP
007000
00FC00
01CE00
018600
018600
018E00
01FC00
007800
000000
FC00F8
FC00F8
FC00F8
FC00F8
FC00F8
FC00F8
FC00F8
FC00F8
FC00F8
FC00F8
FC00F8
FC00F8
FC00F8
FC00F8
FC00F8
FC00F8
FC00F8
FC00F8
FC00F8
FC00F8
FC00F8
7C01F8
7E01F8
7F87F0
3FFFF0
1FFFE0
0FFFC0
03FF00
ENDCHAR
STARTCHAR 016F
ENCODING 367
SWIDTH 540 0
DWIDTH 21 0
BBX 18 31 2 0
BITMAP
01E000
03F000
073800
061800
061800
063800
03F000
01E000
000000
000000
F80FC0
F80FC0
F80FC0
F80FC0
F80FC0
F80FC0
F80FC0
F80FC0
F80FC0
F80FC0
F80FC0
F80FC0
F80FC0
F80FC0
F80FC0
FC0FC0
FC1FC0
7FFFC0
7FFFC0
3FF7C0
1FC7C0
ENDCHAR
STARTCHAR 0170
ENCODING 368
SWIDTH 642 0
DWIDTH 25 0
BBX 21 35 2 0
BITMAP
00F8F0
00F1F0
01E3E0
03E7C0
03C780
078F00
000000
FC00F8
FC00F8
FC00F8
FC00F8
FC00F8
FC00F8
FC00F8
FC00F8
FC00F8
FC00F8
FC00F8
FC00F8
FC00F8
FC00F8
FC00F8
FC00F8
FC00F8
FC00F8
FC00F8
FC00F8
FC00F8
7C01F8
7E01F8
7F87F0
3FFFF0
1FFFE0
0FFFC0
03FF00
ENDCHAR
STARTCHAR 0171
ENCODING 369
SWIDTH 540 0
DWIDTH 21 0
BBX 18 29 2 0
BITMAP
03E3C0
03C7C0
078F80
0F9F00
0F1E00
1E3C00
000000
000000
F80FC0
F80FC0
F80FC0
F80FC0
F80FC0
F80FC0
F80FC0
F80FC0
F80FC0
F80FC0
F80FC0
F80FC0
F80FC0
F80FC0
F80FC0
FC0FC0
FC1FC0
7FFFC0
7FFFC0
3FF7C0
1FC7C0
ENDCHAR
STARTCHAR 0172
ENCODING 370
SWIDTH 642 0
DWIDTH 25 0
BBX 21 35 2 -7
BITMAP
FC00F8
FC00F8
FC00F8
FC00F8
FC00F8
FC00F8
FC00F8
FC00F8
FC00F8
FC00F8
FC00F8
FC00F8
FC00F8
FC00F8
FC00F8
FC00F8
FC00F8
FC00F8
FC00F8
FC00F8
FC00F8
7C01F8
7E01F8
7F87F0
3FFFF0
1FFFE0
0FFFC0
03FF00
001E00
003C00
003C00
003F80
001F80
001FC0
000700
ENDCHAR
STARTCHAR 0173
ENCODING 371
SWIDTH 540 0
DWIDTH 21 0
BBX 18 29 2 -8
BITMAP
F80FC0
F80FC0
F80FC0
F80FC0
F80FC0
F80FC0
F80FC0
F80FC0
F80FC0
F80FC0
F80FC0
F80FC0
F80FC0
F80FC0
F80FC0
FC0FC0
FC1FC0
7FFFC0
7FFFC0
3FF7C0
1FE7C0
000F00
001E00
003C00
003C00
003E80
003F80
001F80
000F80
ENDCHAR
STARTCHAR 0174
ENCODING 372
SWIDTH 874 0
DWIDTH 34 0
BBX 32 35 1 0
BITMAP
0003C000
0007E000
000FF800
001E7C00
003C3E00
00400000
00000000
F803C01F
FC07E01F
FC07E03F
FC07E03F
7C07E03F
7C0FF03E
7E0FF03E
7E0FF07E
7E0FF07E
3E1FF87C
3E1FF87C
3E1FF87C
3F1E78FC
1F1E7CFC
1F3E7CF8
1F3E7CF8
1F3C3CF8
1FBC3FF8
0FFC3FF0
0FFC3FF0
0FF81FF0
0FF81FF0
07F81FF0
07F81FE0
07F00FE0
07F00FE0
07F00FE0
03F00FC0
ENDCHAR
STARTCHAR 0175
ENCODING 373
SWIDTH 720 0
DWIDTH 28 0
BBX 27 29 1 0
BITMAP
001F0000
003F8000
007FC000
00F3E000
01E1F000
02000000
00000000
00000000
F81E03E0
F81F07E0
F81F07C0
F83F07C0
7C3F07C0
7C3F87C0
7C3F8F80
7C7F8F80
3C7F8F80
3E7BCF80
3EF3CF00
3EF3DF00
1EF1FF00
1EF1FF00
1FE1FE00
1FE0FE00
0FE0FE00
0FC0FE00
0FC0FC00
0FC07C00
07C07C00
ENDCHAR
STARTCHAR 0176
ENCODING 374
SWIDTH 617 0
DWIDTH 24 0
BBX 24 35 0 0
BITMAP
003C00
007E00
00FF00
01E7C0
03C3E0
040000
000000
FC003F
7E007E
7E007E
3F00FC
3F00FC
1F81F8
1F81F8
0FC1F0
0FC3F0
07C3E0
07E7E0
03E7C0
03FFC0
01FF80
01FF80
00FF00
00FF00
007E00
007E00
007E00
007E00
007E00
007E00
007E00
007E00
007E00
007E00
007E00
ENDCHAR
STARTCHAR 0177
ENCODING 375
SWIDTH 488 0
DWIDTH 19 0
BBX 20 37 0 -8
BITMAP
00F000
03F800
07FC00
0F9E00
1F0F80
000000
000000
000000
FC03F0
FC07E0
7E07E0
7E07C0
7E0FC0
3E0FC0
3F0F80
1F0F80
1F1F80
1F9F00
0F9F00
0FBF00
0FFE00
07FE00
07FE00
07FC00
03FC00
03FC00
03F800
01F800
01F800
01F000
01F000
03F000
07E000
3FE000
3FC000
3F8000
3F0000
ENDCHAR
STARTCHAR 0178
ENCODING 376
SWIDTH 617 0
DWIDTH 24 0
BBX 24 34 0 0
BITMAP
0781E0
07C3E0
07C3E0
07C1E0
010080
000000
FC003F
7E007E
7E007E
3F00FC
3F00FC
1F81F8
1F81F8
0FC1F0
0FC3F0
07C3E0
07E7E0
03E7C0
03FFC0
01FF80
01FF80
00FF00
00FF00
007E00
007E00
007E00
007E00
007E00
007E00
007E00
007E00
007E00
007E00
007E00
ENDCHAR
STARTCHAR 0179
ENCODING 377
SWIDTH 591 0
DWIDTH 23 0
BBX 21 35 1 0
BITMAP
000FC0
001F80
003F00
003E00
007C00
007800
000000
FFFFF8
FFFFF8
FFFFF8
FFFFF8
FFFFF8
0003F0
0007E0
000FC0
000FC0
001F80
003F00
003F00
007E00
00FC00
01FC00
01F800
03F000
07F000
07E000
0FC000
1FC000
1F8000
3F0000
7E0000
7FFFF8
FFFFF8
FFFFF8
FFFFF8
ENDCHAR
STARTCHAR 017A
ENCODING 378
SWIDTH 488 0
DWIDTH 19 0
BBX 17 29 1 0
BITMAP
003E00
007E00
00FC00
00F800
01F000
03E000
000000
000000
7FFF80
7FFF80
7FFF80
7FFF80
7FFF80
003F00
007E00
00FC00
01FC00
01F800
03F000
07E000
0FC000
0FC000
1F8000
3F0000
7E0000
7FFF80
FFFF80
FFFF80
FFFF80
ENDCHAR
STARTCHAR 017B
ENCODING 379
SWIDTH 591 0
DWIDTH 23 0
BBX 21 35 1 0
BITMAP
007000
00F800
00FC00
00FC00
007800
000000
000000
FFFFF8
FFFFF8
FFFFF8
FFFFF8
FFFFF8
0003F0
0007E0
000FC0
000FC0
001F80
003F00
003F00
007E00
00FC00
01FC00
01F800
03F000
07F000
07E000
0FC000
1FC000
1F8000
3F0000
7E0000
7FFFF8
FFFFF8
FFFFF8
FFFFF8
ENDCHAR
STARTCHAR 017C
ENCODING 380
SWIDTH 488 0
DWIDTH 19 0
BBX 17 29 1 0
BITMAP
01E000
03E000
03F000
03F000
01E000
000000
000000
000000
7FFF80
7FFF80
7FFF80
7FFF80
7FFF80
003F00
007E00
00FC00
01FC00
01F800
03F000
07E000
0FC000
0FC000
1F8000
3F0000
7E0000
7FFF80
FFFF80
FFFF80
FFFF80
ENDCHAR
STARTCHAR 017D
ENCODING 381
SWIDTH 591 0
DWIDTH 23 0
BBX 21 35 1 0
BITMAP
0F87C0
07CF80
03FF00
01FE00
00FC00
000000
000000
FFFFF8
FFFFF8
FFFFF8
FFFFF8
FFFFF8
0003F0
0007E0
000FC0
000FC0
001F80
003F00
003F00
007E00
00FC00
01FC00
01F800
03F000
07F000
07E000
0FC000
1FC000
1F8000
3F0000
7E0000
7FFFF8
FFFFF8
FFFFF8
FFFFF8
ENDCHAR
STARTCHAR 017E
ENCODING 382
SWIDTH 488 0
DWIDTH 19 0
BBX 17 29 1 0
BITMAP
3E1F00
1F3E00
0FFC00
07F800
03F000
000000
000000
000000
7FFF80
7FFF80
7FFF80
7FFF80
7FFF80
003F00
007E00
00FC00
01FC00
01F800
03F000
07E000
0FC000
0FC000
1F8000
3F0000
7E0000
7FFF80
FFFF80
FFFF80
FFFF80
ENDCHAR
STARTCHAR 017F
ENCODING 383
SWIDTH 257 0
DWIDTH 10 0
BBX 11 30 2 0
BITMAP
0180
1FE0
3FE0
7FE0
7FC0
FC00
FC00
FC00
FC00
FC00
FC00
FC00
FC00
FC00
FC00
FC00
FC00
FC00
FC00
FC00
FC00
FC00
FC00
FC00
FC00
FC00
FC00
FC00
FC00
FC00
ENDCHAR
STARTCHAR 018F
ENCODING 399
SWIDTH 694 0
DWIDTH 27 0
BBX 24 28 1 0
BITMAP
03FF00
1FFFC0
1FFFF0
1FFFF8
1FFFFC
1801FC
0000FE
00007E
00003F
00003F
00003F
00003F
FFFFFF
FFFFFF
FFFFFF
FFFFFF
FFFFFF
7C003F
7C003F
7C003F
7E007E
7E007E
3F00FE
3FF7FC
1FFFF8
0FFFF0
07FFE0
01FF80
ENDCHAR
STARTCHAR 0192
ENCODING 402
SWIDTH 360 0
DWIDTH 14 0
BBX 15 38 -1 -8
BITMAP
0018
00FE
03FE
03FE
07FE
07E0
07C0
07C0
07C0
7FFC
7FFC
7FFC
7FFC
07C0
07C0
07C0
07C0
07C0
07C0
07C0
07C0
07C0
07C0
07C0
07C0
07C0
07C0
07C0
07C0
07C0
07C0
0FC0
0FC0
0FC0
FF80
FF80
FF00
FE00
ENDCHAR
STARTCHAR 01A0
ENCODING 416
SWIDTH 694 0
DWIDTH 27 0
BBX 26 30 2 0
BITMAP
000003C0
000003C0
00FE03C0
07FF83C0
0FFFE780
1FFFFF80
3FFFFF00
7F03FE00
7E00FC00
7C00FC00
FC007C00
FC007E00
FC007E00
F8007E00
F8007E00
F8007E00
F8007E00
F8007E00
F8007E00
F8007E00
FC007E00
FC007E00
FC00FC00
7E00FC00
7F01F800
3F87F800
1FFFF000
0FFFE000
07FFC000
01FF0000
ENDCHAR
STARTCHAR 01A1
ENCODING 417
SWIDTH 565 0
DWIDTH 22 0
BBX 22 23 1 0
BITMAP
00001C
00001C
01F83C
07FE3C
1FFFB8
3FFFF8
3F9FF0
7E07E0
7E07E0
7C03E0
FC03F0
FC03F0
FC03F0
FC03F0
FC03F0
FC03E0
7C03E0
7E07E0
7F0FC0
3FFFC0
1FFF80
0FFF00
03FC00
ENDCHAR
STARTCHAR 01AF
ENCODING 431
SWIDTH 694 0
DWIDTH 27 0
BBX 29 29 2 0
BITMAP
00000078
FC00F878
FC00F878
FC00F870
FC00F8F0
FC00FBF0
FC00FFE0
FC00FFC0
FC00FC00
FC00F800
FC00F800
FC00F800
FC00F800
FC00F800
FC00F800
FC00F800
FC00F800
FC00F800
FC00F800
FC00F800
FC00F800
FC00F800
7C01F800
7E01F800
7F87F000
3FFFF000
1FFFE000
0FFFC000
03FF0000
ENDCHAR
STARTCHAR 01B0
ENCODING 432
SWIDTH 591 0
DWIDTH 23 0
BBX 23 22 2 0
BITMAP
00000E
F80FCE
F80FCE
F80FDE
F80FFC
F80FF8
F80FE0
F80FC0
F80FC0
F80FC0
F80FC0
F80FC0
F80FC0
F80FC0
F80FC0
F80FC0
FC0FC0
FC1FC0
7FFFC0
7FFFC0
3FF7C0
1FC7C0
ENDCHAR
STARTCHAR 01F0
ENCODING 496
SWIDTH 257 0
DWIDTH 10 0
BBX 15 37 -2 -8
BITMAP
F83E
7C7C
3EF8
1FE0
0FC0
0780
0000
0000
07C0
07C0
07C0
07C0
07C0
07C0
07C0
07C0
07C0
07C0
07C0
07C0
07C0
07C0
07C0
07C0
07C0
07C0
07C0
07C0
07C0
07C0
07C0
07C0
0FC0
7FC0
FF80
FF00
FE00
ENDCHAR
STARTCHAR 01FA
ENCODING 506
SWIDTH 668 0
DWIDTH 26 0
BBX 26 38 0 0
BITMAP
0001F000
0003E000
00078000
000F0000
00000000
001E0000
003F0000
00718000
00618000
00738000
003F0000
003F0000
003F8000
007F8000
007F8000
00FFC000
00FFC000
00FFC000
01FBE000
01F3E000
01F3F000
03F1F000
03E1F000
03E1F800
07E0F800
07C0F800
0FC0FC00
0FC0FC00
0FFFFC00
1FFFFE00
1FFFFE00
1FFFFF00
3F003F00
3F003F00
7E001F80
7E001F80
7E001F80
FC000FC0
ENDCHAR
STARTCHAR 01FB
ENCODING 507
SWIDTH 514 0
DWIDTH 20 0
BBX 18 32 1 0
BITMAP
001F00
003E00
007800
00F000
000000
01F000
03F800
031800
031800
033800
03F000
03F800
0FFE00
1FFF00
3FFF80
7E1F80
7C0FC0
7C0FC0
000FC0
007FC0
0FFFC0
3FFFC0
7FFFC0
7E0FC0
FC0FC0
FC0FC0
FC0FC0
FC1FC0
7FFFC0
7FFFC0
3FF7C0
1FE7C0
ENDCHAR
STARTCHAR 01FC
ENCODING 508
SWIDTH 925 0
DWIDTH 36 0
BBX 35 35 0 0
BITMAP
00003F0000
00003E0000
00007C0000
0000F80000
0000F80000
0001F00000
0000000000
0001FFFFC0
0003FFFFC0
0003FFFFC0
0007FFFFC0
0007FFFFC0
000FFE0000
000FFE0000
001FBE0000
001F3E0000
003F3E0000
007E3E0000
007E3E0000
00FC3FFF80
00FC3FFF80
01F83FFF80
01F83FFF80
03F03E0000
03FFFE0000
07FFFE0000
07FFFF0000
0FFFFF0000
0FFFFF0000
1F803F0000
1F803F0000
3F003FFFE0
7F003FFFE0
7E003FFFE0
FE003FFFE0
ENDCHAR
STARTCHAR 01FD
ENCODING 509
SWIDTH 822 0
DWIDTH 32 0
BBX 31 29 1 0
BITMAP
0000FC00
0001F800
0001F000
0003E000
0003C000
00078000
00000000
00000000
01F81F80
0FFE7FE0
1FFFFFF8
3FFFFFF8
7FBFFDFC
7E0FE07C
7C07E07E
0007C07E
0007C07E
0FFFFFFE
3FFFFFFE
7FFFFFFE
7F07C000
FC07C000
FC07E000
FC07E000
FC0FF818
7FFFFFFC
7FFFFFFC
3FFCFFFC
0FF83FF0
ENDCHAR
STARTCHAR 01FE
ENCODING 510
SWIDTH 668 0
DWIDTH 26 0
BBX 23 38 2 -2
BITMAP
000FC0
001F80
001F00
003E00
003C00
004000
000000
00001C
00FE3C
03FFF8
0FFFF0
1FFFF0
3FFFF8
3F01F8
7E01FC
7E03FC
FC07FE
FC077E
FC0F7E
FC0E7E
FC1E3E
FC3C3E
FC383E
FC783E
FC707E
FCF07E
FDE07E
FDC07E
7FC07C
7F80FC
7F81FC
3FC3F8
1FFFF0
1FFFE0
1FFFC0
3DFF00
380000
780000
ENDCHAR
STARTCHAR 01FF
ENCODING 511
SWIDTH 540 0
DWIDTH 21 0
BBX 20 32 1 -3
BITMAP
003F00
007E00
007C00
00F800
01F000
01E000
0001C0
000380
01FB80
07FF00
1FFF80
3FFFC0
3F9FC0
7E1FE0
7E1FE0
7C3BE0
FC3BF0
FC73F0
FC73F0
FCE3F0
FCE3F0
FDC3E0
7DC3E0
7F87E0
7F8FC0
3FFFC0
1FFF80
0FFF00
0FFC00
1C0000
1C0000
380000
ENDCHAR
STARTCHAR 0218
ENCODING 536
SWIDTH 591 0
DWIDTH 23 0
BBX 22 38 1 -10
BITMAP
01FE00
07FFC0
0FFFE0
1FFFF0
3FC7F8
7F01F8
7E01F8
7E00F8
7E0000
7F0000
3F8000
3FE000
1FFC00
0FFF80
03FFC0
00FFE0
001FF0
0003F8
0001F8
FC00F8
FC00FC
7C00FC
7E01F8
7F83F8
3FFFF8
1FFFF0
0FFFE0
03FF80
000000
000000
007800
007800
007800
007800
007800
00F000
00F000
002000
ENDCHAR
STARTCHAR 0219
ENCODING 537
SWIDTH 488 0
DWIDTH 19 0
BBX 18 31 1 -10
BITMAP
03F000
1FFE00
3FFF00
7FFF80
7E1F80
7C0F80
7C0F80
7E0000
7F8000
3FF800
1FFE00
0FFF00
01FF80
001F80
F80FC0
F80FC0
FC0F80
7FBF80
3FFF00
1FFE00
0FFC00
000000
000000
01E000
01E000
01E000
01E000
01C000
03C000
038000
018000
ENDCHAR
STARTCHAR 021A
ENCODING 538
SWIDTH 617 0
DWIDTH 24 0
BBX 22 37 1 -10
BITMAP
FFFFFC
FFFFFC
FFFFFC
FFFFFC
FFFFFC
00FC00
00FC00
00FC00
00FC00
00FC00
00FC00
00FC00
00FC00
00FC00
00FC00
00FC00
00FC00
00FC00
00FC00
00FC00
00FC00
00FC00
00FC00
00FC00
00FC00
00FC00
00FC00
00FC00
000000
000000
007800
007800
007800
007800
00F000
00F000
00E000
ENDCHAR
STARTCHAR 021B
ENCODING 539
SWIDTH 334 0
DWIDTH 13 0
BBX 12 36 0 -10
BITMAP
1F80
1F80
1F80
1F80
1F80
FFF0
FFF0
FFF0
FFF0
1F80
1F80
1F80
1F80
1F80
1F80
1F80
1F80
1F80
1F80
1F80
1F80
1F80
1FF0
0FF0
0FF0
07F0
0000
0000
03C0
03C0
03C0
03C0
03C0
0780
0780
0100
ENDCHAR
STARTCHAR 0237
ENCODING 567
SWIDTH 257 0
DWIDTH 10 0
BBX 10 29 -2 -8
BITMAP
07C0
07C0
07C0
07C0
07C0
07C0
07C0
07C0
07C0
07C0
07C0
07C0
07C0
07C0
07C0
07C0
07C0
07C0
07C0
07C0
07C0
07C0
07C0
07C0
0FC0
7FC0
FF80
FF00
FE00
ENDCHAR
STARTCHAR 0259
ENCODING 601
SWIDTH 514 0
DWIDTH 20 0
BBX 18 21 1 0
BITMAP
07F000
3FFC00
7FFE00
7FFF00
3E7F80
201FC0
000FC0
0007C0
0007C0
FFFFC0
FFFFC0
FFFFC0
FFFFC0
7C07C0
7C0FC0
7C0FC0
7E1F80
3FFF80
3FFF00
1FFE00
07F800
ENDCHAR
STARTCHAR 02BC
ENCODING 700
SWIDTH 205 0
DWIDTH 8 0
BBX 5 10 2 19
BITMAP
78
78
78
78
78
F8
F0
F0
E0
40
ENDCHAR
STARTCHAR 02C6
ENCODING 710
SWIDTH 488 0
DWIDTH 19 0
BBX 13 5 3 24
BITMAP
0F80
1FC0
3FE0
7CF0
F078
ENDCHAR
STARTCHAR 02C7
ENCODING 711
SWIDTH 462 0
DWIDTH 18 0
BBX 14 5 2 24
BITMAP
F87C
7CF8
3FF0
1FE0
0FC0
ENDCHAR
STARTCHAR 02C9
ENCODING 713
SWIDTH 488 0
DWIDTH 19 0
BBX 13 3 3 25
BITMAP
FFF8
FFF8
FFF8
ENDCHAR
STARTCHAR 02D8
ENCODING 728
SWIDTH 437 0
DWIDTH 17 0
BBX 13 6 2 23
BITMAP
F078
F078
7DF8
7FF0
3FE0
0300
ENDCHAR
STARTCHAR 02D9
ENCODING 729
SWIDTH 257 0
DWIDTH 10 0
BBX 6 5 2 24
BITMAP
30
78
FC
FC
78
ENDCHAR
STARTCHAR 02DA
ENCODING 730
SWIDTH 308 0
DWIDTH 12 0
BBX 9 8 2 21
BITMAP
3E00
7F00
E300
C180
E380
6700
3E00
0800
ENDCHAR
STARTCHAR 02DB
ENCODING 731
SWIDTH 282 0
DWIDTH 11 0
BBX 7 9 1 -8
BITMAP
18
7C
F8
F0
F0
FA
FE
FE
3C
ENDCHAR
STARTCHAR 02DC
ENCODING 732
SWIDTH 462 0
DWIDTH 18 0
BBX 14 5 2 24
BITMAP
1C1C
7F3C
7FFC
FFF8
E0F0
ENDCHAR
STARTCHAR 02DD
ENCODING 733
SWIDTH 411 0
DWIDTH 16 0
BBX 15 6 1 23
BITMAP
1F1E
1E3E
3C7C
7CF8
78F0
F1E0
ENDCHAR
STARTCHAR 02F3
ENCODING 755
SWIDTH 308 0
DWIDTH 12 0
BBX 7 7 3 -8
BITMAP
38
FC
CE
C6
EE
7C
10
ENDCHAR
STARTCHAR 0300
ENCODING 768
SWIDTH 0 0
DWIDTH 0 0
BBX 9 6 -16 23
BITMAP
F800
FC00
7E00
3E00
1F00
0F80
ENDCHAR
STARTCHAR 0301
ENCODING 769
SWIDTH 0 0
DWIDTH 0 0
BBX 9 6 -13 23
BITMAP
1F80
1F00
3E00
7C00
7C00
F800
ENDCHAR
STARTCHAR 0303
ENCODING 771
SWIDTH 0 0
DWIDTH 0 0
BBX 15 5 -18 24
BITMAP
1C1E
3FBE
7FFC
7BFC
F0F8
ENDCHAR
STARTCHAR 0309
ENCODING 777
SWIDTH 0 0
DWIDTH 0 0
BBX 7 8 -14 24
BITMAP
C0
FC
FE
3E
1E
FE
F8
F0
ENDCHAR
STARTCHAR 030F
ENCODING 783
SWIDTH 0 0
DWIDTH 0 0
BBX 15 5 -19 24
BITMAP
F9F0
7CF8
3E7C
1F3C
0F9E
ENDCHAR
STARTCHAR 0323
ENCODING 803
SWIDTH 0 0
DWIDTH 0 0
BBX 6 5 -14 -7
BITMAP
78
FC
FC
F8
78
ENDCHAR
STARTCHAR 0384
ENCODING 900
SWIDTH 334 0
DWIDTH 13 0
BBX 6 6 4 24
BITMAP
7C
7C
78
78
70
F0
ENDCHAR
STARTCHAR 0385
ENCODING 901
SWIDTH 540 0
DWIDTH 21 0
BBX 17 9 2 24
BITMAP
00F000
01F000
01E000
01E000
01C000
79CF00
F80F80
F80F80
780F00
ENDCHAR
STARTCHAR 0386
ENCODING 902
SWIDTH 668 0
DWIDTH 26 0
BBX 26 30 0 0
BITMAP
3E000000
3E000000
3C3F0000
3C3F0000
383F8000
787F8000
007F8000
00FFC000
00FFC000
00FFC000
01FBE000
01F3E000
01F3F000
03F1F000
03E1F000
03E1F800
07E0F800
07C0F800
0FC0FC00
0FC0FC00
0FFFFC00
1FFFFE00
1FFFFE00
1FFFFF00
3F003F00
3F003F00
7E001F80
7E001F80
7E001F80
FC000FC0
ENDCHAR
STARTCHAR 0387
ENCODING 903
SWIDTH 282 0
DWIDTH 11 0
BBX 6 6 3 10
BITMAP
78
FC
FC
FC
F8
30
ENDCHAR
STARTCHAR 0388
ENCODING 904
SWIDTH 591 0
DWIDTH 23 0
BBX 28 30 -5 0
BITMAP
7C000000
7C000000
787FFFF0
787FFFF0
707FFFF0
F07FFFF0
007FFFF0
007E0000
007E0000
007E0000
007E0000
007E0000
007E0000
007E0000
007FFFC0
007FFFC0
007FFFC0
007FFFC0
007E0000
007E0000
007E0000
007E0000
007E0000
007E0000
007E0000
007E0000
007FFFF0
007FFFF0
007FFFF0
007FFFF0
ENDCHAR
STARTCHAR 0389
ENCODING 905
SWIDTH 745 0
DWIDTH 29 0
BBX 32 30 -5 0
BITMAP
7C000000
7C000000
787E003F
787E003F
707E003F
F07E003F
007E003F
007E003F
007E003F
007E003F
007E003F
007E003F
007E003F
007E003F
007FFFFF
007FFFFF
007FFFFF
007FFFFF
007E003F
007E003F
007E003F
007E003F
007E003F
007E003F
007E003F
007E003F
007E003F
007E003F
007E003F
007E003F
ENDCHAR
STARTCHAR 038A
ENCODING 906
SWIDTH 334 0
DWIDTH 13 0
BBX 15 30 -5 0
BITMAP
7C00
7C00
783E
783E
703E
F03E
003E
003E
003E
003E
003E
003E
003E
003E
003E
003E
003E
003E
003E
003E
003E
003E
003E
003E
003E
003E
003E
003E
003E
003E
ENDCHAR
STARTCHAR 038C
ENCODING 908
SWIDTH 694 0
DWIDTH 27 0
BBX 28 30 -2 0
BITMAP
78000000
F8000000
F00FE000
F03FFC00
F0FFFE00
E1FFFF00
01FFFF80
03F81FC0
07F00FC0
07E007E0
07C007E0
0FC007E0
0FC003E0
0FC003E0
0FC003F0
0FC003F0
0FC003F0
0FC003F0
0FC003F0
0FC003E0
0FC007E0
07C007E0
07E007E0
07E00FC0
03F01FC0
03FC3F80
01FFFF80
00FFFF00
007FFC00
001FF000
ENDCHAR
STARTCHAR 038E
ENCODING 910
SWIDTH 642 0
DWIDTH 25 0
BBX 30 30 -4 0
BITMAP
78000000
78000000
FBF000FC
F1F801F8
F1F801F8
E0FC03F0
00FC03F0
007E07E0
007E07E0
003E0FC0
003F0FC0
001F0F80
001F9F80
000F9F00
000FFF00
0007FE00
0007FE00
0003FC00
0003FC00
0001F800
0001F800
0001F800
0001F800
0001F800
0001F800
0001F800
0001F800
0001F800
0001F800
0001F800
ENDCHAR
STARTCHAR 038F
ENCODING 911
SWIDTH 668 0
DWIDTH 26 0
BBX 26 30 -2 0
BITMAP
7C000000
78000000
780FE000
F03FF800
F0FFFC00
E1FFFE00
03FFFF00
03F83F80
07F01F80
07E01FC0
07E00FC0
0FE00FC0
0FE00FC0
0FE00FC0
0FE00FC0
0FE00FC0
0FE00FC0
0FE00FC0
07E00FC0
07E00FC0
07E01F80
03E01F80
03F01F00
01F03F00
00F83E00
007CFC00
07FCFFC0
07FCFFC0
07FCFFC0
07FCFFC0
ENDCHAR
STARTCHAR 0390
ENCODING 912
SWIDTH 334 0
DWIDTH 13 0
BBX 17 33 -3 0
BITMAP
00F800
00F000
00F000
00E000
01E000
71C700
F80F80
FC0F80
780F80
300700
000000
000000
03E000
03E000
03E000
03E000
03E000
03E000
03E000
03E000
03E000
03E000
03E000
03E000
03E000
03E000
03E000
03E000
03F000
03FE00
03FE00
01FE00
00FE00
ENDCHAR
STARTCHAR 0391
ENCODING 913
SWIDTH 668 0
DWIDTH 26 0
BBX 26 28 0 0
BITMAP
003F0000
003F0000
003F8000
007F8000
007F8000
00FFC000
00FFC000
00FFC000
01FBE000
01F3E000
01F3F000
03F1F000
03E1F000
03E1F800
07E0F800
07C0F800
0FC0FC00
0FC0FC00
0FFFFC00
1FFFFE00
1FFFFE00
1FFFFF00
3F003F00
3F003F00
7E001F80
7E001F80
7E001F80
FC000FC0
ENDCHAR
STARTCHAR 0392
ENCODING 914
SWIDTH 617 0
DWIDTH 24 0
BBX 21 28 2 0
BITMAP
FFF000
FFFF00
FFFFC0
FFFFE0
FFFFF0
FC07F0
FC03F0
FC01F0
FC01F0
FC01F0
FC03F0
FC07E0
FFFFE0
FFFF80
FFFFC0
FFFFE0
FC03F0
FC01F8
FC01F8
FC01F8
FC01F8
FC01F8
FC03F8
FC1FF0
FFFFF0
FFFFE0
FFFFC0
FFFE00
ENDCHAR
STARTCHAR 0393
ENCODING 915
SWIDTH 540 0
DWIDTH 21 0
BBX 19 28 2 0
BITMAP
FFFFE0
FFFFE0
FFFFE0
FFFFE0
FFFFE0
FC0000
FC0000
FC0000
FC0000
FC0000
FC0000
FC0000
FC0000
FC0000
FC0000
FC0000
FC0000
FC0000
FC0000
FC0000
FC0000
FC0000
FC0000
FC0000
FC0000
FC0000
FC0000
FC0000
ENDCHAR
STARTCHAR 0394
ENCODING 916
SWIDTH 720 0
DWIDTH 28 0
BBX 27 28 1 0
BITMAP
003F0000
003F8000
003F8000
007FC000
007FC000
00FFC000
00FFE000
00FBE000
01FBF000
01F3F000
03F1F000
03F1F800
03E1F800
07E0FC00
07E0FC00
0FC07C00
0FC07E00
0F807E00
1F803F00
1F803F00
3F003F00
3F001F80
3E001F80
7E000F80
7FFFFFC0
FFFFFFC0
FFFFFFE0
FFFFFFE0
ENDCHAR
STARTCHAR 0395
ENCODING 917
SWIDTH 540 0
DWIDTH 21 0
BBX 19 28 2 0
BITMAP
FFFFE0
FFFFE0
FFFFE0
FFFFE0
FFFFE0
FC0000
FC0000
FC0000
FC0000
FC0000
FC0000
FC0000
FFFF80
FFFF80
FFFF80
FFFF80
FC0000
FC0000
FC0000
FC0000
FC0000
FC0000
FC0000
FC0000
FFFFE0
FFFFE0
FFFFE0
FFFFE0
ENDCHAR
STARTCHAR 0396
ENCODING 918
SWIDTH 591 0
DWIDTH 23 0
BBX 21 28 1 0
BITMAP
FFFFF8
FFFFF8
FFFFF8
FFFFF8
FFFFF8
0003F0
0007E0
000FC0
000FC0
001F80
003F00
003F00
007E00
00FC00
01FC00
01F800
03F000
07F000
07E000
0FC000
1FC000
1F8000
3F0000
7E0000
7FFFF8
FFFFF8
FFFFF8
FFFFF8
ENDCHAR
STARTCHAR 0397
ENCODING 919
SWIDTH 694 0
DWIDTH 27 0
BBX 23 28 2 0
BITMAP
FC007E
FC007E
FC007E
FC007E
FC007E
FC007E
FC007E
FC007E
FC007E
FC007E
FC007E
FC007E
FFFFFE
FFFFFE
FFFFFE
FFFFFE
FC007E
FC007E
FC007E
FC007E
FC007E
FC007E
FC007E
FC007E
FC007E
FC007E
FC007E
FC007E
ENDCHAR
STARTCHAR 0398
ENCODING 920
SWIDTH 668 0
DWIDTH 26 0
BBX 23 28 2 0
BITMAP
00FE00
07FF80
0FFFE0
1FFFF0
3FFFF8
7F01F8
7E00FC
7C00FC
FC007C
FC007E
FC007E
F8007E
F8FE7E
F8FE7E
F8FE7E
F8FE7E
F8007E
F8007E
FC007E
FC007E
FC00FC
7E00FC
7F01F8
3F87F8
1FFFF0
0FFFE0
07FFC0
01FF00
ENDCHAR
STARTCHAR 0399
ENCODING 921
SWIDTH 282 0
DWIDTH 11 0
BBX 6 28 3 0
BITMAP
FC
FC
FC
FC
FC
FC
FC
FC
FC
FC
FC
FC
FC
FC
FC
FC
FC
FC
FC
FC
FC
FC
FC
FC
FC
FC
FC
FC
ENDCHAR
STARTCHAR 039A
ENCODING 922
SWIDTH 617 0
DWIDTH 24 0
BBX 23 28 2 0
BITMAP
FC00FE
FC01FC
FC03F8
FC07F0
FC07E0
FC0FE0
FC1FC0
FC3F80
FC7F00
FC7E00
FCFE00
FDFC00
FDF800
FFF800
FFFC00
FFFE00
FFFE00
FFBF00
FF3F80
FE1F80
FC1FC0
FC0FE0
FC07E0
FC07F0
FC03F8
FC01F8
FC01FC
FC00FE
ENDCHAR
STARTCHAR 039B
ENCODING 923
SWIDTH 642 0
DWIDTH 25 0
BBX 25 28 0 0
BITMAP
003F0000
007F0000
007F0000
007F8000
00FF8000
00FF8000
00FFC000
01FFC000
01F7C000
01F7E000
03F7E000
03E3E000
03E3F000
07E3F000
07E1F000
0FC1F800
0FC1F800
0FC1F800
1F80FC00
1F80FC00
1F80FC00
3F007E00
3F007E00
3F007E00
7F003F00
7E003F00
7E003F00
FE003F80
ENDCHAR
STARTCHAR 039C
ENCODING 924
SWIDTH 874 0
DWIDTH 34 0
BBX 30 28 2 0
BITMAP
FF0003FC
FF0003FC
FF8007FC
FF8007FC
FF8007FC
FFC00FFC
FFC00FFC
FFC00FFC
FFE01FFC
FFE01FFC
FDE01EFC
FDF03EFC
FDF03EFC
FCF87CFC
FCF87CFC
FC7878FC
FC7CF8FC
FC7CF8FC
FC3CF0FC
FC3FF0FC
FC3FF0FC
FC1FE0FC
FC1FE0FC
FC1FE0FC
FC0FC0FC
FC0FC0FC
FC0780FC
FC0780FC
ENDCHAR
STARTCHAR 039D
ENCODING 925
SWIDTH 694 0
DWIDTH 27 0
BBX 23 28 2 0
BITMAP
FC007E
FE007E
FE007E
FF007E
FF807E
FF807E
FFC07E
FFC07E
FFE07E
FFF07E
FDF07E
FDF87E
FCF87E
FC7C7E
FC7E7E
FC3E7E
FC3F7E
FC1F7E
FC0FFE
FC0FFE
FC07FE
FC07FE
FC03FE
FC01FE
FC01FE
FC00FE
FC00FE
FC007E
ENDCHAR
STARTCHAR 039E
ENCODING 926
SWIDTH 565 0
DWIDTH 22 0
BBX 19 28 2 0
BITMAP
FFFFC0
FFFFC0
FFFFC0
FFFFC0
FFFFC0
000000
000000
000000
000000
000000
000000
000000
3FFF00
3FFF00
3FFF00
3FFF00
000000
000000
000000
000000
000000
000000
000000
000000
FFFFE0
FFFFE0
FFFFE0
FFFFE0
ENDCHAR
STARTCHAR 039F
ENCODING 927
SWIDTH 668 0
DWIDTH 26 0
BBX 23 28 2 0
BITMAP
00FE00
07FF80
0FFFE0
1FFFF0
3FFFF8
3F01F8
7E00FC
7E00FC
FC007E
FC007E
FC007E
F8007E
F8007E
F8007E
F8007E
F8007E
F8007E
FC007E
FC007E
FC007E
FC00FC
7E00FC
7F01F8
3F87F8
1FFFF0
0FFFE0
07FFC0
01FF00
ENDCHAR
STARTCHAR 03A0
ENCODING 928
SWIDTH 694 0
DWIDTH 27 0
BBX 23 28 2 0
BITMAP
FFFFFE
FFFFFE
FFFFFE
FFFFFE
FFFFFE
FC007E
FC007E
FC007E
FC007E
FC007E
FC007E
FC007E
FC007E
FC007E
FC007E
FC007E
FC007E
FC007E
FC007E
FC007E
FC007E
FC007E
FC007E
FC007E
FC007E
FC007E
FC007E
FC007E
ENDCHAR
STARTCHAR 03A1
ENCODING 929
SWIDTH 642 0
DWIDTH 25 0
BBX 22 28 2 0
BITMAP
FFFC00
FFFF80
FFFFC0
FFFFE0
FFFFF0
FC03F8
FC01F8
FC00F8
FC00FC
FC00FC
FC00FC
FC01F8
FC01F8
FC07F8
FFFFF0
FFFFE0
FFFFC0
FFFF00
FC0000
FC0000
FC0000
FC0000
FC0000
FC0000
FC0000
FC0000
FC0000
FC0000
ENDCHAR
STARTCHAR 03A3
ENCODING 931
SWIDTH 565 0
DWIDTH 22 0
BBX 20 28 1 0
BITMAP
FFFFF0
FFFFF0
FFFFF0
7FFFF0
7FFFF0
3F8000
1F8000
0FC000
0FE000
07F000
03F000
01F800
00FC00
00FC00
00FE00
00FC00
01F800
03F000
07F000
07E000
0FC000
1FC000
3F8000
3F0000
7FFFF0
FFFFF0
FFFFF0
FFFFF0
ENDCHAR
STARTCHAR 03A4
ENCODING 932
SWIDTH 617 0
DWIDTH 24 0
BBX 22 28 1 0
BITMAP
FFFFFC
FFFFFC
FFFFFC
FFFFFC
FFFFFC
00FC00
00FC00
00FC00
00FC00
00FC00
00FC00
00FC00
00FC00
00FC00
00FC00
00FC00
00FC00
00FC00
00FC00
00FC00
00FC00
00FC00
00FC00
00FC00
00FC00
00FC00
00FC00
00FC00
ENDCHAR
STARTCHAR 03A5
ENCODING 933
SWIDTH 617 0
DWIDTH 24 0
BBX 24 28 0 0
BITMAP
FC003F
7E007E
7E007E
3F00FC
3F00FC
1F81F8
1F81F8
0FC1F0
0FC3F0
07C3E0
07E7E0
03E7C0
03FFC0
01FF80
01FF80
00FF00
00FF00
007E00
007E00
007E00
007E00
007E00
007E00
007E00
007E00
007E00
007E00
007E00
ENDCHAR
STARTCHAR 03A6
ENCODING 934
SWIDTH 771 0
DWIDTH 30 0
BBX 28 28 1 0
BITMAP
001F8000
001F8000
001F8000
001F8000
01FFF800
07FFFE00
0FFFFF80
1FFFFFC0
3FDFFFC0
7F1F8FE0
7E1F87E0
7C1F83F0
7C1F83F0
FC1F83F0
FC1F83F0
FC1F83F0
7C1F83F0
7E1F87E0
7E1F87E0
3F9F9FE0
3FFFFFC0
1FFFFF80
0FFFFF00
03FFFC00
007FF000
001F8000
001F8000
001F8000
ENDCHAR
STARTCHAR 03A7
ENCODING 935
SWIDTH 617 0
DWIDTH 24 0
BBX 23 28 1 0
BITMAP
FC00FE
FE00FC
7E01FC
7F01F8
3F03F8
1F83F0
1F87E0
0FC7E0
0FEFC0
07EFC0
03FF80
03FF80
01FF00
01FE00
01FE00
01FF00
03FF00
03FF80
07EFC0
0FEFC0
0FC7E0
1FC7E0
1F83F0
3F03F8
7F01F8
7E01FC
FE00FC
FC00FE
ENDCHAR
STARTCHAR 03A8
ENCODING 936
SWIDTH 720 0
DWIDTH 28 0
BBX 26 28 1 0
BITMAP
FC3F07C0
FC3F07C0
FC3F07C0
FC3F07C0
FC3F07C0
FC3F07C0
FC3F07C0
FC3F07C0
FC3F07C0
FC3F07C0
FC3F07C0
FC3F0FC0
FC3F0FC0
7E3F0FC0
7E3F1F80
3FBF3F80
3FFFFF00
1FFFFE00
0FFFFC00
03FFF000
007F0000
003F0000
003F0000
003F0000
003F0000
003F0000
003F0000
003F0000
ENDCHAR
STARTCHAR 03A9
ENCODING 937
SWIDTH 668 0
DWIDTH 26 0
BBX 22 28 2 0
BITMAP
01FC00
07FF80
0FFFC0
1FFFE0
3FFFF0
7F03F0
7E03F8
7E01F8
FE01FC
FC01FC
FC01FC
FC00FC
FC00FC
FC01FC
FC01FC
FC01FC
FC01F8
7E01F8
7E01F8
7E01F0
3E03F0
1F03E0
1F87C0
0FCF80
FFCFFC
FFCFFC
FFCFFC
FFCFFC
ENDCHAR
STARTCHAR 03AA
ENCODING 938
SWIDTH 282 0
DWIDTH 11 0
BBX 15 34 -2 0
BITMAP
783C
FC3E
FC3E
783C
0000
0000
07E0
07E0
07E0
07E0
07E0
07E0
07E0
07E0
07E0
07E0
07E0
07E0
07E0
07E0
07E0
07E0
07E0
07E0
07E0
07E0
07E0
07E0
07E0
07E0
07E0
07E0
07E0
07E0
ENDCHAR
STARTCHAR 03AB
ENCODING 939
SWIDTH 617 0
DWIDTH 24 0
BBX 24 34 0 0
BITMAP
0781E0
07C3E0
07C3E0
07C1E0
010080
000000
FC003F
7E007E
7E007E
3F00FC
3F00FC
1F81F8
1F81F8
0FC1F0
0FC3F0
07C3E0
07E7E0
03E7C0
03FFC0
01FF80
01FF80
00FF00
00FF00
007E00
007E00
007E00
007E00
007E00
007E00
007E00
007E00
007E00
007E00
007E00
ENDCHAR
STARTCHAR 03AC
ENCODING 940
SWIDTH 540 0
DWIDTH 21 0
BBX 21 30 1 0
BITMAP
003E00
003C00
003C00
007800
007800
007000
000000
000000
000000
03E3E0
0FF3E0
1FFFE0
3FFFE0
3FBFE0
7E0FE0
7E07E0
7C07E0
7C07E0
FC07E0
FC07E0
FC07E0
FC07E0
7C07E0
7C07E0
7E07E0
7F0FE0
3FFFF0
3FFFF8
1FFBF8
07F1F8
ENDCHAR
STARTCHAR 03AD
ENCODING 941
SWIDTH 540 0
DWIDTH 21 0
BBX 18 30 2 0
BITMAP
00F800
00F800
00F000
00F000
01E000
01E000
000000
000000
000000
03F000
1FFE00
3FFF00
7FFF80
FE1FC0
FC0FC0
FC0000
FC0000
7E0000
3FF800
1FF800
3FF800
7E0000
FC0000
F80000
F807C0
FC0FC0
FFFFC0
7FFF80
3FFF00
0FFC00
ENDCHAR
STARTCHAR 03AE
ENCODING 942
SWIDTH 540 0
DWIDTH 21 0
BBX 18 38 2 -8
BITMAP
00F800
00F000
00F000
00F000
01E000
01E000
000000
000000
000000
F87C00
F9FF00
FBFF80
FFFF80
FFBF80
FC0FC0
FC0FC0
FC0FC0
FC0FC0
FC0FC0
FC0FC0
FC0FC0
FC0FC0
FC0FC0
FC0FC0
FC0FC0
FC0FC0
FC0FC0
FC0FC0
FC0FC0
FC0FC0
000FC0
000FC0
000FC0
000FC0
000FC0
000FC0
000FC0
000FC0
ENDCHAR
STARTCHAR 03AF
ENCODING 943
SWIDTH 334 0
DWIDTH 13 0
BBX 9 30 3 0
BITMAP
3E00
3C00
7C00
7800
7800
7000
7000
0000
0000
F800
F800
F800
F800
F800
F800
F800
F800
F800
F800
F800
F800
F800
F800
F800
F800
FC00
FF80
FF80
7F80
3F80
ENDCHAR
STARTCHAR 03B0
ENCODING 944
SWIDTH 540 0
DWIDTH 21 0
BBX 18 33 2 0
BITMAP
00F800
00F000
00F000
00E000
01E000
79C780
7C0F80
FC0F80
780F80
300200
000000
000000
FC3F00
FC1F00
FC1F00
FC1F80
FC0F80
FC0F80
FC0F80
FC0FC0
FC0FC0
FC0FC0
FC0FC0
FC0FC0
FC0FC0
FC0F80
FC1F80
FC1F80
7E3F00
7FFF00
3FFE00
3FFC00
0FF800
ENDCHAR
STARTCHAR 03B1
ENCODING 945
SWIDTH 540 0
DWIDTH 21 0
BBX 21 21 1 0
BITMAP
03E3E0
0FF3E0
1FFFE0
3FFFE0
3FBFE0
7E0FE0
7E07E0
7C07E0
7C07E0
FC07E0
FC07E0
FC07E0
FC07E0
7C07E0
7C07E0
7E07E0
7F0FE0
3FFFF0
3FFFF8
1FFBF8
07F1F8
ENDCHAR
STARTCHAR 03B2
ENCODING 946
SWIDTH 591 0
DWIDTH 23 0
BBX 19 36 3 -8
BITMAP
03F800
1FFE00
3FFF00
7FFF80
7F3F80
FC0FC0
FC0FC0
F80FC0
F80FC0
F80F80
F80F80
F83F00
F8FE00
F8FE00
F8FF00
F8FF80
F80FC0
F807E0
F807E0
F803E0
F803E0
F807E0
F807E0
FC0FE0
FFFFC0
FFFF80
FFFF00
FBFE00
F80000
F80000
F80000
F80000
F80000
F80000
F80000
F80000
ENDCHAR
STARTCHAR 03B3
ENCODING 947
SWIDTH 488 0
DWIDTH 19 0
BBX 20 29 0 -8
BITMAP
FC03F0
7C03E0
7E07E0
7E07E0
3E07C0
3E0FC0
3F0FC0
1F0F80
1F0F80
1F9F80
0F9F00
0F9F00
0F9E00
07FE00
07FE00
07FC00
03FC00
03FC00
03F800
01F800
01F800
01F800
01F800
01F800
01F800
01F800
01F800
01F800
01F800
ENDCHAR
STARTCHAR 03B4
ENCODING 948
SWIDTH 540 0
DWIDTH 21 0
BBX 20 30 1 0
BITMAP
01FC00
07FE00
0FFE00
1FFE00
1F8600
1F0000
1F0000
1F8000
1FC000
0FF800
07FE00
03FF00
0FFF80
1F9FC0
3E0FE0
7E07E0
7C03E0
7C03F0
FC03F0
FC03F0
FC03F0
FC03F0
FC03F0
7C03E0
7E07E0
7F0FE0
3FFFC0
1FFF80
0FFF00
03FC00
ENDCHAR
STARTCHAR 03B5
ENCODING 949
SWIDTH 540 0
DWIDTH 21 0
BBX 18 21 2 0
BITMAP
03F000
1FFE00
3FFF00
7FFF80
FE1FC0
FC0FC0
FC0000
FC0000
7E0000
3FF800
1FF800
3FF800
7E0000
FC0000
F80000
F807C0
FC0FC0
FFFFC0
7FFF80
3FFF00
0FFC00
ENDCHAR
STARTCHAR 03B6
ENCODING 950
SWIDTH 488 0
DWIDTH 19 0
BBX 17 35 1 -7
BITMAP
FFFF80
FFFF80
FFFF80
FFFF80
FFFF00
003F00
007E00
00FC00
01F800
03F000
07E000
07E000
0FC000
1F8000
1F0000
3F0000
3E0000
3E0000
7E0000
7E0000
7E0000
7E0000
7E0000
3F8000
3FF000
1FFE00
0FFF00
01FF80
003F80
001F80
001F00
001F00
003E00
003E00
001C00
ENDCHAR
STARTCHAR 03B7
ENCODING 951
SWIDTH 540 0
DWIDTH 21 0
BBX 18 29 2 -8
BITMAP
F87C00
F9FF00
FBFF80
FFFF80
FFBF80
FC0FC0
FC0FC0
FC0FC0
FC0FC0
FC0FC0
FC0FC0
FC0FC0
FC0FC0
FC0FC0
FC0FC0
FC0FC0
FC0FC0
FC0FC0
FC0FC0
FC0FC0
FC0FC0
000FC0
000FC0
000FC0
000FC0
000FC0
000FC0
000FC0
000FC0
ENDCHAR
STARTCHAR 03B8
ENCODING 952
SWIDTH 565 0
DWIDTH 22 0
BBX 19 28 2 0
BITMAP
03F800
0FFE00
1FFF00
3FFF80
3F1F80
7E0FC0
7C07C0
7C07C0
FC07E0
FC07E0
FC07E0
FC07E0
FFFFE0
FFFFE0
FFFFE0
FFFFE0
FC07E0
FC07E0
FC07E0
FC07E0
7C07C0
7C07C0
7E0FC0
7F1FC0
3FFF80
1FFF00
0FFE00
07FC00
ENDCHAR
STARTCHAR 03B9
ENCODING 953
SWIDTH 334 0
DWIDTH 13 0
BBX 9 21 3 0
BITMAP
F800
F800
F800
F800
F800
F800
F800
F800
F800
F800
F800
F800
F800
F800
F800
F800
FC00
FF80
FF80
7F80
3F80
ENDCHAR
STARTCHAR 03BA
ENCODING 954
SWIDTH 565 0
DWIDTH 22 0
BBX 20 21 2 0
BITMAP
FC07F0
FC0FE0
FC0FC0
FC1FC0
FC3F80
FC3F00
FC7F00
FCFE00
FFFC00
FFF800
FFF800
FFFC00
FFFC00
FCFE00
FC7F00
FC3F00
FC3F80
FC1FC0
FC0FE0
FC0FE0
FC07F0
ENDCHAR
STARTCHAR 03BB
ENCODING 955
SWIDTH 540 0
DWIDTH 21 0
BBX 21 29 0 0
BITMAP
3F8000
3FC000
3FC000
3FE000
07E000
03F000
03F000
01F000
01F800
01F800
01FC00
03FC00
03FC00
03FE00
07FE00
07FF00
07FF00
0FDF00
0FDF80
0F9F80
1F8FC0
1F8FC0
3F0FC0
3F07E0
3F07E0
7E03F8
7E03F8
7E01F8
FC00F8
ENDCHAR
STARTCHAR 03BC
ENCODING 956
SWIDTH 617 0
DWIDTH 24 0
BBX 18 29 3 -8
BITMAP
F80FC0
F80FC0
F80FC0
F80FC0
F80FC0
F80FC0
F80FC0
F80FC0
F80FC0
F80FC0
F80FC0
F80FC0
F80FC0
F80FC0
F80FC0
FC0FC0
FC1FC0
FFFFC0
FFFFC0
FFFFC0
FFF7C0
F80000
F80000
F80000
F80000
F80000
F80000
F80000
F80000
ENDCHAR
STARTCHAR 03BD
ENCODING 957
SWIDTH 488 0
DWIDTH 19 0
BBX 19 21 0 0
BITMAP
FC03E0
7C07E0
7E07E0
7E07C0
3E07C0
3E0FC0
3F0F80
1F0F80
1F1F80
1F1F00
0F9F00
0F9F00
0FBE00
07FE00
07FE00
07FC00
03FC00
03FC00
03F800
01F800
01F800
ENDCHAR
STARTCHAR 03BE
ENCODING 958
SWIDTH 514 0
DWIDTH 20 0
BBX 17 35 2 -7
BITMAP
01FE00
07FF00
1FFF00
1FFF00
3FC700
3F0000
3E0000
3E0000
3E0000
3F8000
1FFC00
0FFC00
07FC00
1FFC00
3FE000
7E0000
7C0000
FC0000
FC0000
F80000
FC0000
FC0000
FE0000
7F8000
7FF800
1FFE00
0FFF80
01FF80
003F80
000F80
000F80
000F80
001F00
003E00
000C00
ENDCHAR
STARTCHAR 03BF
ENCODING 959
SWIDTH 540 0
DWIDTH 21 0
BBX 20 21 1 0
BITMAP
01F800
07FE00
1FFF80
3FFFC0
3F9FC0
7E07E0
7E07E0
7C03E0
FC03F0
FC03F0
FC03F0
FC03F0
FC03F0
FC03E0
7C03E0
7E07E0
7F0FC0
3FFFC0
1FFF80
0FFF00
03FC00
ENDCHAR
STARTCHAR 03C0
ENCODING 960
SWIDTH 642 0
DWIDTH 25 0
BBX 23 21 1 0
BITMAP
FFFFFE
FFFFFE
FFFFFE
FFFFFE
FFFFFE
1F83F0
1F83F0
1F83F0
1F83F0
1F83F0
1F83F0
1F83F0
1F83F0
1F83F0
1F83F0
1F83F0
1F83F0
1F83FE
1F81FE
1F81FE
1F807E
ENDCHAR
STARTCHAR 03C1
ENCODING 961
SWIDTH 540 0
DWIDTH 21 0
BBX 19 29 2 -8
BITMAP
03F800
0FFE00
1FFF00
3FFF80
7F3F80
7E0FC0
7C0FC0
FC07C0
FC07C0
FC07E0
FC07E0
FC07E0
FC07E0
FC07C0
FC07C0
FC0FC0
FE1FC0
FFFF80
FFFF80
FFFF00
FDFC00
FC0000
FC0000
FC0000
FC0000
FC0000
FC0000
FC0000
FC0000
ENDCHAR
STARTCHAR 03C2
ENCODING 962
SWIDTH 488 0
DWIDTH 19 0
BBX 18 28 1 -7
BITMAP
01F800
0FFE00
1FFF00
3FFF80
3F9F80
7E0FC0
7C07C0
FC07C0
FC0000
FC0000
FC0000
FC0000
FC0000
FC0000
7E0000
7F0000
3FC000
3FF800
1FFE00
07FF00
01FF00
003F00
001F00
001F00
003E00
007E00
003C00
001800
ENDCHAR
STARTCHAR 03C3
ENCODING 963
SWIDTH 565 0
DWIDTH 22 0
BBX 21 21 1 0
BITMAP
007FF8
07FFF8
0FFFF8
1FFFF8
3FFFF8
7F0F80
7E07C0
7C07C0
FC03E0
FC03E0
FC03E0
FC03E0
FC03E0
FC03E0
7C07E0
7E07E0
7F0FC0
3FFFC0
1FFF80
0FFF00
03FC00
ENDCHAR
STARTCHAR 03C4
ENCODING 964
SWIDTH 514 0
DWIDTH 20 0
BBX 18 21 1 0
BITMAP
FFFFC0
FFFFC0
FFFFC0
FFFFC0
FFFFC0
03F000
03F000
03F000
03F000
03F000
03F000
03F000
03F000
03F000
03F000
03F000
03F000
03FE00
01FE00
01FF00
007F00
ENDCHAR
STARTCHAR 03C5
ENCODING 965
SWIDTH 540 0
DWIDTH 21 0
BBX 18 21 2 0
BITMAP
FC3F00
FC1F00
FC1F00
FC1F80
FC0F80
FC0F80
FC0F80
FC0FC0
FC0FC0
FC0FC0
FC0FC0
FC0FC0
FC0FC0
FC0F80
FC1F80
FC1F80
7E3F00
7FFF00
3FFE00
3FFC00
0FF800
ENDCHAR
STARTCHAR 03C6
ENCODING 966
SWIDTH 745 0
DWIDTH 29 0
BBX 27 30 1 -9
BITMAP
0803E000
1C07FC00
3E0FFE00
3F1FFF00
7E1FFF80
7C1F0FC0
FC1F0FC0
FC1F07C0
FC1F07E0
FC1F07E0
FC1F07E0
FC1F07E0
FC1F07E0
7C1F07C0
7E1F0FC0
7F1F1FC0
3F9F7F80
1FFFFF00
0FFFFE00
07FFFC00
01FFF000
001F0000
001F0000
001F0000
001F0000
001F0000
001F0000
001F0000
001F0000
001F0000
ENDCHAR
STARTCHAR 03C7
ENCODING 967
SWIDTH 514 0
DWIDTH 20 0
BBX 21 29 0 -8
BITMAP
7C01F8
FE01F0
FF03F0
FF83E0
3F87E0
0FC7C0
07CFC0
07EF80
03FF80
03FF00
01FF00
01FE00
00FE00
00FC00
00FC00
00FC00
01FE00
01FE00
03FF00
03FF00
07FF00
07DF80
0FCF80
0F8FC0
1F87E0
1F07F8
3F03F8
3E01F8
7E00F0
ENDCHAR
STARTCHAR 03C8
ENCODING 968
SWIDTH 720 0
DWIDTH 28 0
BBX 27 30 1 -9
BITMAP
FC1F1F00
FC1F0F80
FC1F0F80
FC1F0FC0
FC1F0FC0
FC1F07C0
FC1F07C0
FC1F07E0
FC1F07E0
FC1F07E0
FC1F07E0
FC1F07E0
7C1F07C0
7C1F0FC0
7E1F0FC0
7F1F1F80
3FDF7F80
1FFFFF00
0FFFFE00
07FFFC00
01FFF000
001F0000
001F0000
001F0000
001F0000
001F0000
001F0000
001F0000
001F0000
001F0000
ENDCHAR
STARTCHAR 03C9
ENCODING 969
SWIDTH 797 0
DWIDTH 31 0
BBX 28 21 2 0
BITMAP
3F000FC0
3E0007C0
7E0007E0
7C0003E0
FC0003F0
FC1F83F0
FC1F83F0
F81F81F0
F81F81F0
F81F81F0
F81F81F0
F81F81F0
F81F81F0
F81F81F0
FC1F83F0
FC3FC3F0
7E3FC7E0
7FFFFFE0
3FF9FFC0
3FF9FFC0
0FE07F00
ENDCHAR
STARTCHAR 03CA
ENCODING 970
SWIDTH 334 0
DWIDTH 13 0
BBX 15 28 -2 0
BITMAP
701C
F83E
FC3E
783E
301C
0000
0000
07C0
07C0
07C0
07C0
07C0
07C0
07C0
07C0
07C0
07C0
07C0
07C0
07C0
07C0
07C0
07C0
07E0
07FC
07FC
03FC
01FC
ENDCHAR
STARTCHAR 03CB
ENCODING 971
SWIDTH 540 0
DWIDTH 21 0
BBX 18 28 2 0
BITMAP
3C0E00
3E1F00
7E1F00
3C1F00
180400
000000
000000
FC3F00
FC1F00
FC1F00
FC1F80
FC0F80
FC0F80
FC0F80
FC0FC0
FC0FC0
FC0FC0
FC0FC0
FC0FC0
FC0FC0
FC0F80
FC1F80
FC1F80
7E3F00
7FFF00
3FFE00
3FFC00
0FF800
ENDCHAR
STARTCHAR 03CC
ENCODING 972
SWIDTH 540 0
DWIDTH 21 0
BBX 20 30 1 0
BITMAP
007C00
007800
007800
00F000
00F000
00F000
000000
000000
000000
01F800
07FE00
1FFF80
3FFFC0
3F9FC0
7E07E0
7E07E0
7C03E0
FC03F0
FC03F0
FC03F0
FC03F0
FC03F0
FC03E0
7C03E0
7E07E0
7F0FC0
3FFFC0
1FFF80
0FFF00
03FC00
ENDCHAR
STARTCHAR 03CD
ENCODING 973
SWIDTH 540 0
DWIDTH 21 0
BBX 18 30 2 0
BITMAP
00F800
00F000
00F000
01E000
01E000
01C000
000000
000000
000000
FC3F00
FC1F00
FC1F00
FC1F80
FC0F80
FC0F80
FC0F80
FC0FC0
FC0FC0
FC0FC0
FC0FC0
FC0FC0
FC0FC0
FC0F80
FC1F80
FC1F80
7E3F00
7FFF00
3FFE00
3FFC00
0FF800
ENDCHAR
STARTCHAR 03CE
ENCODING 974
SWIDTH 797 0
DWIDTH 31 0
BBX 28 30 2 0
BITMAP
0007C000
0007C000
00078000
00078000
000F0000
000F0000
00000000
00000000
00000000
3F000FC0
3E0007C0
7E0007E0
7C0003E0
FC0003F0
FC1F83F0
FC1F83F0
F81F81F0
F81F81F0
F81F81F0
F81F81F0
F81F81F0
F81F81F0
F81F81F0
FC1F83F0
FC3FC3F0
7E3FC7E0
7FFFFFE0
3FF9FFC0
3FF9FFC0
0FE07F00
ENDCHAR
STARTCHAR 03D1
ENCODING 977
SWIDTH 591 0
DWIDTH 23 0
BBX 21 28 2 0
BITMAP
007E00
01FF00
03FF80
07FFC0
07FFC0
07C7E0
07C7E0
07C7E0
07C7E0
07C7E0
07C7E0
07E7E0
03FFE0
03FFF8
01FFF8
F8FFF8
F83FF8
F807E0
F807E0
F807E0
FC07E0
FC07E0
7C0FC0
7F1FC0
3FFF80
3FFF80
0FFF00
07FC00
ENDCHAR
STARTCHAR 03D2
ENCODING 978
SWIDTH 591 0
DWIDTH 23 0
BBX 24 28 0 0
BITMAP
F8003F
FE007E
FE00FE
FF01FE
FF01FE
1F81F0
0F83F0
0F83E0
0FC7E0
07C7C0
07C7C0
03EF80
03EF80
03FF80
01FF00
01FF00
00FE00
00FE00
007C00
007C00
007C00
007C00
007C00
007C00
007C00
007C00
007C00
007C00
ENDCHAR
STARTCHAR 03D6
ENCODING 982
SWIDTH 822 0
DWIDTH 32 0
BBX 32 21 0 0
BITMAP
FFFFFFFF
FFFFFFFF
FFFFFFFF
FFFFFFFF
3F0000FC
3F0000FC
3F00007C
3E00007C
3E07E07E
3E07E07E
3E07E07E
3E07E07E
3E07E07E
3E07E07C
3F07E07C
3F0FF0FC
1F8FF8FC
1FFFFFF8
0FFE7FF8
0FFE3FF0
03F81FC0
ENDCHAR
STARTCHAR 0400
ENCODING 1024
SWIDTH 540 0
DWIDTH 21 0
BBX 19 35 2 0
BITMAP
0F8000
07C000
07E000
03E000
01F000
00F800
000000
FFFFE0
FFFFE0
FFFFE0
FFFFE0
FFFFE0
FC0000
FC0000
FC0000
FC0000
FC0000
FC0000
FC0000
FFFF80
FFFF80
FFFF80
FFFF80
FC0000
FC0000
FC0000
FC0000
FC0000
FC0000
FC0000
FC0000
FFFFE0
FFFFE0
FFFFE0
FFFFE0
ENDCHAR
STARTCHAR 0401
ENCODING 1025
SWIDTH 540 0
DWIDTH 21 0
BBX 19 34 2 0
BITMAP
1E0780
1F0F80
1F0F80
1E0780
000000
000000
FFFFE0
FFFFE0
FFFFE0
FFFFE0
FFFFE0
FC0000
FC0000
FC0000
FC0000
FC0000
FC0000
FC0000
FFFF80
FFFF80
FFFF80
FFFF80
FC0000
FC0000
FC0000
FC0000
FC0000
FC0000
FC0000
FC0000
FFFFE0
FFFFE0
FFFFE0
FFFFE0
ENDCHAR
STARTCHAR 0402
ENCODING 1026
SWIDTH 745 0
DWIDTH 29 0
BBX 27 28 1 0
BITMAP
FFFFF800
FFFFF800
FFFFF800
FFFFF800
FFFFF800
03F00000
03F00000
03F00000
03F00000
03F00000
03F00000
03F7F800
03FFFE00
03FFFF80
03FFFF80
03FFFFC0
03F00FE0
03F007E0
03F007E0
03F007E0
03F007E0
03F007E0
03F007E0
03F01FC0
03F0FFC0
03F0FF80
03F0FF00
03F0FC00
ENDCHAR
STARTCHAR 0403
ENCODING 1027
SWIDTH 540 0
DWIDTH 21 0
BBX 19 35 2 0
BITMAP
003F00
003E00
007C00
00F800
00F800
01F000
000000
FFFFE0
FFFFE0
FFFFE0
FFFFE0
FFFFE0
FC0000
FC0000
FC0000
FC0000
FC0000
FC0000
FC0000
FC0000
FC0000
FC0000
FC0000
FC0000
FC0000
FC0000
FC0000
FC0000
FC0000
FC0000
FC0000
FC0000
FC0000
FC0000
FC0000
ENDCHAR
STARTCHAR 0404
ENCODING 1028
SWIDTH 642 0
DWIDTH 25 0
BBX 22 28 2 0
BITMAP
01FE00
07FF80
0FFFE0
1FFFF0
3FCFF8
7F01F8
7E00FC
7C00FC
FC00FC
FC007C
FC0000
F80000
FFFC00
FFFC00
FFFC00
FFFC00
F80000
F80000
FC0000
FC00FC
FC00FC
7E00FC
7E01F8
3F83F8
3FFFF0
1FFFE0
07FFC0
03FF00
ENDCHAR
STARTCHAR 0405
ENCODING 1029
SWIDTH 591 0
DWIDTH 23 0
BBX 22 28 1 0
BITMAP
01FE00
07FFC0
0FFFE0
1FFFF0
3FC7F8
7F01F8
7E01F8
7E00F8
7E0000
7F0000
3F8000
3FE000
1FFC00
0FFF80
03FFC0
00FFE0
001FF0
0003F8
0001F8
FC00F8
FC00FC
7C00FC
7E01F8
7F83F8
3FFFF8
1FFFF0
0FFFE0
03FF80
ENDCHAR
STARTCHAR 0406
ENCODING 1030
SWIDTH 282 0
DWIDTH 11 0
BBX 6 28 3 0
BITMAP
FC
FC
FC
FC
FC
FC
FC
FC
FC
FC
FC
FC
FC
FC
FC
FC
FC
FC
FC
FC
FC
FC
FC
FC
FC
FC
FC
FC
ENDCHAR
STARTCHAR 0407
ENCODING 1031
SWIDTH 282 0
DWIDTH 11 0
BBX 15 34 -2 0
BITMAP
783C
FC3E
FC3E
783C
0000
0000
07E0
07E0
07E0
07E0
07E0
07E0
07E0
07E0
07E0
07E0
07E0
07E0
07E0
07E0
07E0
07E0
07E0
07E0
07E0
07E0
07E0
07E0
07E0
07E0
07E0
07E0
07E0
07E0
ENDCHAR
STARTCHAR 0408
ENCODING 1032
SWIDTH 540 0
DWIDTH 21 0
BBX 18 28 1 0
BITMAP
0007C0
0007C0
0007C0
0007C0
0007C0
0007C0
0007C0
0007C0
0007C0
0007C0
0007C0
0007C0
0007C0
0007C0
0007C0
0007C0
0007C0
0007C0
0007C0
0007C0
FC07C0
FC0FC0
FC0FC0
FE1FC0
7FFF80
3FFF00
1FFE00
0FF800
ENDCHAR
STARTCHAR 0409
ENCODING 1033
SWIDTH 1054 0
DWIDTH 41 0
BBX 39 28 1 0
BITMAP
07FFFF0000
07FFFF0000
07FFFF0000
07FFFF0000
07FFFF0000
07E03F0000
07E03F0000
07E03F0000
07E03F0000
07E03F0000
07E03FFF80
07E03FFFE0
07E03FFFF0
07C03FFFF8
07C03F03FC
07C03F00FC
07C03F007E
07C03F007E
0FC03F007E
0FC03F007E
0FC03F007E
0F803F00FE
1F803F00FC
FF803F07FC
FF003FFFF8
FF003FFFF0
FE003FFFE0
F8003FFF00
ENDCHAR
STARTCHAR 040A
ENCODING 1034
SWIDTH 1054 0
DWIDTH 41 0
BBX 38 28 2 0
BITMAP
FC007E0000
FC007E0000
FC007E0000
FC007E0000
FC007E0000
FC007E0000
FC007E0000
FC007E0000
FC007E0000
FC007E0000
FC007FFE00
FC007FFFC0
FFFFFFFFE0
FFFFFFFFF0
FFFFFFFFF8
FFFFFE01F8
FFFFFE00FC
FC007E00FC
FC007E00FC
FC007E00FC
FC007E00FC
FC007E00FC
FC007E01F8
FC007E0FF8
FC007FFFF0
FC007FFFE0
FC007FFFC0
FC007FFE00
ENDCHAR
STARTCHAR 040B
ENCODING 1035
SWIDTH 745 0
DWIDTH 29 0
BBX 27 28 1 0
BITMAP
FFFFF800
FFFFF800
FFFFF800
FFFFF800
FFFFF800
03F00000
03F00000
03F00000
03F00000
03F00000
03F3C000
03FFFC00
03FFFF00
03FFFF80
03FFFFC0
03F01FC0
03F00FC0
03F007E0
03F007E0
03F007E0
03F007E0
03F007E0
03F007E0
03F007E0
03F007E0
03F007E0
03F007E0
03F007E0
ENDCHAR
STARTCHAR 040C
ENCODING 1036
SWIDTH 617 0
DWIDTH 24 0
BBX 23 35 2 0
BITMAP
003F00
007E00
007C00
00F800
00F000
01E000
000000
FC00FE
FC01FC
FC03F8
FC07F0
FC07E0
FC0FE0
FC1FC0
FC3F80
FC7F00
FC7E00
FCFE00
FDFC00
FDF800
FFF800
FFFC00
FFFE00
FFFE00
FFBF00
FF3F80
FE1F80
FC1FC0
FC0FE0
FC07E0
FC07F0
FC03F8
FC01F8
FC01FC
FC00FE
ENDCHAR
STARTCHAR 040D
ENCODING 1037
SWIDTH 694 0
DWIDTH 27 0
BBX 23 35 2 0
BITMAP
07E000
03F000
01F000
00F800
007800
003C00
000000
FC007E
FC00FE
FC00FE
FC01FE
FC01FE
FC03FE
FC07FE
FC07FE
FC0FFE
FC0FFE
FC1F7E
FC3F7E
FC3E7E
FC7E7E
FC7C7E
FCF87E
FDF87E
FDF07E
FFF07E
FFE07E
FFC07E
FFC07E
FF807E
FF807E
FF007E
FE007E
FE007E
FC007E
ENDCHAR
STARTCHAR 040E
ENCODING 1038
SWIDTH 617 0
DWIDTH 24 0
BBX 23 35 1 0
BITMAP
0783C0
0783C0
03E7C0
03FF80
01FF00
003800
000000
FC007E
FC00FE
7E00FC
7E00FC
3F01F8
3F01F8
1F01F0
1F83F0
0F83F0
0FC7E0
07C7E0
07E7C0
03EFC0
03FFC0
01FF80
01FF80
00FF00
00FF00
007E00
007E00
007E00
007C00
00FC00
01F800
0FF800
0FF000
0FE000
0FC000
ENDCHAR
STARTCHAR 040F
ENCODING 1039
SWIDTH 694 0
DWIDTH 27 0
BBX 23 35 2 -7
BITMAP
FC007E
FC007E
FC007E
FC007E
FC007E
FC007E
FC007E
FC007E
FC007E
FC007E
FC007E
FC007E
FC007E
FC007E
FC007E
FC007E
FC007E
FC007E
FC007E
FC007E
FC007E
FC007E
FC007E
FC007E
FFFFFE
FFFFFE
FFFFFE
FFFFFE
007E00
007E00
007E00
007E00
007E00
007E00
007E00
ENDCHAR
STARTCHAR 0410
ENCODING 1040
SWIDTH 668 0
DWIDTH 26 0
BBX 26 28 0 0
BITMAP
003F0000
003F0000
003F8000
007F8000
007F8000
00FFC000
00FFC000
00FFC000
01FBE000
01F3E000
01F3F000
03F1F000
03E1F000
03E1F800
07E0F800
07C0F800
0FC0FC00
0FC0FC00
0FFFFC00
1FFFFE00
1FFFFE00
1FFFFF00
3F003F00
3F003F00
7E001F80
7E001F80
7E001F80
FC000FC0
ENDCHAR
STARTCHAR 0411
ENCODING 1041
SWIDTH 617 0
DWIDTH 24 0
BBX 21 28 2 0
BITMAP
FFFFE0
FFFFE0
FFFFE0
FFFFE0
FFFFE0
FC0000
FC0000
FC0000
FC0000
FC0000
FFE000
FFFF00
FFFFC0
FFFFE0
FFFFF0
FC07F0
FC01F8
FC01F8
FC01F8
FC01F8
FC01F8
FC01F8
FC03F8
FC1FF0
FFFFE0
FFFFC0
FFFF80
FFFC00
ENDCHAR
STARTCHAR 0412
ENCODING 1042
SWIDTH 617 0
DWIDTH 24 0
BBX 21 28 2 0
BITMAP
FFF000
FFFF00
FFFFC0
FFFFE0
FFFFF0
FC07F0
FC03F0
FC01F0
FC01F0
FC01F0
FC03F0
FC07E0
FFFFE0
FFFF80
FFFFC0
FFFFE0
FC03F0
FC01F8
FC01F8
FC01F8
FC01F8
FC01F8
FC03F8
FC1FF0
FFFFF0
FFFFE0
FFFFC0
FFFE00
ENDCHAR
STARTCHAR 0413
ENCODING 1043
SWIDTH 540 0
DWIDTH 21 0
BBX 19 28 2 0
BITMAP
FFFFE0
FFFFE0
FFFFE0
FFFFE0
FFFFE0
FC0000
FC0000
FC0000
FC0000
FC0000
FC0000
FC0000
FC0000
FC0000
FC0000
FC0000
FC0000
FC0000
FC0000
FC0000
FC0000
FC0000
FC0000
FC0000
FC0000
FC0000
FC0000
FC0000
ENDCHAR
STARTCHAR 0414
ENCODING 1044
SWIDTH 720 0
DWIDTH 28 0
BBX 27 35 1 -7
BITMAP
03FFFF00
03FFFF00
03FFFF00
03FFFF00
03FFFF00
03F01F00
03F01F00
03E01F00
03E01F00
03E01F00
03E01F00
03E01F00
07E01F00
07E01F00
07E01F00
07E01F00
07E01F00
07C01F00
0FC01F00
0FC01F00
0FC01F00
1F801F00
1F801F00
3F001F00
FFFFFFE0
FFFFFFE0
FFFFFFE0
FFFFFFE0
F80003E0
F80003E0
F80003E0
F80003E0
F80003E0
F80003E0
F80003E0
ENDCHAR
STARTCHAR 0415
ENCODING 1045
SWIDTH 540 0
DWIDTH 21 0
BBX 19 28 2 0
BITMAP
FFFFE0
FFFFE0
FFFFE0
FFFFE0
FFFFE0
FC0000
FC0000
FC0000
FC0000
FC0000
FC0000
FC0000
FFFF80
FFFF80
FFFF80
FFFF80
FC0000
FC0000
FC0000
FC0000
FC0000
FC0000
FC0000
FC0000
FFFFE0
FFFFE0
FFFFE0
FFFFE0
ENDCHAR
STARTCHAR 0416
ENCODING 1046
SWIDTH 977 0
DWIDTH 38 0
BBX 38 28 1 0
BITMAP
FE00FC03F8
FE00FC03F8
7F00FC07F0
3F80FC07E0
3F80FC0FE0
1FC0FC0FC0
0FC0FC1FC0
0FE0FC3F80
07E0FC3F00
03F0FC7F00
03F0FC7E00
01F8FCFC00
00FFFFFC00
00FFFFFC00
01FFFFFC00
01FFFFFE00
03FFFFFE00
07F0FC7F00
07E0FC3F00
0FE0FC3F80
0FC0FC1FC0
1FC0FC1FC0
3F80FC0FE0
3F80FC0FE0
7F00FC07F0
7F00FC07F0
FE00FC03F8
FE00FC03FC
ENDCHAR
STARTCHAR 0417
ENCODING 1047
SWIDTH 617 0
DWIDTH 24 0
BBX 21 28 1 0
BITMAP
01FE00
0FFF80
1FFFE0
3FFFF0
7FDFF0
7E03F8
7E01F8
7C01F8
0001F8
0001F8
0003F0
000FF0
01FFE0
01FF80
01FFC0
01FFE0
0007F0
0001F8
0001F8
0000F8
FC00F8
FC01F8
7E01F8
7F07F8
7FFFF0
3FFFE0
0FFFC0
03FF00
ENDCHAR
STARTCHAR 0418
ENCODING 1048
SWIDTH 694 0
DWIDTH 27 0
BBX 23 28 2 0
BITMAP
FC007E
FC00FE
FC00FE
FC01FE
FC01FE
FC03FE
FC07FE
FC07FE
FC0FFE
FC0FFE
FC1F7E
FC3F7E
FC3E7E
FC7E7E
FC7C7E
FCF87E
FDF87E
FDF07E
FFF07E
FFE07E
FFC07E
FFC07E
FF807E
FF807E
FF007E
FE007E
FE007E
FC007E
ENDCHAR
STARTCHAR 0419
ENCODING 1049
SWIDTH 694 0
DWIDTH 27 0
BBX 23 35 2 0
BITMAP
0783C0
0783C0
07E7C0
03FF80
01FF00
003800
000000
FC007E
FC00FE
FC00FE
FC01FE
FC01FE
FC03FE
FC07FE
FC07FE
FC0FFE
FC0FFE
FC1F7E
FC3F7E
FC3E7E
FC7E7E
FC7C7E
FCF87E
FDF87E
FDF07E
FFF07E
FFE07E
FFC07E
FFC07E
FF807E
FF807E
FF007E
FE007E
FE007E
FC007E
ENDCHAR
STARTCHAR 041A
ENCODING 1050
SWIDTH 642 0
DWIDTH 25 0
BBX 23 28 2 0
BITMAP
FC01FC
FC01FC
FC03F8
FC03F0
FC07F0
FC0FE0
FC0FC0
FC1FC0
FC1F80
FC3F80
FC7F00
FC7E00
FFFE00
FFFC00
FFFE00
FFFE00
FFFF00
FC3F80
FC1F80
FC1FC0
FC0FE0
FC07E0
FC07F0
FC03F0
FC03F8
FC01FC
FC00FC
FC00FE
ENDCHAR
STARTCHAR 041B
ENCODING 1051
SWIDTH 694 0
DWIDTH 27 0
BBX 24 28 1 0
BITMAP
07FFFF
07FFFF
07FFFF
07FFFF
07FFFF
07E03F
07E03F
07E03F
07E03F
07E03F
07E03F
07E03F
07E03F
07C03F
07C03F
07C03F
07C03F
07C03F
0FC03F
0FC03F
0FC03F
1F803F
1F803F
FF803F
FF003F
FE003F
FE003F
F8003F
ENDCHAR
STARTCHAR 041C
ENCODING 1052
SWIDTH 874 0
DWIDTH 34 0
BBX 30 28 2 0
BITMAP
FF0003FC
FF0003FC
FF8007FC
FF8007FC
FF8007FC
FFC00FFC
FFC00FFC
FFC00FFC
FFE01FFC
FFE01FFC
FDE01EFC
FDF03EFC
FDF03EFC
FCF87CFC
FCF87CFC
FC7878FC
FC7CF8FC
FC7CF8FC
FC3CF0FC
FC3FF0FC
FC3FF0FC
FC1FE0FC
FC1FE0FC
FC1FE0FC
FC0FC0FC
FC0FC0FC
FC0780FC
FC0780FC
ENDCHAR
STARTCHAR 041D
ENCODING 1053
SWIDTH 694 0
DWIDTH 27 0
BBX 23 28 2 0
BITMAP
FC007E
FC007E
FC007E
FC007E
FC007E
FC007E
FC007E
FC007E
FC007E
FC007E
FC007E
FC007E
FFFFFE
FFFFFE
FFFFFE
FFFFFE
FC007E
FC007E
FC007E
FC007E
FC007E
FC007E
FC007E
FC007E
FC007E
FC007E
FC007E
FC007E
ENDCHAR
STARTCHAR 041E
ENCODING 1054
SWIDTH 668 0
DWIDTH 26 0
BBX 23 28 2 0
BITMAP
00FE00
07FF80
0FFFE0
1FFFF0
3FFFF8
3F01F8
7E00FC
7E00FC
FC007E
FC007E
FC007E
F8007E
F8007E
F8007E
F8007E
F8007E
F8007E
FC007E
FC007E
FC007E
FC00FC
7E00FC
7F01F8
3F87F8
1FFFF0
0FFFE0
07FFC0
01FF00
ENDCHAR
STARTCHAR 041F
ENCODING 1055
SWIDTH 694 0
DWIDTH 27 0
BBX 23 28 2 0
BITMAP
FFFFFE
FFFFFE
FFFFFE
FFFFFE
FFFFFE
FC007E
FC007E
FC007E
FC007E
FC007E
FC007E
FC007E
FC007E
FC007E
FC007E
FC007E
FC007E
FC007E
FC007E
FC007E
FC007E
FC007E
FC007E
FC007E
FC007E
FC007E
FC007E
FC007E
ENDCHAR
STARTCHAR 0420
ENCODING 1056
SWIDTH 642 0
DWIDTH 25 0
BBX 22 28 2 0
BITMAP
FFFC00
FFFF80
FFFFC0
FFFFE0
FFFFF0
FC03F8
FC01F8
FC00F8
FC00FC
FC00FC
FC00FC
FC01F8
FC01F8
FC07F8
FFFFF0
FFFFE0
FFFFC0
FFFF00
FC0000
FC0000
FC0000
FC0000
FC0000
FC0000
FC0000
FC0000
FC0000
FC0000
ENDCHAR
STARTCHAR 0421
ENCODING 1057
SWIDTH 642 0
DWIDTH 25 0
BBX 22 28 2 0
BITMAP
01FE00
07FF80
0FFFE0
1FFFF0
3FFFF8
7F01F8
7E00FC
7C00FC
FC00FC
FC007C
FC0000
F80000
F80000
F80000
F80000
F80000
F80000
F80000
FC0000
FC00FC
FC00FC
7E00FC
7E01F8
3F87F8
3FFFF0
1FFFE0
07FFC0
03FF00
ENDCHAR
STARTCHAR 0422
ENCODING 1058
SWIDTH 617 0
DWIDTH 24 0
BBX 22 28 1 0
BITMAP
FFFFFC
FFFFFC
FFFFFC
FFFFFC
FFFFFC
00FC00
00FC00
00FC00
00FC00
00FC00
00FC00
00FC00
00FC00
00FC00
00FC00
00FC00
00FC00
00FC00
00FC00
00FC00
00FC00
00FC00
00FC00
00FC00
00FC00
00FC00
00FC00
00FC00
ENDCHAR
STARTCHAR 0423
ENCODING 1059
SWIDTH 617 0
DWIDTH 24 0
BBX 23 28 1 0
BITMAP
FC007E
FC00FE
7E00FC
7E00FC
3F01F8
3F01F8
1F01F0
1F83F0
0F83F0
0FC7E0
07C7E0
07E7C0
03EFC0
03FFC0
01FF80
01FF80
00FF00
00FF00
007E00
007E00
007E00
007C00
00FC00
01F800
0FF800
0FF000
0FE000
0FC000
ENDCHAR
STARTCHAR 0424
ENCODING 1060
SWIDTH 797 0
DWIDTH 31 0
BBX 29 30 1 -1
BITMAP
000FC000
000FC000
000FC000
000FC000
00FFFC00
03FFFF00
0FFFFFC0
1FFFFFE0
3FEFDFF0
3F0FC3F0
7E0FC1F8
7E0FC1F8
7C0FC0F8
FC0FC0F8
FC0FC0F8
FC0FC0F8
FC0FC0F8
7C0FC0F8
7C0FC0F8
7E0FC1F8
7F0FC3F0
3F8FC7F0
1FFFFFE0
0FFFFFC0
07FFFF80
01FFFE00
001FF000
000FC000
000FC000
000FC000
ENDCHAR
STARTCHAR 0425
ENCODING 1061
SWIDTH 617 0
DWIDTH 24 0
BBX 23 28 1 0
BITMAP
FC00FE
FE00FC
7E01FC
7F01F8
3F03F8
1F83F0
1F87E0
0FC7E0
0FEFC0
07EFC0
03FF80
03FF80
01FF00
01FE00
01FE00
01FF00
03FF00
03FF80
07EFC0
0FEFC0
0FC7E0
1FC7E0
1F83F0
3F03F8
7F01F8
7E01FC
FE00FC
FC00FE
ENDCHAR
STARTCHAR 0426
ENCODING 1062
SWIDTH 745 0
DWIDTH 29 0
BBX 26 35 2 -7
BITMAP
FC007E00
FC007E00
FC007E00
FC007E00
FC007E00
FC007E00
FC007E00
FC007E00
FC007E00
FC007E00
FC007E00
FC007E00
FC007E00
FC007E00
FC007E00
FC007E00
FC007E00
FC007E00
FC007E00
FC007E00
FC007E00
FC007E00
FC007E00
FC007E00
FFFFFFC0
FFFFFFC0
FFFFFFC0
FFFFFFC0
000007C0
000007C0
000007C0
000007C0
000007C0
000007C0
000007C0
ENDCHAR
STARTCHAR 0427
ENCODING 1063
SWIDTH 694 0
DWIDTH 27 0
BBX 22 28 3 0
BITMAP
F800FC
F800FC
F800FC
F800FC
F800FC
F800FC
F800FC
F800FC
F800FC
F800FC
FC00FC
FC00FC
FE00FC
7FDFFC
7FFFFC
3FFFFC
0FFFFC
03FEFC
0000FC
0000FC
0000FC
0000FC
0000FC
0000FC
0000FC
0000FC
0000FC
0000FC
ENDCHAR
STARTCHAR 0428
ENCODING 1064
SWIDTH 951 0
DWIDTH 37 0
BBX 33 28 2 0
BITMAP
FC03F01F80
FC03F01F80
FC03F01F80
FC03F01F80
FC03F01F80
FC03F01F80
FC03F01F80
FC03F01F80
FC03F01F80
FC03F01F80
FC03F01F80
FC03F01F80
FC03F01F80
FC03F01F80
FC03F01F80
FC03F01F80
FC03F01F80
FC03F01F80
FC03F01F80
FC03F01F80
FC03F01F80
FC03F01F80
FC03F01F80
FC03F01F80
FFFFFFFF80
FFFFFFFF80
FFFFFFFF80
FFFFFFFF80
ENDCHAR
STARTCHAR 0429
ENCODING 1065
SWIDTH 1002 0
DWIDTH 39 0
BBX 36 35 2 -7
BITMAP
FC03F01F80
FC03F01F80
FC03F01F80
FC03F01F80
FC03F01F80
FC03F01F80
FC03F01F80
FC03F01F80
FC03F01F80
FC03F01F80
FC03F01F80
FC03F01F80
FC03F01F80
FC03F01F80
FC03F01F80
FC03F01F80
FC03F01F80
FC03F01F80
FC03F01F80
FC03F01F80
FC03F01F80
FC03F01F80
FC03F01F80
FC03F01F80
FFFFFFFFF0
FFFFFFFFF0
FFFFFFFFF0
FFFFFFFFF0
00000001F0
00000001F0
00000001F0
00000001F0
00000001F0
00000001F0
00000001F0
ENDCHAR
STARTCHAR 042A
ENCODING 1066
SWIDTH 771 0
DWIDTH 30 0
BBX 29 28 0 0
BITMAP
FFFC0000
FFFC0000
FFFC0000
FFFC0000
FFFC0000
00FC0000
00FC0000
00FC0000
00FC0000
00FC0000
00FFF000
00FFFF00
00FFFFC0
00FFFFE0
00FFFFF0
00FC07F0
00FC03F0
00FC01F8
00FC01F8
00FC01F8
00FC01F8
00FC03F8
00FC03F0
00FC1FF0
00FFFFE0
00FFFFC0
00FFFF80
00FFFC00
ENDCHAR
STARTCHAR 042B
ENCODING 1067
SWIDTH 848 0
DWIDTH 33 0
BBX 29 28 2 0
BITMAP
FC0000F8
FC0000F8
FC0000F8
FC0000F8
FC0000F8
FC0000F8
FC0000F8
FC0000F8
FC0000F8
FC0000F8
FFE000F8
FFFF00F8
FFFFC0F8
FFFFE0F8
FFFFF0F8
FC07F0F8
FC01F8F8
FC01F8F8
FC01F8F8
FC01F8F8
FC01F8F8
FC01F8F8
FC03F8F8
FC1FF0F8
FFFFE0F8
FFFFC0F8
FFFF80F8
FFFC00F8
ENDCHAR
STARTCHAR 042C
ENCODING 1068
SWIDTH 617 0
DWIDTH 24 0
BBX 21 28 2 0
BITMAP
FC0000
FC0000
FC0000
FC0000
FC0000
FC0000
FC0000
FC0000
FC0000
FC0000
FFE000
FFFF00
FFFFC0
FFFFE0
FFFFF0
FC07F0
FC01F8
FC01F8
FC01F8
FC01F8
FC01F8
FC01F8
FC03F8
FC1FF0
FFFFE0
FFFFC0
FFFF80
FFFC00
ENDCHAR
STARTCHAR 042D
ENCODING 1069
SWIDTH 642 0
DWIDTH 25 0
BBX 23 28 1 0
BITMAP
01FE00
07FF80
0FFFE0
1FFFF0
3FEFF0
7F03F8
7E01F8
FC00FC
FC00FC
FC007C
00007C
00007E
00FFFE
00FFFE
00FFFE
00FFFE
00007E
00007E
00007C
FC007C
FC00FC
7C00FC
7E01F8
7F83F8
3FFFF0
1FFFE0
0FFFC0
03FF00
ENDCHAR
STARTCHAR 042E
ENCODING 1070
SWIDTH 925 0
DWIDTH 36 0
BBX 32 28 3 0
BITMAP
F8007F00
F803FFC0
F807FFF0
F80FFFF8
F81FFFF8
F83F81FC
F83F00FE
F87E007E
F87E003E
F87E003F
F87C003F
F87C003F
F8FC003F
FFFC003F
FFFC003F
FFFC003F
FFFC003F
F87C003F
F87E003F
F87E003E
F87E007E
F83F007E
F83F80FC
F81FC3FC
F80FFFF8
F807FFF0
F803FFE0
F800FF80
ENDCHAR
STARTCHAR 042F
ENCODING 1071
SWIDTH 591 0
DWIDTH 23 0
BBX 21 28 0 0
BITMAP
007FF8
07FFF8
0FFFF8
1FFFF8
3FFFF8
3F01F8
7E01F8
7E01F8
7E01F8
7E01F8
7E01F8
7E01F8
3F01F8
3FC1F8
1FFFF8
0FFFF8
07FFF8
07FFF8
0FC1F8
0FC1F8
1F81F8
1F81F8
3F01F8
3F01F8
7E01F8
7E01F8
FC01F8
FC01F8
ENDCHAR
STARTCHAR 0430
ENCODING 1072
SWIDTH 514 0
DWIDTH 20 0
BBX 18 21 1 0
BITMAP
03F800
0FFE00
1FFF00
3FFF80
7E1F80
7C0FC0
7C0FC0
000FC0
007FC0
0FFFC0
3FFFC0
7FFFC0
7E0FC0
FC0FC0
FC0FC0
FC0FC0
FC1FC0
7FFFC0
7FFFC0
3FF7C0
1FE7C0
ENDCHAR
STARTCHAR 0431
ENCODING 1073
SWIDTH 565 0
DWIDTH 22 0
BBX 19 30 2 0
BITMAP
000780
000F80
001F80
01FF80
07FF00
0FFE00
1FF000
3F8000
3E0000
7C0000
780000
FBFC00
F7FF00
FFFF80
FFFFC0
FE0FC0
FC07C0
FC07E0
F807E0
F807E0
F803E0
F807E0
F807E0
FC07E0
FC07C0
7E0FC0
7FFF80
3FFF80
1FFE00
07FC00
ENDCHAR
STARTCHAR 0432
ENCODING 1074
SWIDTH 540 0
DWIDTH 21 0
BBX 19 21 2 0
BITMAP
FFC000
FFFE00
FFFF00
FFFF80
FFFF80
FC0FC0
FC0FC0
FC0F80
FC1F80
FFFF00
FFFC00
FFFF80
FC1FC0
FC07C0
FC07E0
FC07E0
FC0FE0
FFFFC0
FFFFC0
FFFF80
FFFC00
ENDCHAR
STARTCHAR 0433
ENCODING 1075
SWIDTH 411 0
DWIDTH 16 0
BBX 14 21 2 0
BITMAP
FFFC
FFFC
FFFC
FFFC
FFFC
FC00
FC00
FC00
FC00
FC00
FC00
FC00
FC00
FC00
FC00
FC00
FC00
FC00
FC00
FC00
FC00
ENDCHAR
STARTCHAR 0434
ENCODING 1076
SWIDTH 617 0
DWIDTH 24 0
BBX 23 27 1 -6
BITMAP
07FFF0
07FFF0
07FFF0
07FFF0
07FFF0
07C3F0
07C3F0
07C3F0
07C3F0
07C3F0
0FC3F0
0FC3F0
0FC3F0
0F83F0
1F83F0
3F03F0
3F03F0
FFFFFE
FFFFFE
FFFFFE
FFFFFE
F8007E
F8007E
F8007E
F8007E
F8007E
F8007E
ENDCHAR
STARTCHAR 0435
ENCODING 1077
SWIDTH 540 0
DWIDTH 21 0
BBX 19 21 1 0
BITMAP
01F800
07FE00
1FFF00
1FFF80
3F9FC0
7E07C0
7E07E0
7C03E0
FC03E0
FFFFE0
FFFFE0
FFFFE0
FC0000
7C0000
7E0000
7E0180
3F0380
3FFFC0
1FFFC0
0FFF80
03FE00
ENDCHAR
STARTCHAR 0436
ENCODING 1078
SWIDTH 848 0
DWIDTH 33 0
BBX 32 21 1 0
BITMAP
FE07C07F
7E07C0FE
7F07C0FC
3F07C1FC
1F87C1F8
1F87C3F0
0FC7C7F0
07E7C7E0
07FFFFC0
03FFFFC0
03FFFFC0
07FFFFC0
07FFFFE0
0FC7C7E0
0FC7C3F0
1F87C3F8
3F87C1F8
3F07C1FC
7F07C0FC
7E07C0FE
FE07C07F
ENDCHAR
STARTCHAR 0437
ENCODING 1079
SWIDTH 514 0
DWIDTH 20 0
BBX 18 21 1 0
BITMAP
03F000
1FFE00
3FFF00
7FFF80
7E1F80
7C0F80
000F80
000F80
001F80
03FF00
03FC00
03FF00
001F80
000FC0
000FC0
FC0FC0
FE0FC0
7FFF80
7FFF80
1FFF00
0FFC00
ENDCHAR
STARTCHAR 0438
ENCODING 1080
SWIDTH 565 0
DWIDTH 22 0
BBX 18 21 2 0
BITMAP
FC0FC0
FC0FC0
FC1FC0
FC1FC0
FC3FC0
FC3FC0
FC7FC0
FC7FC0
FCFFC0
FCFFC0
FDEFC0
FDEFC0
FFCFC0
FFCFC0
FF8FC0
FF8FC0
FF0FC0
FE0FC0
FE0FC0
FC0FC0
FC0FC0
ENDCHAR
STARTCHAR 0439
ENCODING 1081
SWIDTH 565 0
DWIDTH 22 0
BBX 18 29 2 0
BITMAP
1C0F00
1E0F00
1F1E00
0FFE00
07FC00
01F000
000000
000000
FC0FC0
FC0FC0
FC1FC0
FC1FC0
FC3FC0
FC3FC0
FC7FC0
FC7FC0
FCFFC0
FCFFC0
FDEFC0
FDEFC0
FFCFC0
FFCFC0
FF8FC0
FF8FC0
FF0FC0
FE0FC0
FE0FC0
FC0FC0
FC0FC0
ENDCHAR
STARTCHAR 043A
ENCODING 1082
SWIDTH 540 0
DWIDTH 21 0
BBX 20 21 2 0
BITMAP
FC0FE0
FC0FE0
FC1FC0
FC1F80
FC3F80
FC3F00
FC7E00
FCFC00
FFFC00
FFF800
FFF800
FFFC00
FFFC00
FCFE00
FC7F00
FC7F00
FC3F80
FC1FC0
FC1FC0
FC0FE0
FC0FF0
ENDCHAR
STARTCHAR 043B
ENCODING 1083
SWIDTH 565 0
DWIDTH 22 0
BBX 20 21 0 0
BITMAP
0FFFF0
0FFFF0
0FFFF0
0FFFF0
0FFFF0
0FC3F0
0FC3F0
0FC3F0
0F83F0
0F83F0
0F83F0
0F83F0
0F83F0
0F83F0
1F83F0
1F83F0
7F03F0
FF03F0
FE03F0
FE03F0
F803F0
ENDCHAR
STARTCHAR 043C
ENCODING 1084
SWIDTH 745 0
DWIDTH 29 0
BBX 25 21 2 0
BITMAP
FE003F80
FF003F80
FF007F80
FF007F80
FF80FF80
FF80FF80
FFC0FF80
FFC1FF80
FFC1FF80
FFE1FF80
FDE3FF80
FDE3DF80
FDF7DF80
FCF79F80
FCFF9F80
FC7F9F80
FC7F1F80
FC7F1F80
FC3E1F80
FC3E1F80
FC1E1F80
ENDCHAR
STARTCHAR 043D
ENCODING 1085
SWIDTH 565 0
DWIDTH 22 0
BBX 18 21 2 0
BITMAP
FC0FC0
FC0FC0
FC0FC0
FC0FC0
FC0FC0
FC0FC0
FC0FC0
FC0FC0
FC0FC0
FFFFC0
FFFFC0
FFFFC0
FFFFC0
FC0FC0
FC0FC0
FC0FC0
FC0FC0
FC0FC0
FC0FC0
FC0FC0
FC0FC0
ENDCHAR
STARTCHAR 043E
ENCODING 1086
SWIDTH 540 0
DWIDTH 21 0
BBX 20 21 1 0
BITMAP
01F800
07FE00
1FFF80
3FFFC0
3F9FC0
7E07E0
7E07E0
7C03E0
FC03F0
FC03F0
FC03F0
FC03F0
FC03F0
FC03E0
7C03E0
7E07E0
7F0FC0
3FFFC0
1FFF80
0FFF00
03FC00
ENDCHAR
STARTCHAR 043F
ENCODING 1087
SWIDTH 565 0
DWIDTH 22 0
BBX 18 21 2 0
BITMAP
FFFFC0
FFFFC0
FFFFC0
FFFFC0
FFFFC0
FC0FC0
FC0FC0
FC0FC0
FC0FC0
FC0FC0
FC0FC0
FC0FC0
FC0FC0
FC0FC0
FC0FC0
FC0FC0
FC0FC0
FC0FC0
FC0FC0
FC0FC0
FC0FC0
ENDCHAR
STARTCHAR 0440
ENCODING 1088
SWIDTH 540 0
DWIDTH 21 0
BBX 19 29 2 -8
BITMAP
F8F800
FBFE00
FFFF00
FFFF80
FF3F80
FC0FC0
FC0FC0
FC07C0
FC07C0
FC07E0
FC07E0
FC07E0
FC07E0
FC07C0
FC07C0
FC0FC0
FE1FC0
FFFF80
FFFF00
FFFF00
FDFC00
FC0000
FC0000
FC0000
FC0000
FC0000
FC0000
FC0000
FC0000
ENDCHAR
STARTCHAR 0441
ENCODING 1089
SWIDTH 514 0
DWIDTH 20 0
BBX 18 21 1 0
BITMAP
01F800
0FFE00
1FFF00
3FFF80
3F1F80
7E0FC0
7C07C0
7C07C0
FC0000
FC0000
FC0000
FC0000
FC0000
FC0000
7C07C0
7E07C0
7E0FC0
3FFF80
1FFF80
0FFF00
07FC00
ENDCHAR
STARTCHAR 0442
ENCODING 1090
SWIDTH 488 0
DWIDTH 19 0
BBX 18 21 1 0
BITMAP
FFFFC0
FFFFC0
FFFFC0
FFFFC0
FFFFC0
03F000
03F000
03F000
03F000
03F000
03F000
03F000
03F000
03F000
03F000
03F000
03F000
03F000
03F000
03F000
03F000
ENDCHAR
STARTCHAR 0443
ENCODING 1091
SWIDTH 488 0
DWIDTH 19 0
BBX 20 29 0 -8
BITMAP
FC03F0
FC07E0
7E07E0
7E07C0
7E0FC0
3E0FC0
3F0F80
1F0F80
1F1F80
1F9F00
0F9F00
0FBF00
0FFE00
07FE00
07FE00
07FC00
03FC00
03FC00
03F800
01F800
01F800
01F000
01F000
03F000
07E000
3FE000
3FC000
3F8000
3F0000
ENDCHAR
STARTCHAR 0444
ENCODING 1092
SWIDTH 720 0
DWIDTH 28 0
BBX 26 37 1 -8
BITMAP
003F0000
003F0000
003F0000
003F0000
003F0000
003F0000
003F0000
003F0000
03FFF800
0FFFFE00
1FFFFF00
3FFFFF00
7F3F3F80
7E3F1F80
7C3F0FC0
7C3F0FC0
FC3F0FC0
FC3F07C0
FC3F07C0
FC3F07C0
FC3F07C0
FC3F0FC0
7C3F0FC0
7E3F0FC0
7E3F1F80
3FFFFF80
3FFFFF00
1FFFFE00
0FFFFC00
003F0000
003F0000
003F0000
003F0000
003F0000
003F0000
003F0000
003F0000
ENDCHAR
STARTCHAR 0445
ENCODING 1093
SWIDTH 488 0
DWIDTH 19 0
BBX 18 21 1 0
BITMAP
FC0FC0
FC0FC0
7E1F80
7E1F00
3F3F00
1F3E00
1FFE00
0FFC00
0FFC00
07F800
07F000
07F800
0FFC00
0FFC00
1FFE00
1F3E00
3F3F00
7E1F00
7E1F80
FC0FC0
FC0FC0
ENDCHAR
STARTCHAR 0446
ENCODING 1094
SWIDTH 591 0
DWIDTH 23 0
BBX 21 27 2 -6
BITMAP
FC0FC0
FC0FC0
FC0FC0
FC0FC0
FC0FC0
FC0FC0
FC0FC0
FC0FC0
FC0FC0
FC0FC0
FC0FC0
FC0FC0
FC0FC0
FC0FC0
FC0FC0
FC0FC0
FC0FC0
FFFFF8
FFFFF8
FFFFF8
FFFFF8
0000F8
0000F8
0000F8
0000F8
0000F8
0000F8
ENDCHAR
STARTCHAR 0447
ENCODING 1095
SWIDTH 540 0
DWIDTH 21 0
BBX 17 21 2 0
BITMAP
F80F80
F80F80
F80F80
F80F80
F80F80
F80F80
F80F80
F80F80
F80F80
FC0F80
FFFF80
7FFF80
3FFF80
1FFF80
03FF80
000F80
000F80
000F80
000F80
000F80
000F80
ENDCHAR
STARTCHAR 0448
ENCODING 1096
SWIDTH 822 0
DWIDTH 32 0
BBX 28 21 2 0
BITMAP
FC1F83F0
FC1F83F0
FC1F83F0
FC1F83F0
FC1F83F0
FC1F83F0
FC1F83F0
FC1F83F0
FC1F83F0
FC1F83F0
FC1F83F0
FC1F83F0
FC1F83F0
FC1F83F0
FC1F83F0
FC1F83F0
FC1F83F0
FFFFFFF0
FFFFFFF0
FFFFFFF0
FFFFFFF0
ENDCHAR
STARTCHAR 0449
ENCODING 1097
SWIDTH 900 0
DWIDTH 35 0
BBX 32 27 2 -6
BITMAP
FC1F83F0
FC1F83F0
FC1F83F0
FC1F83F0
FC1F83F0
FC1F83F0
FC1F83F0
FC1F83F0
FC1F83F0
FC1F83F0
FC1F83F0
FC1F83F0
FC1F83F0
FC1F83F0
FC1F83F0
FC1F83F0
FC1F83F0
FFFFFFFF
FFFFFFFF
FFFFFFFF
FFFFFFFF
0000003F
0000003F
0000003F
0000003F
0000003F
0000003F
ENDCHAR
STARTCHAR 044A
ENCODING 1098
SWIDTH 642 0
DWIDTH 25 0
BBX 24 21 1 0
BITMAP
FFE000
FFE000
FFE000
FFE000
FFE000
03E000
03E000
03FFF0
03FFF8
03FFFC
03FFFE
03E07E
03E03F
03E03F
03E03F
03E03F
03E0FE
03FFFE
03FFFC
03FFF8
03FFE0
ENDCHAR
STARTCHAR 044B
ENCODING 1099
SWIDTH 822 0
DWIDTH 32 0
BBX 28 21 2 0
BITMAP
FC0003F0
FC0003F0
FC0003F0
FC0003F0
FC0003F0
FC0003F0
FC0003F0
FFFE03F0
FFFF03F0
FFFF83F0
FFFFC3F0
FC0FC3F0
FC07E3F0
FC07E3F0
FC07E3F0
FC07E3F0
FC1FC3F0
FFFFC3F0
FFFF83F0
FFFF03F0
FFFC03F0
ENDCHAR
STARTCHAR 044C
ENCODING 1100
SWIDTH 540 0
DWIDTH 21 0
BBX 19 21 2 0
BITMAP
FC0000
FC0000
FC0000
FC0000
FC0000
FC0000
FC0000
FFFE00
FFFF00
FFFF80
FFFFC0
FC0FC0
FC07E0
FC07E0
FC07E0
FC07E0
FC1FC0
FFFFC0
FFFF80
FFFF00
FFFC00
ENDCHAR
STARTCHAR 044D
ENCODING 1101
SWIDTH 514 0
DWIDTH 20 0
BBX 18 21 1 0
BITMAP
03F000
0FFC00
3FFE00
7FFF00
7F3F80
FC1F80
F80FC0
F80FC0
000FC0
01FFC0
01FFC0
01FFC0
000FC0
F80FC0
F80FC0
FC0F80
7E1F80
7FFF00
3FFF00
1FFE00
0FF800
ENDCHAR
STARTCHAR 044E
ENCODING 1102
SWIDTH 797 0
DWIDTH 31 0
BBX 27 21 3 0
BITMAP
F803F800
F80FFE00
F81FFF00
F83FFF80
F87F1FC0
F87E0FC0
F8FC07E0
F8FC07E0
FFF803E0
FFF803E0
FFF803E0
FFF803E0
FFF803E0
F8FC03E0
F8FC07E0
F87C07E0
F87E0FC0
F83FFF80
F83FFF80
F81FFF00
F807FC00
ENDCHAR
STARTCHAR 044F
ENCODING 1103
SWIDTH 540 0
DWIDTH 21 0
BBX 18 21 1 0
BITMAP
00FFC0
0FFFC0
1FFFC0
3FFFC0
7FFFC0
7E07C0
FC07C0
FC07C0
7C07C0
7E07C0
7FFFC0
3FFFC0
0FFFC0
0FFFC0
1F87C0
1F07C0
3F07C0
3E07C0
7E07C0
7C07C0
FC07C0
ENDCHAR
STARTCHAR 0450
ENCODING 1104
SWIDTH 540 0
DWIDTH 21 0
BBX 19 29 1 0
BITMAP
1F8000
0F8000
07C000
03E000
03E000
01F000
000000
000000
01F800
07FE00
1FFF00
1FFF80
3F9FC0
7E07C0
7E07E0
7C03E0
FC03E0
FFFFE0
FFFFE0
FFFFE0
FC0000
7C0000
7E0000
7E0180
3F0380
3FFFC0
1FFFC0
0FFF80
03FE00
ENDCHAR
STARTCHAR 0451
ENCODING 1105
SWIDTH 540 0
DWIDTH 21 0
BBX 19 28 1 0
BITMAP
1E0F00
3E1F80
3E1F80
1E0F00
000000
000000
000000
01F800
07FE00
1FFF00
1FFF80
3F9FC0
7E07C0
7E07E0
7C03E0
FC03E0
FFFFE0
FFFFE0
FFFFE0
FC0000
7C0000
7E0000
7E0180
3F0380
3FFFC0
1FFFC0
0FFF80
03FE00
ENDCHAR
STARTCHAR 0452
ENCODING 1106
SWIDTH 540 0
DWIDTH 21 0
BBX 21 37 -1 -8
BITMAP
1F0000
1F0000
1F0000
FFF800
FFF800
FFF800
1F0000
1F0000
1F0F80
1F3FC0
1F7FE0
1FFFF0
1FE7F0
1F81F8
1F01F8
1F01F8
1F01F8
1F01F8
1F01F8
1F01F8
1F01F8
1F01F8
1F01F8
1F01F8
1F01F8
1F01F8
1F01F8
1F01F8
1F01F8
0001F8
0001F8
0001F8
0003F0
001FF0
001FF0
001FE0
001F80
ENDCHAR
STARTCHAR 0453
ENCODING 1107
SWIDTH 411 0
DWIDTH 16 0
BBX 14 29 2 0
BITMAP
01F8
03F0
03E0
07C0
0F80
0F00
0000
0000
FFFC
FFFC
FFFC
FFFC
FFFC
FC00
FC00
FC00
FC00
FC00
FC00
FC00
FC00
FC00
FC00
FC00
FC00
FC00
FC00
FC00
FC00
ENDCHAR
STARTCHAR 0454
ENCODING 1108
SWIDTH 514 0
DWIDTH 20 0
BBX 18 21 1 0
BITMAP
01F800
0FFE00
1FFF00
3FFF80
3F1F80
7E0FC0
7C07C0
FC07C0
FC0000
FFF000
FFF000
FFF000
FFF000
FC0000
7C07C0
7E07C0
7E0FC0
3FFF80
1FFF80
0FFE00
07FC00
ENDCHAR
STARTCHAR 0455
ENCODING 1109
SWIDTH 488 0
DWIDTH 19 0
BBX 18 21 1 0
BITMAP
03F000
1FFE00
3FFF00
7FFF80
7E1F80
7C0F80
7C0F80
7E0000
7F8000
3FF800
1FFE00
0FFF00
01FF80
001F80
F80FC0
F80FC0
FC0F80
7FBF80
3FFF00
1FFE00
0FFC00
ENDCHAR
STARTCHAR 0456
ENCODING 1110
SWIDTH 257 0
DWIDTH 10 0
BBX 6 29 2 0
BITMAP
30
7C
FC
FC
FC
38
00
00
FC
FC
FC
FC
FC
FC
FC
FC
FC
FC
FC
FC
FC
FC
FC
FC
FC
FC
FC
FC
FC
ENDCHAR
STARTCHAR 0457
ENCODING 1111
SWIDTH 257 0
DWIDTH 10 0
BBX 15 28 -2 0
BITMAP
703C
F87C
F87E
F83C
3018
0000
0000
07C0
07C0
07C0
07C0
07C0
07C0
07C0
07C0
07C0
07C0
07C0
07C0
07C0
07C0
07C0
07C0
07C0
07C0
07C0
07C0
07C0
ENDCHAR
STARTCHAR 0458
ENCODING 1112
SWIDTH 257 0
DWIDTH 10 0
BBX 10 37 -2 -8
BITMAP
0300
0FC0
0FC0
0FC0
0FC0
0780
0000
0000
0FC0
0FC0
0FC0
0FC0
0FC0
0FC0
0FC0
0FC0
0FC0
0FC0
0FC0
0FC0
0FC0
0FC0
0FC0
0FC0
0FC0
0FC0
0FC0
0FC0
0FC0
0FC0
0FC0
0FC0
1FC0
FF80
FF80
FF00
FE00
ENDCHAR
STARTCHAR 0459
ENCODING 1113
SWIDTH 848 0
DWIDTH 33 0
BBX 33 21 0 0
BITMAP
0FFFF00000
0FFFF00000
0FFFF00000
0FFFF00000
0FFFF00000
0FC3F00000
0FC3F00000
0F83FFE000
0F83FFFC00
0F83FFFE00
0F83FFFF00
0F83F07F00
0F83F01F00
0F83F01F80
1F83F01F80
1F83F01F00
7F03F07F00
FF03FFFF00
FE03FFFE00
FC03FFFC00
F803FFE000
ENDCHAR
STARTCHAR 045A
ENCODING 1114
SWIDTH 848 0
DWIDTH 33 0
BBX 31 21 2 0
BITMAP
FC0FC000
FC0FC000
FC0FC000
FC0FC000
FC0FC000
FC0FC000
FC0FC000
FC0FFF80
FFFFFFF0
FFFFFFF8
FFFFFFFC
FFFFC1FC
FFFFC07E
FC0FC07E
FC0FC07E
FC0FC07E
FC0FC1FC
FC0FFFFC
FC0FFFF8
FC0FFFF0
FC0FFF80
ENDCHAR
STARTCHAR 045B
ENCODING 1115
SWIDTH 540 0
DWIDTH 21 0
BBX 21 29 -1 0
BITMAP
1F0000
1F0000
1F0000
FFFC00
FFFC00
FFFC00
1F0000
1F0000
1F0F80
1F3FC0
1F7FE0
1FFFF0
1FE7F0
1F81F8
1F01F8
1F01F8
1F01F8
1F01F8
1F01F8
1F01F8
1F01F8
1F01F8
1F01F8
1F01F8
1F01F8
1F01F8
1F01F8
1F01F8
1F01F8
ENDCHAR
STARTCHAR 045C
ENCODING 1116
SWIDTH 540 0
DWIDTH 21 0
BBX 20 29 2 0
BITMAP
003F00
007E00
007C00
00F800
01F000
01E000
000000
000000
FC0FE0
FC0FE0
FC1FC0
FC1F80
FC3F80
FC3F00
FC7E00
FCFC00
FFFC00
FFF800
FFF800
FFFC00
FFFC00
FCFE00
FC7F00
FC7F00
FC3F80
FC1FC0
FC1FC0
FC0FE0
FC0FF0
ENDCHAR
STARTCHAR 045D
ENCODING 1117
SWIDTH 565 0
DWIDTH 22 0
BBX 18 29 2 0
BITMAP
1F0000
1F8000
0FC000
07C000
03E000
01F000
000000
000000
FC0FC0
FC0FC0
FC1FC0
FC1FC0
FC3FC0
FC3FC0
FC7FC0
FC7FC0
FCFFC0
FCFFC0
FDEFC0
FDEFC0
FFCFC0
FFCFC0
FF8FC0
FF8FC0
FF0FC0
FE0FC0
FE0FC0
FC0FC0
FC0FC0
ENDCHAR
STARTCHAR 045E
ENCODING 1118
SWIDTH 488 0
DWIDTH 19 0
BBX 20 37 0 -8
BITMAP
1E0700
1F0F00
0F9F00
07FE00
03FC00
006000
000000
000000
FC03F0
FC07E0
7E07E0
7E07C0
7E0FC0
3E0FC0
3F0F80
1F0F80
1F1F80
1F9F00
0F9F00
0FBF00
0FFE00
07FE00
07FE00
07FC00
03FC00
03FC00
03F800
01F800
01F800
01F000
01F000
03F000
07E000
3FE000
3FC000
3F8000
3F0000
ENDCHAR
STARTCHAR 045F
ENCODING 1119
SWIDTH 565 0
DWIDTH 22 0
BBX 18 28 2 -7
BITMAP
FC0FC0
FC0FC0
FC0FC0
FC0FC0
FC0FC0
FC0FC0
FC0FC0
FC0FC0
FC0FC0
FC0FC0
FC0FC0
FC0FC0
FC0FC0
FC0FC0
FC0FC0
FC0FC0
FC0FC0
FFFFC0
FFFFC0
FFFFC0
FFFFC0
03F000
03F000
03F000
03F000
03F000
03F000
03F000
ENDCHAR
STARTCHAR 0460
ENCODING 1120
SWIDTH 925 0
DWIDTH 36 0
BBX 33 28 2 0
BITMAP
FC03E01F80
FC03E01F80
FC03E01F80
FC03E01F80
FC03E01F80
FC03E01F80
FC03E01F80
FC03E01F80
FC03E01F80
FC03E01F80
FC03E01F80
FC03E01F80
FC03E01F80
FC03E01F80
FC03E01F80
FC03E01F80
FC03E01F80
FC03E01F80
FC03E01F80
FC03E01F80
FC07E01F00
FC07F01F00
7E07F03F00
7F0FF87F00
3FFFFFFE00
3FFFFFFC00
1FFE7FF800
07FC1FF000
ENDCHAR
STARTCHAR 0461
ENCODING 1121
SWIDTH 822 0
DWIDTH 32 0
BBX 29 21 2 0
BITMAP
F80F81F8
F80F81F8
F80F81F8
F80F81F8
F80F81F8
F80F81F8
F80F81F8
F80F81F8
F80F81F8
F80F81F8
F80F81F8
F80F81F8
F80F81F8
F80F81F8
FC1F81F0
FC1FC1F0
7E3FC3F0
7FFFFFF0
3FFFFFE0
1FFDFFC0
0FF0FF00
ENDCHAR
STARTCHAR 0462
ENCODING 1122
SWIDTH 617 0
DWIDTH 24 0
BBX 24 28 -1 0
BITMAP
1F8000
1F8000
1F8000
1F8000
FFFC00
FFFC00
FFFC00
1F8000
1F8000
1F8000
1FFC00
1FFFE0
1FFFF8
1FFFFC
1FFFFE
1F80FE
1F803F
1F803F
1F803F
1F803F
1F803F
1F803F
1F807F
1F83FE
1FFFFC
1FFFF8
1FFFF0
1FFF80
ENDCHAR
STARTCHAR 0463
ENCODING 1123
SWIDTH 540 0
DWIDTH 21 0
BBX 22 30 -1 0
BITMAP
1F8000
1F8000
1F8000
1F8000
1F8000
1F8000
FFFC00
FFFC00
FFFC00
1F8000
1F8000
1F8000
1F8000
1F8000
1F8000
1FFF00
1FFFE0
1FFFF0
1FFFF8
1F83F8
1F80F8
1F80FC
1F80FC
1F80FC
1F80F8
1F83F8
1FFFF8
1FFFF0
1FFFE0
1FFF80
ENDCHAR
STARTCHAR 0464
ENCODING 1124
SWIDTH 874 0
DWIDTH 34 0
BBX 32 28 2 0
BITMAP
FC007F80
FC01FFE0
FC03FFF8
FC07FFFC
FC0FF7FC
FC1FC07E
FC1F807E
FC3F003F
FC3F003F
FC3F003F
FC3E0000
FC7E0000
FFFFFE00
FFFFFE00
FFFFFE00
FFFFFE00
FC7E0000
FC3E0000
FC3E0000
FC3F003F
FC3F003F
FC3F003E
FC1F807E
FC1FE1FE
FC0FFFFC
FC07FFF8
FC03FFF0
FC00FFC0
ENDCHAR
STARTCHAR 0465
ENCODING 1125
SWIDTH 745 0
DWIDTH 29 0
BBX 26 21 2 0
BITMAP
FC01F800
FC0FFE00
FC1FFF00
FC3FFF80
FC3F1F80
FC7E0FC0
FC7C07C0
FCFC07C0
FCFC0000
FFFFF000
FFFFF000
FFFFF000
FCFC0000
FCFC0000
FC7C07C0
FC7E07C0
FC7E0FC0
FC3FFF80
FC1FFF80
FC0FFE00
FC07FC00
ENDCHAR
STARTCHAR 0466
ENCODING 1126
SWIDTH 642 0
DWIDTH 25 0
BBX 26 28 0 0
BITMAP
003F0000
003F0000
007F8000
007F8000
007F8000
00FFC000
00FFC000
01FFC000
01FFE000
01F3E000
03F3F000
03F3F000
03E1F000
07E1F800
07E1F800
07C0F800
0FFFFC00
0FFFFC00
0FFFFC00
1FFFFE00
1F9E7E00
1F1E3E00
3F1E3F00
3F1E3F00
7E1E1F00
7E1E1F80
7E1E1F80
FC1E0FC0
ENDCHAR
STARTCHAR 0467
ENCODING 1127
SWIDTH 540 0
DWIDTH 21 0
BBX 21 21 0 0
BITMAP
00FC00
00FC00
01FC00
01FE00
03FE00
03FE00
03FF00
07DF00
07DF80
0FCF80
0F8F80
0F8FC0
1FFFC0
1FFFC0
1FFFE0
3FFFE0
3E73F0
7E71F0
7E71F0
7C71F8
FC70F8
ENDCHAR
STARTCHAR 0468
ENCODING 1128
SWIDTH 925 0
DWIDTH 36 0
BBX 33 28 3 0
BITMAP
F8007E0000
F8007F0000
F8007F0000
F800FF0000
F800FF8000
F800FF8000
F801FFC000
F801FFC000
F803F7C000
F803F7E000
F803E7E000
F807E3E000
F807E3F000
F807C3F000
F80FC1F000
F80FC1F800
FFFFFFF800
FFFFFFF800
FFFFFFFC00
FFFFFFFC00
F83F3E7C00
F83F3E7E00
F83E3E7E00
F87E3E3E00
F87E3E3F00
F87C3E3F00
F8FC3E1F80
F8FC3E1F80
ENDCHAR
STARTCHAR 0469
ENCODING 1129
SWIDTH 797 0
DWIDTH 31 0
BBX 28 21 2 0
BITMAP
FC01F800
FC01F800
FC03FC00
FC03FC00
FC03FC00
FC07FE00
FC07FE00
FC07FF00
FC0F9F00
FC0F9F00
FC1F9F80
FC1F0F80
FFFFFF80
FFFFFFC0
FFFFFFC0
FFFFFFE0
FC7EF3E0
FC7CF3E0
FCFCF3F0
FCFCF1F0
FCF8F1F0
ENDCHAR
STARTCHAR 046A
ENCODING 1130
SWIDTH 848 0
DWIDTH 33 0
BBX 30 28 2 0
BITMAP
1FFFFFE0
0FFFFFE0
0FFFFFC0
07FFFFC0
07FFFF80
03F01F80
01F03F00
01F83E00
00F87E00
00FC7C00
007CFC00
007EF800
003FF800
07FFFF80
1FFFFFE0
3FFFFFF0
7FFFFFF8
7F0FC7F8
FE0FC1F8
FC0FC0FC
FC0FC0FC
FC0FC0FC
FC0FC0FC
FC0FC0FC
FC0FC0FC
FC0FC0FC
FC0FC0FC
FC0FC0FC
ENDCHAR
STARTCHAR 046B
ENCODING 1131
SWIDTH 720 0
DWIDTH 28 0
BBX 24 21 2 0
BITMAP
3FFFFC
1FFFFC
1FFFF8
0FFFF8
07C1F0
07E3F0
03E3E0
03F7C0
01F7C0
01FF80
0FFFF8
3FFFFC
7FFFFE
7FBEFF
FC3E3F
FC3E1F
FC3E1F
FC3E1F
FC3E1F
FC3E1F
FC3E1F
ENDCHAR
STARTCHAR 046C
ENCODING 1132
SWIDTH 1157 0
DWIDTH 45 0
BBX 40 28 3 0
BITMAP
FC07FFFFFC
FC03FFFFF8
FC01FFFFF8
FC01FFFFF0
FC00FFFFE0
FC00FC07E0
FC007E0FC0
FC007E0FC0
FC003F1F80
FC001F1F80
FC001FBF00
FC000FBE00
FC000FFE00
FFFFFFFFE0
FFFFFFFFF8
FFFFFFFFFC
FFFFFFFFFE
FC1FE1F1FE
FC1F81F03F
FC1F01F03F
FC3F01F03F
FC3F01F03F
FC3F01F03F
FC3F01F03F
FC3F01F03F
FC3F01F03F
FC3F01F03F
FC3F01F03F
ENDCHAR
STARTCHAR 046D
ENCODING 1133
SWIDTH 1002 0
DWIDTH 39 0
BBX 34 21 3 0
BITMAP
F80FFFFF00
F80FFFFE00
F807FFFE00
F803FFFC00
F803F0FC00
F801F0F800
F801F9F800
F800F9F000
F8007FE000
FFFFFFE000
FFFFFFFC00
FFFFFFFF00
FFFFFFFF80
F83FDFFF80
F83F1F8FC0
F83E1F8FC0
F83E1F8FC0
F83E1F8FC0
F83E1F8FC0
F83E1F8FC0
F83E1F8FC0
ENDCHAR
STARTCHAR 046E
ENCODING 1134
SWIDTH 488 0
DWIDTH 19 0
BBX 18 45 0 -8
BITMAP
3E0F80
1F1F00
0FBE00
07FC00
03F800
01F000
000000
000000
000000
3F8000
3FF800
3FFE00
3FFF00
3FFF80
003F80
001F80
000F80
000F80
001F80
001F80
00FF00
07FE00
07F800
07FC00
07FF00
003F80
000F80
000FC0
0007C0
0007C0
000FC0
000FC0
003F80
0FFF80
3FFF00
7FFE00
FFF800
FC0000
F80000
F80000
F80000
7E0000
7F0000
3E0000
0E0000
ENDCHAR
STARTCHAR 046F
ENCODING 1135
SWIDTH 488 0
DWIDTH 19 0
BBX 16 37 1 -8
BITMAP
7C3E
3E7C
1FF8
0FF0
07C0
0000
0000
0000
7F00
7FF0
7FFC
7FFE
00FE
003F
003F
003E
007E
0FFC
0FF8
0FFC
01FE
003F
001F
001F
003F
01FF
3FFE
FFFC
FFF8
FC00
F000
F000
F800
FC00
7E00
3C00
1C00
ENDCHAR
STARTCHAR 0470
ENCODING 1136
SWIDTH 720 0
DWIDTH 28 0
BBX 26 28 1 0
BITMAP
FC3F07C0
FC3F07C0
FC3F07C0
FC3F07C0
FC3F07C0
FC3F07C0
FC3F07C0
FC3F07C0
FC3F07C0
FC3F07C0
FC3F07C0
FC3F0FC0
FC3F0FC0
7E3F0FC0
7E3F1F80
3FBF3F80
3FFFFF00
1FFFFE00
0FFFFC00
03FFF000
007F0000
003F0000
003F0000
003F0000
003F0000
003F0000
003F0000
003F0000
ENDCHAR
STARTCHAR 0471
ENCODING 1137
SWIDTH 720 0
DWIDTH 28 0
BBX 27 30 1 -9
BITMAP
FC1F1F00
FC1F0F80
FC1F0F80
FC1F0FC0
FC1F0FC0
FC1F07C0
FC1F07C0
FC1F07E0
FC1F07E0
FC1F07E0
FC1F07E0
FC1F07E0
7C1F07C0
7C1F0FC0
7E1F0FC0
7F1F1F80
3FDF7F80
1FFFFF00
0FFFFE00
07FFFC00
01FFF000
001F0000
001F0000
001F0000
001F0000
001F0000
001F0000
001F0000
001F0000
001F0000
ENDCHAR
STARTCHAR 0472
ENCODING 1138
SWIDTH 668 0
DWIDTH 26 0
BBX 23 28 2 0
BITMAP
00FE00
03FF80
0FFFE0
1FFFF0
3FFFF8
3F01F8
7E00FC
7E00FC
FC007E
FC007E
FC007E
FC007E
FFFFFE
FFFFFE
FFFFFE
FFFFFE
FC007E
FC007E
FC007E
FC007E
7C007C
7E00FC
7F01FC
3FC7F8
1FFFF0
0FFFE0
07FFC0
01FF00
ENDCHAR
STARTCHAR 0473
ENCODING 1139
SWIDTH 540 0
DWIDTH 21 0
BBX 20 21 1 0
BITMAP
01F800
07FE00
1FFF80
3FFFC0
3F9FC0
7E07E0
7C07E0
7C03E0
FC03F0
FFFFF0
FFFFF0
FFFFF0
FC03F0
FC03E0
7C03E0
7E07E0
7F0FC0
3FFFC0
1FFF80
0FFF00
03FC00
ENDCHAR
STARTCHAR 0474
ENCODING 1140
SWIDTH 617 0
DWIDTH 24 0
BBX 25 28 0 0
BITMAP
FC000780
7E000F80
7E001F00
7E003F00
3E007F00
3F007C00
3F007C00
1F00F800
1F80F800
1F80F800
0F80F800
0F81F000
0FC1F000
07C1F000
07C3E000
07E3E000
03E3E000
03E3C000
03E7C000
01F7C000
01F7C000
01F78000
00FF8000
00FF8000
00FF0000
007F0000
007F0000
007F0000
ENDCHAR
STARTCHAR 0475
ENCODING 1141
SWIDTH 488 0
DWIDTH 19 0
BBX 20 21 0 0
BITMAP
FC00F0
7C03F0
7E07F0
7E07F0
3E0FF0
3E0F80
3E0F80
1F1F00
1F1F00
1F1F00
0F1E00
0FBE00
0FBE00
0FBC00
07BC00
07FC00
07FC00
03F800
03F800
03F800
01F000
ENDCHAR
STARTCHAR 0476
ENCODING 1142
SWIDTH 617 0
DWIDTH 24 0
BBX 25 34 0 0
BITMAP
3F7E0000
1F9F0000
079F0000
03CF8000
01E7C000
00000000
FC000780
7E000F80
7E001F00
7E003F00
3E007F00
3F007C00
3F007C00
1F00F800
1F80F800
1F80F800
0F80F800
0F81F000
0FC1F000
07C1F000
07C3E000
07E3E000
03E3E000
03E3C000
03E7C000
01F7C000
01F7C000
01F78000
00FF8000
00FF8000
00FF0000
007F0000
007F0000
007F0000
ENDCHAR
STARTCHAR 0477
ENCODING 1143
SWIDTH 488 0
DWIDTH 19 0
BBX 20 29 0 0
BITMAP
F9F000
7CF800
3E7C00
1F3E00
0F9E00
07CF00
000000
000000
FC00F0
7C03F0
7E07F0
7E07F0
3E0FF0
3E0F80
3E0F80
1F1F00
1F1F00
1F1F00
0F1E00
0FBE00
0FBE00
0FBC00
07BC00
07FC00
07FC00
03F800
03F800
03F800
01F000
ENDCHAR
STARTCHAR 0478
ENCODING 1144
SWIDTH 1182 0
DWIDTH 46 0
BBX 44 36 2 -8
BITMAP
00FE00000000
07FF80000000
0FFFE0000000
1FFFF0000000
3FFFF8000000
3F01F8000000
7E00FC000000
7E00FC7E03F0
FC007E7E03F0
FC007E3E03F0
FC007E3F03E0
F8007E3F07E0
F8007E1F07E0
F8007E1F87C0
F8007E1F8FC0
F8007E0F8FC0
F8007E0F8F80
FC007E0FDF80
FC007E07DF80
FC007E07DF00
FC00FC07FF00
7E00FC03FE00
7F01F803FE00
3F87F801FE00
1FFFF001FC00
0FFFE001FC00
07FFC000FC00
01FF0000F800
00000000F800
00000000F800
00000001F000
00000003F000
0000001FF000
0000001FE000
0000001FC000
0000001F8000
ENDCHAR
STARTCHAR 0479
ENCODING 1145
SWIDTH 1054 0
DWIDTH 41 0
BBX 40 29 1 -8
BITMAP
01F807E01F
07FE07E03F
1FFF83F03F
3FFFC3F03E
3F9FC3F07E
7E07E1F07E
7E07E1F87C
7C03E1F87C
FC03F0F8FC
FC03F0FCF8
FC03F07CF8
FC03F07DF8
FC03F07FF0
FC03E03FF0
7C03E03FF0
7E07E03FE0
7F0FC01FE0
3FFFC01FE0
1FFF801FC0
0FFF000FC0
03FC000FC0
0000000F80
0000000F80
0000001F00
0000003F00
000001FF00
000001FE00
000001FC00
000001F800
ENDCHAR
STARTCHAR 047A
ENCODING 1146
SWIDTH 668 0
DWIDTH 26 0
BBX 23 33 2 -3
BITMAP
003800
003800
00FE00
03FF80
0FFFE0
1FFFF0
3FFFF8
3F39F8
7E38FC
7E00FC
FC007E
FC007E
FC007E
FC007E
FC007E
F8003E
F8003E
F8007E
FC007E
FC007E
FC007E
FC007E
7C00FC
7E00FC
7F39FC
3FFFF8
1FFFF0
0FFFE0
07FFC0
01FF00
003800
003800
003800
ENDCHAR
STARTCHAR 047B
ENCODING 1147
SWIDTH 540 0
DWIDTH 21 0
BBX 20 25 1 -2
BITMAP
00F000
00F000
01F800
07FE00
1FFF80
3FFFC0
3FFFC0
7EF7E0
7EF7E0
7C03E0
FC03F0
FC03F0
FC03F0
FC03F0
FC03F0
FC03E0
7C03E0
7EE7E0
7FEFC0
3FFFC0
1FFF80
0FFF00
03FC00
00E000
00E000
ENDCHAR
STARTCHAR 047C
ENCODING 1148
SWIDTH 925 0
DWIDTH 36 0
BBX 32 35 2 0
BITMAP
00078000
000FF000
001FFF00
001C3F80
00180780
0001C000
0001C000
00C1C180
07C1C1F0
1FC381F8
3FC101FC
3FC001FE
7F00007E
7E00003F
FC00003F
FC00003F
FC00003F
FC00003F
FC00003F
FC03E03F
FC03E03F
FC03E03F
FC03E03F
FC03E03F
FC03E03F
FC03E03F
FC03E03F
FC07E03F
FC07E03F
7E07F03F
7F0FF87E
3FFFFFFE
3FFFFFFC
1FFE7FF8
07FC1FE0
ENDCHAR
STARTCHAR 047D
ENCODING 1149
SWIDTH 797 0
DWIDTH 31 0
BBX 27 28 2 0
BITMAP
003F0000
007FE000
0071FE00
00E07E00
00070000
00070000
00070000
038F1C00
0F8E1F00
3F8C1F80
3F801FC0
7F801FC0
7C0007E0
FC0003E0
FC0003E0
FC0003E0
FC1F03E0
FC1F03E0
FC1F03E0
FC1F03E0
FC1F03E0
FC1F83E0
FC1F87E0
7E3FC7E0
7FFFFFC0
3FFFFFC0
1FFBFF80
0FF0FE00
ENDCHAR
STARTCHAR 047E
ENCODING 1150
SWIDTH 925 0
DWIDTH 36 0
BBX 33 35 2 0
BITMAP
00FFFF8000
00FFFF8000
00FFFF8000
0001C00000
0001C00000
0000000000
0000000000
FC03E01F80
FC03E01F80
FC03E01F80
FC03E01F80
FC03E01F80
FC03E01F80
FC03E01F80
FC03E01F80
FC03E01F80
FC03E01F80
FC03E01F80
FC03E01F80
FC03E01F80
FC03E01F80
FC03E01F80
FC03E01F80
FC03E01F80
FC03E01F80
FC03E01F80
FC03E01F80
FC07E01F00
FC07F01F00
7E07F03F00
7F0FF87F00
3FFFFFFE00
3FFFFFFC00
1FFE7FF800
07FC1FF000
ENDCHAR
STARTCHAR 047F
ENCODING 1151
SWIDTH 822 0
DWIDTH 32 0
BBX 29 28 2 0
BITMAP
03FFFC00
03FFFC00
03FFFC00
000F0000
000F0000
00000000
00000000
F80F81F8
F80F81F8
F80F81F8
F80F81F8
F80F81F8
F80F81F8
F80F81F8
F80F81F8
F80F81F8
F80F81F8
F80F81F8
F80F81F8
F80F81F8
F80F81F8
FC1F81F0
FC1FC1F0
7E3FC3F0
7FFFFFF0
3FFFFFE0
1FFDFFC0
0FF0FF00
ENDCHAR
STARTCHAR 0480
ENCODING 1152
SWIDTH 617 0
DWIDTH 24 0
BBX 21 35 2 -7
BITMAP
01FC00
07FF80
1FFFC0
3FFFE0
3FDFF0
7E03F0
7E03F0
FC01F0
FC01F8
FC01F8
F80000
F80000
F80000
F80000
F80000
F80000
F80000
F80000
F80000
FC0000
FC0000
FC0000
7E0000
7F0000
3FFC00
1FFC00
0FFC00
03FC00
00FC00
00FC00
00FC00
00FC00
00FC00
00FC00
00FC00
ENDCHAR
STARTCHAR 0481
ENCODING 1153
SWIDTH 514 0
DWIDTH 20 0
BBX 18 28 2 -7
BITMAP
03F000
0FFC00
1FFE00
3FFF00
7F3F80
7C0F80
FC0F80
F80FC0
F80000
F80000
F80000
F80000
F80000
F80000
FC0000
FC0000
7E0000
7FF800
3FF800
1FF800
07F800
01F800
01F800
01F800
01F800
01F800
01F800
01F800
ENDCHAR
STARTCHAR 0482
ENCODING 1154
SWIDTH 617 0
DWIDTH 24 0
BBX 20 25 2 0
BITMAP
0001C0
0001C0
000380
030780
03C700
03FF00
00FE00
003E00
001F80
003FE0
0039F0
0070F0
60F020
F0E000
7DE000
3FC000
0F8000
03E000
07F800
0F7C00
0E1C00
1E0C00
1C0000
380000
380000
ENDCHAR
STARTCHAR 0483
ENCODING 1155
SWIDTH 0 0
DWIDTH 0 0
BBX 13 6 -17 23
BITMAP
0038
0038
FFF8
FFF8
E000
E000
ENDCHAR
STARTCHAR 0484
ENCODING 1156
SWIDTH 0 0
DWIDTH 0 0
BBX 14 5 -17 25
BITMAP
0040
03F8
3FFC
FE1C
F80C
ENDCHAR
STARTCHAR 0485
ENCODING 1157
SWIDTH 0 0
DWIDTH 0 0
BBX 5 6 -12 25
BITMAP
F0
F0
F0
70
38
10
ENDCHAR
STARTCHAR 0486
ENCODING 1158
SWIDTH 0 0
DWIDTH 0 0
BBX 4 6 -11 25
BITMAP
70
70
70
E0
E0
C0
ENDCHAR
STARTCHAR 0488
ENCODING 1160
SWIDTH 0 0
DWIDTH 0 0
BBX 37 34 -28 -6
BITMAP
0000600000
0001F80000
00039C0000
00030C0000
0000000000
0000000000
0FC0003F00
1CE0003380
1860006180
0000000000
0000000000
0000000000
0000000000
0000000000
0000000000
3C000001E0
7E000003F0
C700000638
C300000618
0000000000
0000000000
0000000000
0000000000
0000000000
0000000000
0780001E00
0FC0003F00
18E0006180
1860006180
0000000000
0000000000
0001F80000
00039C0000
00030C0000
ENDCHAR
STARTCHAR 0489
ENCODING 1161
SWIDTH 0 0
DWIDTH 0 0
BBX 35 36 -27 -8
BITMAP
0000300000
0000600000
0000600000
0000600000
0200E00000
0600E00000
0300C00600
0380001E00
018000F800
01C0007000
00C0000000
0080000000
0000000000
0000000000
0000000000
0000000000
E000000600
FE000007C0
3E000007E0
0600000060
0000000000
0000000000
0000000000
0000000000
0000000000
0000002000
00C0007000
01E0007000
07C0003800
0F00701800
0400601C00
0000E00C00
0000E00000
0000C00000
0000C00000
0000C00000
ENDCHAR
STARTCHAR 048A
ENCODING 1162
SWIDTH 771 0
DWIDTH 30 0
BBX 27 42 2 -8
BITMAP
0783C000
0783C000
07E7C000
03FF8000
01FF0000
00380000
00000000
FC007E00
FC00FE00
FC00FE00
FC01FE00
FC01FE00
FC03FE00
FC07FE00
FC07FE00
FC0FFE00
FC0FFE00
FC1F7E00
FC3F7E00
FC3E7E00
FC7E7E00
FC7C7E00
FCF87E00
FDF87E00
FDF07E00
FFF07E00
FFE07E00
FFC07E00
FFC07E00
FF807E00
FF807E00
FF007FE0
FE007FE0
FE007FE0
FC007FE0
000003E0
000003E0
000003E0
000003C0
000007C0
00000780
00000700
ENDCHAR
STARTCHAR 048B
ENCODING 1163
SWIDTH 642 0
DWIDTH 25 0
BBX 22 37 2 -8
BITMAP
1C0F00
1E0F00
1F1E00
0FFE00
07FC00
01F000
000000
000000
FC0FC0
FC0FC0
FC1FC0
FC1FC0
FC3FC0
FC3FC0
FC7FC0
FC7FC0
FCFFC0
FCFFC0
FDEFC0
FDEFC0
FFCFC0
FFCFC0
FF8FC0
FF8FC0
FF0FC0
FE0FFC
FE0FFC
FC0FFC
FC0FFC
00003C
00007C
00007C
000078
0000F8
0000F0
0000F0
000020
ENDCHAR
STARTCHAR 048C
ENCODING 1164
SWIDTH 617 0
DWIDTH 24 0
BBX 24 28 -1 0
BITMAP
1F8000
1F8000
1F8000
1F8000
FFFC00
FFFC00
FFFC00
1F8000
1F8000
1F8000
1FFC00
1FFFE0
1FFFF8
1FFFFC
1FFFFE
1F80FE
1F803F
1F803F
1F803F
1F803F
1F803F
1F803F
1F807F
1F83FE
1FFFFC
1FFFF8
1FFFF0
1FFF80
ENDCHAR
STARTCHAR 048D
ENCODING 1165
SWIDTH 540 0
DWIDTH 21 0
BBX 22 31 -1 0
BITMAP
1F8000
1F8000
1F8000
FFFC00
FFFC00
FFFC00
FFFC00
1F8000
1F8000
1F8000
1F8000
1F8000
1F8000
1F8000
1F8000
1F8000
1FFF00
1FFFE0
1FFFF0
1FFFF8
1F83F8
1F80F8
1F80FC
1F80FC
1F80FC
1F80F8
1F83F8
1FFFF8
1FFFF0
1FFFE0
1FFF80
ENDCHAR
STARTCHAR 048E
ENCODING 1166
SWIDTH 617 0
DWIDTH 24 0
BBX 22 28 2 0
BITMAP
FFFC00
FFFF80
FFFFC0
FFFFE0
FFFFF0
FC03F8
FC01F8
FC00F8
FC00FC
FC08FC
FC1CFC
FC0FF8
FC07F8
FC07F8
FFFFF0
FFFFE0
FFFFF0
FFFF78
FC0038
FC0010
FC0000
FC0000
FC0000
FC0000
FC0000
FC0000
FC0000
FC0000
ENDCHAR
STARTCHAR 048F
ENCODING 1167
SWIDTH 540 0
DWIDTH 21 0
BBX 19 29 2 -8
BITMAP
F8F800
FBFE00
FFFF00
FFFF80
FF3F80
FC0FC0
FC0FC0
FC07C0
FC07C0
FC07E0
FC07E0
FC07E0
FC07E0
FC37C0
FC7FC0
FC3FC0
FE1FC0
FFFF80
FFFF00
FFFF80
FDFFC0
FC01C0
FC0000
FC0000
FC0000
FC0000
FC0000
FC0000
FC0000
ENDCHAR
STARTCHAR 0490
ENCODING 1168
SWIDTH 540 0
DWIDTH 21 0
BBX 19 35 2 0
BITMAP
0007E0
0007E0
0007E0
0007E0
0007E0
0007E0
0007E0
FFFFE0
FFFFE0
FFFFE0
FFFFE0
FFFFE0
FC0000
FC0000
FC0000
FC0000
FC0000
FC0000
FC0000
FC0000
FC0000
FC0000
FC0000
FC0000
FC0000
FC0000
FC0000
FC0000
FC0000
FC0000
FC0000
FC0000
FC0000
FC0000
FC0000
ENDCHAR
STARTCHAR 0491
ENCODING 1169
SWIDTH 437 0
DWIDTH 17 0
BBX 15 27 2 0
BITMAP
007E
007E
007E
007E
007E
007E
FFFE
FFFE
FFFE
FFFE
FFFE
FC00
FC00
FC00
FC00
FC00
FC00
FC00
FC00
FC00
FC00
FC00
FC00
FC00
FC00
FC00
FC00
ENDCHAR
STARTCHAR 0492
ENCODING 1170
SWIDTH 540 0
DWIDTH 21 0
BBX 21 28 0 0
BITMAP
3FFFF8
3FFFF8
3FFFF8
3FFFF8
3FFFF8
3F0000
3F0000
3F0000
3F0000
3F0000
3F0000
3F0000
FFF800
FFF800
FFF800
3F0000
3F0000
3F0000
3F0000
3F0000
3F0000
3F0000
3F0000
3F0000
3F0000
3F0000
3F0000
3F0000
ENDCHAR
STARTCHAR 0493
ENCODING 1171
SWIDTH 411 0
DWIDTH 16 0
BBX 17 21 -1 0
BITMAP
1FFF80
1FFF80
1FFF80
1FFF80
1FFF80
1F8000
1F8000
1F8000
1F8000
FFF800
FFF800
FFF800
1F8000
1F8000
1F8000
1F8000
1F8000
1F8000
1F8000
1F8000
1F8000
ENDCHAR
STARTCHAR 0494
ENCODING 1172
SWIDTH 617 0
DWIDTH 24 0
BBX 21 34 2 -6
BITMAP
FFFFE0
FFFFE0
FFFFE0
FFFFE0
FFFFE0
FC0000
FC0000
FC0000
FC0000
FC0000
FC0000
FC0000
FFF800
FFFF00
FFFF80
FFFFC0
FC3FE0
FC07F0
FC03F0
FC01F0
FC01F8
FC01F8
FC01F8
FC01F8
FC01F8
FC01F8
FC01F0
FC01F0
0003F0
0007E0
003FE0
003FC0
003F80
003E00
ENDCHAR
STARTCHAR 0495
ENCODING 1173
SWIDTH 514 0
DWIDTH 20 0
BBX 17 26 2 -5
BITMAP
FFFC00
FFFC00
FFFC00
FFFC00
FFFC00
FC0000
FC0000
FC0000
FF0000
FFF000
FFFC00
FFFE00
FFFF00
FC3F00
FC1F80
FC1F80
FC0F80
FC0F80
FC0F80
FC1F80
FC1F80
003F00
007F00
00FE00
007C00
003000
ENDCHAR
STARTCHAR 0496
ENCODING 1174
SWIDTH 1054 0
DWIDTH 41 0
BBX 40 35 1 -7
BITMAP
FE00FC03F8
FE00FC03F8
7F00FC07F0
3F80FC07E0
3F80FC0FE0
1FC0FC0FC0
0FC0FC1FC0
0FE0FC3F80
07E0FC3F00
03F0FC7F00
03F0FC7E00
01F8FCFC00
00FFFFFC00
00FFFFFC00
01FFFFFC00
01FFFFFE00
03FFFFFE00
07F0FC7F00
07E0FC3F00
0FE0FC3F80
0FC0FC1FC0
1FC0FC1FC0
3F80FC0FE0
3F80FC0FE0
7F00FC07FF
7F00FC07FF
FE00FC03FF
FE00FC03FF
000000001F
000000001F
000000001F
000000001F
000000001F
000000001F
000000001F
ENDCHAR
STARTCHAR 0497
ENCODING 1175
SWIDTH 900 0
DWIDTH 35 0
BBX 34 28 1 -7
BITMAP
FE07C07F00
7E07C0FE00
7F07C0FC00
3F07C1FC00
1F87C1F800
1F87C3F000
0FC7C7F000
07E7C7E000
07FFFFC000
03FFFFC000
03FFFFC000
07FFFFC000
07FFFFE000
0FC7C7E000
0FC7C3F000
1F87C3F800
3F87C1F800
3F07C1FFC0
7F07C0FFC0
7E07C0FFC0
FE07C07FC0
00000007C0
00000007C0
00000007C0
00000007C0
00000007C0
00000007C0
00000007C0
ENDCHAR
STARTCHAR 0498
ENCODING 1176
SWIDTH 617 0
DWIDTH 24 0
BBX 21 37 1 -9
BITMAP
01FE00
0FFF80
1FFFE0
3FFFF0
7FDFF0
7E03F8
7E01F8
7C01F8
0001F8
0001F8
0003F0
000FF0
01FFE0
01FF80
01FFC0
01FFE0
0007F0
0001F8
0001F8
0000F8
FC00F8
FC01F8
7E01F8
7F07F8
7FFFF0
3FFFE0
0FFFC0
03FF00
00FC00
00FC00
00FC00
00FC00
00FC00
00FC00
00FC00
00FC00
00FC00
ENDCHAR
STARTCHAR 0499
ENCODING 1177
SWIDTH 514 0
DWIDTH 20 0
BBX 18 30 1 -9
BITMAP
03F000
1FFE00
3FFF00
7FFF80
7E1F80
7C0F80
000F80
000F80
001F80
03FF00
03FC00
03FF00
001F80
000FC0
000FC0
FC0FC0
FE0FC0
7FFF80
7FFF80
1FFF00
0FFC00
03F000
03F000
03F000
03F000
03F000
03F000
03F000
03F000
03F000
ENDCHAR
STARTCHAR 049A
ENCODING 1178
SWIDTH 720 0
DWIDTH 28 0
BBX 26 35 2 -7
BITMAP
FC01FC00
FC01FC00
FC03F800
FC03F000
FC07F000
FC0FE000
FC0FC000
FC1FC000
FC1F8000
FC3F8000
FC7F0000
FC7E0000
FFFE0000
FFFC0000
FFFE0000
FFFE0000
FFFF0000
FC3F8000
FC1F8000
FC1FC000
FC0FE000
FC07E000
FC07F000
FC03F000
FC03FFC0
FC01FFC0
FC00FFC0
FC00FFC0
00000FC0
00000FC0
00000FC0
00000FC0
00000FC0
00000FC0
00000FC0
ENDCHAR
STARTCHAR 049B
ENCODING 1179
SWIDTH 642 0
DWIDTH 25 0
BBX 22 28 2 -7
BITMAP
FC0FE0
FC0FE0
FC1FC0
FC1F80
FC3F80
FC3F00
FC7E00
FCFC00
FFFC00
FFF800
FFF800
FFFC00
FFFC00
FCFE00
FC7F00
FC7F00
FC3F80
FC1FFC
FC1FFC
FC0FFC
FC0FFC
00007C
00007C
00007C
00007C
00007C
00007C
00007C
ENDCHAR
STARTCHAR 049C
ENCODING 1180
SWIDTH 642 0
DWIDTH 25 0
BBX 24 28 2 0
BITMAP
FC00FE
FC00FE
FC01FC
FC01FC
FC01F8
FC03F8
FC03F0
FCE7E0
FCE7E0
FCEFC0
FCEFC0
FCEF80
FFFF80
FFFF80
FFFF80
FFFFC0
FFFFC0
FCEFE0
FCE7E0
FCE7F0
FCE3F0
FC03F8
FC01F8
FC01FC
FC01FC
FC00FE
FC00FE
FC007F
ENDCHAR
STARTCHAR 049D
ENCODING 1181
SWIDTH 591 0
DWIDTH 23 0
BBX 21 21 2 0
BITMAP
FC03F8
FC03F0
FC07F0
FC07E0
FC07E0
FDCFC0
FDCFC0
FDDF80
FFFF00
FFFF00
FFFF00
FFFF00
FFFF80
FDDF80
FDCFC0
FDCFC0
FDC7E0
FC07F0
FC07F0
FC03F8
FC03F8
ENDCHAR
STARTCHAR 049E
ENCODING 1182
SWIDTH 642 0
DWIDTH 25 0
BBX 26 28 -1 0
BITMAP
0FC01FC0
0FC03F80
0FC03F00
0FC07F00
FFFCFE00
FFFCFE00
FFFDFC00
0FC1F800
0FC3F800
0FC7F000
0FC7E000
0FCFE000
0FFFC000
0FFF8000
0FFFC000
0FFFE000
0FFFE000
0FC7F000
0FC3F800
0FC1F800
0FC1FC00
0FC0FE00
0FC07E00
0FC07F00
0FC03F80
0FC03F80
0FC01FC0
0FC00FC0
ENDCHAR
STARTCHAR 049F
ENCODING 1183
SWIDTH 540 0
DWIDTH 21 0
BBX 22 29 -1 0
BITMAP
0F8000
0F8000
0F8000
FFF800
FFF800
FFF800
0F8000
0F8000
0F81FC
0F81F8
0F83F0
0F87E0
0F87E0
0F8FC0
0F8F80
0F9F80
0FFF00
0FFE00
0FFF00
0FFF00
0F9F80
0F9F80
0F8FC0
0F87E0
0F87E0
0F83F0
0F83F8
0F81F8
0F80FC
ENDCHAR
STARTCHAR 04A0
ENCODING 1184
SWIDTH 822 0
DWIDTH 32 0
BBX 31 28 1 0
BITMAP
FFFC00FE
FFFC01FC
FFFC03F8
FFFC03F8
FFFC07F0
007C07E0
007C0FE0
007C1FC0
007C1F80
007C3F80
007C3F00
007C7E00
007FFE00
007FFC00
007FFE00
007FFF00
007FFF00
007C3F80
007C1FC0
007C0FC0
007C0FE0
007C07E0
007C07F0
007C03F8
007C01F8
007C01FC
007C00FE
007C007E
ENDCHAR
STARTCHAR 04A1
ENCODING 1185
SWIDTH 694 0
DWIDTH 27 0
BBX 27 21 1 0
BITMAP
FFF81FC0
FFF81FC0
FFF83F80
FFF83F00
FFF87F00
00F87E00
00F8FC00
00F9FC00
00FFF800
00FFF000
00FFF000
00FFF800
00FFF800
00F9FC00
00F8FE00
00F87E00
00F87F00
00F83F80
00F83F80
00F81FC0
00F81FE0
ENDCHAR
STARTCHAR 04A2
ENCODING 1186
SWIDTH 771 0
DWIDTH 30 0
BBX 27 35 2 -7
BITMAP
FC007E00
FC007E00
FC007E00
FC007E00
FC007E00
FC007E00
FC007E00
FC007E00
FC007E00
FC007E00
FC007E00
FC007E00
FFFFFE00
FFFFFE00
FFFFFE00
FFFFFE00
FC007E00
FC007E00
FC007E00
FC007E00
FC007E00
FC007E00
FC007E00
FC007E00
FC007FE0
FC007FE0
FC007FE0
FC007FE0
000003E0
000003E0
000003E0
000003E0
000003E0
000003E0
000003E0
ENDCHAR
STARTCHAR 04A3
ENCODING 1187
SWIDTH 642 0
DWIDTH 25 0
BBX 22 28 2 -7
BITMAP
FC0FC0
FC0FC0
FC0FC0
FC0FC0
FC0FC0
FC0FC0
FC0FC0
FC0FC0
FC0FC0
FFFFC0
FFFFC0
FFFFC0
FFFFC0
FC0FC0
FC0FC0
FC0FC0
FC0FC0
FC0FFC
FC0FFC
FC0FFC
FC0FFC
00007C
00007C
00007C
00007C
00007C
00007C
00007C
ENDCHAR
STARTCHAR 04A4
ENCODING 1188
SWIDTH 977 0
DWIDTH 38 0
BBX 35 28 2 0
BITMAP
FC007FFFE0
FC007FFFE0
FC007FFFE0
FC007FFFE0
FC007FFFE0
FC007E0000
FC007E0000
FC007E0000
FC007E0000
FC007E0000
FC007E0000
FC007E0000
FFFFFE0000
FFFFFE0000
FFFFFE0000
FFFFFE0000
FC007E0000
FC007E0000
FC007E0000
FC007E0000
FC007E0000
FC007E0000
FC007E0000
FC007E0000
FC007E0000
FC007E0000
FC007E0000
FC007E0000
ENDCHAR
STARTCHAR 04A5
ENCODING 1189
SWIDTH 694 0
DWIDTH 27 0
BBX 24 21 2 0
BITMAP
FC0FFF
FC0FFF
FC0FFF
FC0FFF
FC0FFF
FC0FC0
FC0FC0
FC0FC0
FC0FC0
FFFFC0
FFFFC0
FFFFC0
FFFFC0
FC0FC0
FC0FC0
FC0FC0
FC0FC0
FC0FC0
FC0FC0
FC0FC0
FC0FC0
ENDCHAR
STARTCHAR 04A6
ENCODING 1190
SWIDTH 1028 0
DWIDTH 40 0
BBX 37 34 2 -6
BITMAP
FFFFFE0000
FFFFFE0000
FFFFFE0000
FFFFFE0000
FFFFFE0000
FC007E0000
FC007E0000
FC007E0000
FC007E0000
FC007E0000
FC007E0000
FC007E0000
FC007FF800
FC007FFF00
FC007FFFC0
FC007FFFE0
FC007FFFF0
FC007E07F0
FC007E03F8
FC007E01F8
FC007E01F8
FC007E00F8
FC007E00F8
FC007E00F8
FC007E00F8
FC007E00F8
FC007E00F8
FC007E01F8
00000001F0
00000003F0
0000001FE0
0000001FE0
0000001FC0
0000001F00
ENDCHAR
STARTCHAR 04A7
ENCODING 1191
SWIDTH 848 0
DWIDTH 33 0
BBX 31 26 2 -5
BITMAP
FFFFC000
FFFFC000
FFFFC000
FFFFC000
FFFFC000
FC0FC000
FC0FC000
FC0FC000
FC0FFC00
FC0FFFC0
FC0FFFE0
FC0FFFF8
FC0FFFF8
FC0FC1FC
FC0FC0FC
FC0FC07E
FC0FC07E
FC0FC07E
FC0FC07E
FC0FC07C
FC0FC0FC
000001FC
000003F8
000003F0
000003E0
000001C0
ENDCHAR
STARTCHAR 04A8
ENCODING 1192
SWIDTH 797 0
DWIDTH 31 0
BBX 28 28 2 0
BITMAP
01C0F800
07C3FE00
1FC7FF00
3FCFFF80
3FCFFFC0
7F1F8FC0
7E1F07E0
FC1F07E0
FC3F07E0
FC3F03E0
FC3F03E0
FC3F03E0
FC3F03E0
FC3F03E0
FC3F03E0
FC3F03E0
FC1F07E0
FC1F07E0
FC1F87E0
FE1F8FC0
7E0FCFC0
7F07FFC0
3F87FF80
3FE3FF00
1FFFFFF0
0FFFFFF0
03FFFFF0
00FFE7F0
ENDCHAR
STARTCHAR 04A9
ENCODING 1193
SWIDTH 642 0
DWIDTH 25 0
BBX 22 22 2 -1
BITMAP
070780
1F1FE0
3F3FF0
7F7FF0
7F7FF8
FC78F8
FC78FC
FCF0FC
F8F0FC
F8F0FC
F8F0FC
F8F0FC
FC78FC
FC78FC
FC79F8
7E7FF8
7F3FF0
3FFFF0
1FFFFC
0FFFFC
03FFFC
000004
ENDCHAR
STARTCHAR 04AA
ENCODING 1194
SWIDTH 642 0
DWIDTH 25 0
BBX 22 37 2 -9
BITMAP
01FE00
07FF80
0FFFE0
1FFFF0
3FFFF8
7F01F8
7E00FC
7C00FC
FC00FC
FC007C
FC0000
F80000
F80000
F80000
F80000
F80000
F80000
F80000
FC0000
FC00FC
FC00FC
7E00FC
7E01F8
3F87F8
3FFFF0
1FFFE0
07FFC0
03FF00
00FC00
00FC00
00FC00
00FC00
00FC00
00FC00
00FC00
00FC00
00FC00
ENDCHAR
STARTCHAR 04AB
ENCODING 1195
SWIDTH 514 0
DWIDTH 20 0
BBX 18 30 1 -9
BITMAP
01F800
0FFE00
1FFF00
3FFF80
3F1F80
7E0FC0
7C07C0
7C07C0
FC0000
FC0000
FC0000
FC0000
FC0000
FC0000
7C07C0
7E07C0
7E0FC0
3FFF80
1FFF80
0FFF00
07FC00
01F000
01F000
01F000
01F000
01F000
01F000
01F000
01F000
01F000
ENDCHAR
STARTCHAR 04AC
ENCODING 1196
SWIDTH 617 0
DWIDTH 24 0
BBX 22 35 1 -7
BITMAP
FFFFFC
FFFFFC
FFFFFC
FFFFFC
FFFFFC
00FC00
00FC00
00FC00
00FC00
00FC00
00FC00
00FC00
00FC00
00FC00
00FC00
00FC00
00FC00
00FC00
00FC00
00FC00
00FC00
00FC00
00FC00
00FC00
00FF80
00FF80
00FF80
00FF80
000F80
000F80
000F80
000F80
000F80
000F80
000F80
ENDCHAR
STARTCHAR 04AD
ENCODING 1197
SWIDTH 488 0
DWIDTH 19 0
BBX 18 28 1 -7
BITMAP
FFFFC0
FFFFC0
FFFFC0
FFFFC0
FFFFC0
03F000
03F000
03F000
03F000
03F000
03F000
03F000
03F000
03F000
03F000
03F000
03F000
03FF00
03FF00
03FF00
03FF00
003F00
003F00
003F00
003F00
003F00
003F00
003F00
ENDCHAR
STARTCHAR 04AE
ENCODING 1198
SWIDTH 617 0
DWIDTH 24 0
BBX 24 28 0 0
BITMAP
FC003F
7E007E
7E007E
3F00FC
3F00FC
1F81F8
1F81F8
0FC1F0
0FC3F0
07C3E0
07E7E0
03E7C0
03FFC0
01FF80
01FF80
00FF00
00FF00
007E00
007E00
007E00
007E00
007E00
007E00
007E00
007E00
007E00
007E00
007E00
ENDCHAR
STARTCHAR 04AF
ENCODING 1199
SWIDTH 488 0
DWIDTH 19 0
BBX 20 29 0 -8
BITMAP
FC03F0
7C03E0
7E07E0
7E07E0
3E07C0
3E0FC0
3F0FC0
1F0F80
1F0F80
1F9F80
0F9F00
0F9F00
0F9E00
07FE00
07FE00
07FC00
03FC00
03FC00
03F800
01F800
01F800
01F800
01F800
01F800
01F800
01F800
01F800
01F800
01F800
ENDCHAR
STARTCHAR 04B0
ENCODING 1200
SWIDTH 617 0
DWIDTH 24 0
BBX 24 28 0 0
BITMAP
FC003F
7E007E
7E007E
3F00FC
3F00FC
1F81F8
1F81F8
0FC1F0
0FC3F0
07C3E0
07E7E0
03E7C0
03FFC0
01FF80
01FF80
03FFE0
03FFE0
03FFE0
007E00
007E00
007E00
007E00
007E00
007E00
007E00
007E00
007E00
007E00
ENDCHAR
STARTCHAR 04B1
ENCODING 1201
SWIDTH 488 0
DWIDTH 19 0
BBX 20 29 0 -8
BITMAP
FC03F0
7C03E0
7E07E0
7E07E0
3E07C0
3E0FC0
3F0FC0
1F0F80
1F0F80
1F9F80
0F9F00
0F9F00
0F9E00
07FE00
07FE00
07FC00
03FC00
1FFF80
1FFF80
1FFF80
1FFF80
01F800
01F800
01F800
01F800
01F800
01F800
01F800
01F800
ENDCHAR
STARTCHAR 04B2
ENCODING 1202
SWIDTH 642 0
DWIDTH 25 0
BBX 25 35 1 -7
BITMAP
FC00FE00
FE00FC00
7E01FC00
7F01F800
3F03F800
1F83F000
1F87E000
0FC7E000
0FEFC000
07EFC000
03FF8000
03FF8000
01FF0000
01FE0000
01FE0000
01FF0000
03FF0000
03FF8000
07EFC000
0FEFC000
0FC7E000
1FC7E000
1F83F000
3F03F800
7F01FF80
7E01FF80
FE00FF80
FC00FF80
00001F80
00001F80
00001F80
00001F80
00001F80
00001F80
00001F80
ENDCHAR
STARTCHAR 04B3
ENCODING 1203
SWIDTH 540 0
DWIDTH 21 0
BBX 20 28 1 -7
BITMAP
FC0FC0
FC0FC0
7E1F80
7E1F00
3F3F00
1F3E00
1FFE00
0FFC00
0FFC00
07F800
07F000
07F800
0FFC00
0FFC00
1FFE00
1F3E00
3F3F00
7E1FF0
7E1FF0
FC0FF0
FC0FF0
0003F0
0003F0
0003F0
0003F0
0003F0
0003F0
0003F0
ENDCHAR
STARTCHAR 04B4
ENCODING 1204
SWIDTH 874 0
DWIDTH 34 0
BBX 32 35 1 -7
BITMAP
FFFFC1F0
FFFFC1F0
FFFFC1F0
FFFFC1F0
FFFFC1F0
03F001F0
03F001F0
03F001F0
03F001F0
03F001F0
03F001F0
03F001F0
03F001F0
03F001F0
03F001F0
03F001F0
03F001F0
03F001F0
03F001F0
03F001F0
03F001F0
03F001F0
03F001F0
03F001F0
03FFFFFF
03FFFFFF
03FFFFFF
03FFFFFF
0000001F
0000001F
0000001F
0000001F
0000001F
0000001F
0000001F
ENDCHAR
STARTCHAR 04B5
ENCODING 1205
SWIDTH 668 0
DWIDTH 26 0
BBX 25 27 1 -6
BITMAP
FFF8FC00
FFF8FC00
FFF8FC00
FFF8FC00
FFF8FC00
0FC0FC00
0FC0FC00
0FC0FC00
0FC0FC00
0FC0FC00
0FC0FC00
0FC0FC00
0FC0FC00
0FC0FC00
0FC0FC00
0FC0FC00
0FC0FC00
0FFFFF80
0FFFFF80
0FFFFF80
0FFFFF80
00000F80
00000F80
00000F80
00000F80
00000F80
00000F80
ENDCHAR
STARTCHAR 04B6
ENCODING 1206
SWIDTH 745 0
DWIDTH 29 0
BBX 26 35 3 -7
BITMAP
F800FC00
F800FC00
F800FC00
F800FC00
F800FC00
F800FC00
F800FC00
F800FC00
F800FC00
F800FC00
FC00FC00
FC00FC00
FE00FC00
7FDFFC00
7FFFFC00
3FFFFC00
0FFFFC00
03FEFC00
0000FC00
0000FC00
0000FC00
0000FC00
0000FC00
0000FC00
0000FFC0
0000FFC0
0000FFC0
0000FFC0
00000FC0
00000FC0
00000FC0
00000FC0
00000FC0
00000FC0
00000FC0
ENDCHAR
STARTCHAR 04B7
ENCODING 1207
SWIDTH 617 0
DWIDTH 24 0
BBX 22 28 2 -7
BITMAP
F80F80
F80F80
F80F80
F80F80
F80F80
F80F80
F80F80
F80F80
F80F80
FC0F80
FFFF80
7FFF80
3FFF80
1FFF80
03FF80
000F80
000F80
000FFC
000FFC
000FFC
000FFC
0000FC
0000FC
0000FC
0000FC
0000FC
0000FC
0000FC
ENDCHAR
STARTCHAR 04B8
ENCODING 1208
SWIDTH 668 0
DWIDTH 26 0
BBX 22 28 2 0
BITMAP
FC00FC
FC00FC
FC00FC
FC00FC
FC00FC
FC00FC
FC00FC
FC00FC
FC38FC
FC38FC
FC38FC
FC38FC
7E38FC
7FFFFC
3FFFFC
1FFFFC
0FFFFC
01FFFC
0038FC
0038FC
0038FC
0038FC
0000FC
0000FC
0000FC
0000FC
0000FC
0000FC
ENDCHAR
STARTCHAR 04B9
ENCODING 1209
SWIDTH 540 0
DWIDTH 21 0
BBX 18 21 2 0
BITMAP
F80FC0
F80FC0
F80FC0
F80FC0
F80FC0
F9EFC0
F9EFC0
F9EFC0
FDEFC0
FDEFC0
7FFFC0
7FFFC0
3FFFC0
1FFFC0
03FFC0
01EFC0
01EFC0
01EFC0
000FC0
000FC0
000FC0
ENDCHAR
STARTCHAR 04BA
ENCODING 1210
SWIDTH 694 0
DWIDTH 27 0
BBX 22 28 3 0
BITMAP
F80000
F80000
F80000
F80000
F80000
F80000
F80000
F80000
F80000
F80000
F8F000
FFFF80
FFFFC0
FFFFF0
FFFFF0
F803F8
F801F8
F800F8
F800F8
F800F8
F800FC
F800FC
F800FC
F800FC
F800FC
F800FC
F800FC
F800FC
ENDCHAR
STARTCHAR 04BB
ENCODING 1211
SWIDTH 540 0
DWIDTH 21 0
BBX 18 29 2 0
BITMAP
F80000
F80000
F80000
F80000
F80000
F80000
F80000
F80000
F87C00
F9FE00
FBFF00
FFFF80
FF3F80
FC0FC0
F80FC0
F80FC0
F80FC0
F80FC0
F80FC0
F80FC0
F80FC0
F80FC0
F80FC0
F80FC0
F80FC0
F80FC0
F80FC0
F80FC0
F80FC0
ENDCHAR
STARTCHAR 04BC
ENCODING 1212
SWIDTH 745 0
DWIDTH 29 0
BBX 29 28 -1 0
BITMAP
0003F800
000FFF00
003FFF80
007FFFC0
007FFFE0
00FE0FE0
01FC03F0
F1F803F0
F1F801F0
71F001F0
7BF001F0
7FF001F8
3FFFFFF8
3FFFFFF8
0FFFFFF8
03FFFFF8
03F00000
03F00000
01F00000
01F80000
01F80000
01FC0000
00FE0000
00FF8FC0
007FFFE0
003FFFE0
001FFFE0
0007FFC0
ENDCHAR
STARTCHAR 04BD
ENCODING 1213
SWIDTH 591 0
DWIDTH 23 0
BBX 24 21 -1 0
BITMAP
000FC0
003FF0
00FFF8
01FFFC
01FCFE
E3F03E
E3E03E
F3E03F
FFE01F
7FFFFF
3FFFFF
1FFFFF
07E000
07E000
03E000
03F008
03F81C
01FFFE
00FFFE
007FFC
001FF0
ENDCHAR
STARTCHAR 04BE
ENCODING 1214
SWIDTH 745 0
DWIDTH 29 0
BBX 29 37 -1 -9
BITMAP
0003F800
000FFF00
003FFF80
007FFFC0
007FFFE0
00FE0FE0
01FC03F0
F1F803F0
F1F801F0
71F001F0
7BF001F0
7FF001F8
3FFFFFF8
3FFFFFF8
0FFFFFF8
03FFFFF8
03F00000
03F00000
01F00000
01F80000
01F80000
01FC0000
00FE0000
00FF8FC0
007FFFE0
003FFFE0
001FFFE0
0007FFC0
0000FC00
0000FC00
0000FC00
0000FC00
0000FC00
0000FC00
0000FC00
0000FC00
0000FC00
ENDCHAR
STARTCHAR 04BF
ENCODING 1215
SWIDTH 591 0
DWIDTH 23 0
BBX 24 30 -1 -9
BITMAP
000FC0
003FF0
00FFF8
01FFFC
01FCFE
E3F03E
E3E03E
F3E03F
FFE01F
7FFFFF
3FFFFF
1FFFFF
07E000
07E000
03E000
03F008
03F81C
01FFFE
00FFFE
007FFC
001FF0
000F80
000F80
000F80
000F80
000F80
000F80
000F80
000F80
000F80
ENDCHAR
STARTCHAR 04C0
ENCODING 1216
SWIDTH 282 0
DWIDTH 11 0
BBX 6 28 3 0
BITMAP
FC
FC
FC
FC
FC
FC
FC
FC
FC
FC
FC
FC
FC
FC
FC
FC
FC
FC
FC
FC
FC
FC
FC
FC
FC
FC
FC
FC
ENDCHAR
STARTCHAR 04C1
ENCODING 1217
SWIDTH 977 0
DWIDTH 38 0
BBX 38 35 1 0
BITMAP
000F078000
000F078000
000FDF8000
0007FF0000
0003FE0000
0000700000
0000000000
FE00FC03F8
FE00FC03F8
7F00FC07F0
3F80FC07E0
3F80FC0FE0
1FC0FC0FC0
0FC0FC1FC0
0FE0FC3F80
07E0FC3F00
03F0FC7F00
03F0FC7E00
01F8FCFC00
00FFFFFC00
00FFFFFC00
01FFFFFC00
01FFFFFE00
03FFFFFE00
07F0FC7F00
07E0FC3F00
0FE0FC3F80
0FC0FC1FC0
1FC0FC1FC0
3F80FC0FE0
3F80FC0FE0
7F00FC07F0
7F00FC07F0
FE00FC03F8
FE00FC03FC
ENDCHAR
STARTCHAR 04C2
ENCODING 1218
SWIDTH 848 0
DWIDTH 33 0
BBX 32 29 1 0
BITMAP
00781C00
00783C00
003E7C00
003FF800
001FF000
0007C000
00000000
00000000
FE07C07F
7E07C0FE
7F07C0FC
3F07C1FC
1F87C1F8
1F87C3F0
0FC7C7F0
07E7C7E0
07FFFFC0
03FFFFC0
03FFFFC0
07FFFFC0
07FFFFE0
0FC7C7E0
0FC7C3F0
1F87C3F8
3F87C1F8
3F07C1FC
7F07C0FC
7E07C0FE
FE07C07F
ENDCHAR
STARTCHAR 04C3
ENCODING 1219
SWIDTH 642 0
DWIDTH 25 0
BBX 23 35 2 -7
BITMAP
FC01FC
FC03F8
FC07F0
FC07F0
FC0FE0
FC0FC0
FC1FC0
FC3F80
FC3F00
FC7F00
FC7E00
FCFC00
FFFC00
FFFF80
FFFFE0
FFFFF0
FFFFF8
FC03F8
FC01FC
FC00FC
FC00FC
FC007C
FC007E
FC007E
FC007E
FC007C
FC007C
FC00FC
0000FC
0001F8
000FF8
000FF0
000FE0
000F80
000800
ENDCHAR
STARTCHAR 04C4
ENCODING 1220
SWIDTH 565 0
DWIDTH 22 0
BBX 19 27 2 -6
BITMAP
FC0FE0
FC0FE0
FC1FC0
FC1F80
FC3F00
FC7F00
FC7E00
FCFC00
FFFC00
FFF800
FFFE00
FFFF00
FFFF80
FC3FC0
FC0FE0
FC07E0
FC07E0
FC03E0
FC03E0
FC07E0
FC07E0
000FC0
001FC0
003F80
001F00
001E00
000800
ENDCHAR
STARTCHAR 04C5
ENCODING 1221
SWIDTH 771 0
DWIDTH 30 0
BBX 28 36 1 -8
BITMAP
07FFFF00
07FFFF00
07FFFF00
07FFFF00
07FFFF00
07E03F00
07E03F00
07E03F00
07E03F00
07E03F00
07E03F00
07E03F00
07E03F00
07C03F00
07C03F00
07C03F00
07C03F00
07C03F00
0FC03F00
0FC03F00
0FC03F00
1F803F00
1F803F00
FF803F00
FF003FF0
FE003FF0
FE003FF0
F8003FF0
000001F0
000001F0
000001F0
000001E0
000003E0
000003C0
000003C0
00000080
ENDCHAR
STARTCHAR 04C6
ENCODING 1222
SWIDTH 642 0
DWIDTH 25 0
BBX 24 29 0 -8
BITMAP
0FFFF0
0FFFF0
0FFFF0
0FFFF0
0FFFF0
0FC3F0
0FC3F0
0FC3F0
0F83F0
0F83F0
0F83F0
0F83F0
0F83F0
0F83F0
1F83F0
1F83F0
7F03F0
FF03FF
FE03FF
FE03FF
F803FF
00000F
00001F
00001F
00001E
00003E
00003C
00003C
000008
ENDCHAR
STARTCHAR 04C7
ENCODING 1223
SWIDTH 694 0
DWIDTH 27 0
BBX 23 36 2 -8
BITMAP
FC007E
FC007E
FC007E
FC007E
FC007E
FC007E
FC007E
FC007E
FC007E
FC007E
FC007E
FC007E
FFFFFE
FFFFFE
FFFFFE
FFFFFE
FFFFFE
FC007E
FC007E
FC007E
FC007E
FC007E
FC007E
FC007E
FC007E
FC007E
FC007E
FC007E
00007E
00007E
00007E
0000FE
0007FC
0007FC
0007F8
0007E0
ENDCHAR
STARTCHAR 04C8
ENCODING 1224
SWIDTH 540 0
DWIDTH 21 0
BBX 18 29 2 -8
BITMAP
FC0FC0
FC0FC0
FC0FC0
FC0FC0
FC0FC0
FC0FC0
FC0FC0
FC0FC0
FC0FC0
FFFFC0
FFFFC0
FFFFC0
FFFFC0
FC0FC0
FC0FC0
FC0FC0
FC0FC0
FC0FC0
FC0FC0
FC0FC0
FC0FC0
000FC0
000FC0
000FC0
001FC0
00FF80
00FF80
00FF00
00FC00
ENDCHAR
STARTCHAR 04C9
ENCODING 1225
SWIDTH 771 0
DWIDTH 30 0
BBX 27 36 2 -8
BITMAP
FC007E00
FC007E00
FC007E00
FC007E00
FC007E00
FC007E00
FC007E00
FC007E00
FC007E00
FC007E00
FC007E00
FC007E00
FFFFFE00
FFFFFE00
FFFFFE00
FFFFFE00
FC007E00
FC007E00
FC007E00
FC007E00
FC007E00
FC007E00
FC007E00
FC007E00
FC007FE0
FC007FE0
FC007FE0
FC007FE0
000001E0
000003E0
000003E0
000003C0
000007C0
00000780
00000780
00000100
ENDCHAR
STARTCHAR 04CA
ENCODING 1226
SWIDTH 642 0
DWIDTH 25 0
BBX 22 29 2 -8
BITMAP
FC0FC0
FC0FC0
FC0FC0
FC0FC0
FC0FC0
FC0FC0
FC0FC0
FC0FC0
FC0FC0
FFFFC0
FFFFC0
FFFFC0
FFFFC0
FC0FC0
FC0FC0
FC0FC0
FC0FC0
FC0FFC
FC0FFC
FC0FFC
FC0FFC
00003C
00007C
00007C
000078
0000F8
0000F0
0000F0
000020
ENDCHAR
STARTCHAR 04CB
ENCODING 1227
SWIDTH 694 0
DWIDTH 27 0
BBX 22 35 3 -7
BITMAP
F800FC
F800FC
F800FC
F800FC
F800FC
F800FC
F800FC
F800FC
F800FC
F800FC
FC00FC
FC00FC
FE00FC
7FDFFC
7FFFFC
3FFFFC
0FFFFC
03FEFC
0000FC
0000FC
0000FC
0000FC
0000FC
0000FC
000FFC
000FFC
000FFC
000FFC
000F80
000F80
000F80
000F80
000F80
000F80
000F80
ENDCHAR
STARTCHAR 04CC
ENCODING 1228
SWIDTH 540 0
DWIDTH 21 0
BBX 17 28 2 -7
BITMAP
F80F80
F80F80
F80F80
F80F80
F80F80
F80F80
F80F80
F80F80
F80F80
FC0F80
FFFF80
7FFF80
3FFF80
1FFF80
03FF80
000F80
000F80
00FF80
00FF80
00FF80
00FF80
00F800
00F800
00F800
00F800
00F800
00F800
00F800
ENDCHAR
STARTCHAR 04CD
ENCODING 1229
SWIDTH 925 0
DWIDTH 36 0
BBX 34 35 2 -8
BITMAP
FF0003FC00
FF0003FC00
FF8007FC00
FF8007FC00
FF8007FC00
FFC00FFC00
FFC00FFC00
FFC00FFC00
FFE01FFC00
FFE01FFC00
FDE01EFC00
FDF03EFC00
FDF03EFC00
FCF87CFC00
FCF87CFC00
FC7878FC00
FC7CF8FC00
FC7CF8FC00
FC3CF0FC00
FC3FF0FC00
FC3FF0FC00
FC1FE0FC00
FC1FE0FC00
FC1FE0FC00
FC0FC0FFC0
FC0FC0FFC0
FC0780FFC0
FC0780FFC0
00000007C0
00000007C0
0000000780
0000000F80
0000000F00
0000001F00
0000000E00
ENDCHAR
STARTCHAR 04CE
ENCODING 1230
SWIDTH 822 0
DWIDTH 32 0
BBX 29 29 2 -8
BITMAP
FE003F80
FF003F80
FF007F80
FF007F80
FF80FF80
FF80FF80
FFC0FF80
FFC1FF80
FFC1FF80
FFE1FF80
FDE3FF80
FDE3DF80
FDF7DF80
FCF79F80
FCFF9F80
FC7F9F80
FC7F1F80
FC7F1FF8
FC3E1FF8
FC3E1FF8
FC1E1FF8
000000F8
000000F8
000000F8
000000F0
000001F0
000001E0
000001E0
00000040
ENDCHAR
STARTCHAR 04CF
ENCODING 1231
SWIDTH 282 0
DWIDTH 11 0
BBX 6 28 3 0
BITMAP
FC
FC
FC
FC
FC
FC
FC
FC
FC
FC
FC
FC
FC
FC
FC
FC
FC
FC
FC
FC
FC
FC
FC
FC
FC
FC
FC
FC
ENDCHAR
STARTCHAR 04D0
ENCODING 1232
SWIDTH 668 0
DWIDTH 26 0
BBX 26 35 0 0
BITMAP
01C0F000
01E1F000
01F3E000
00FFE000
007FC000
001E0000
00000000
003F0000
003F0000
003F8000
007F8000
007F8000
00FFC000
00FFC000
00FFC000
01FBE000
01F3E000
01F3F000
03F1F000
03E1F000
03E1F800
07E0F800
07C0F800
0FC0FC00
0FC0FC00
0FFFFC00
1FFFFE00
1FFFFE00
1FFFFF00
3F003F00
3F003F00
7E001F80
7E001F80
7E001F80
FC000FC0
ENDCHAR
STARTCHAR 04D1
ENCODING 1233
SWIDTH 514 0
DWIDTH 20 0
BBX 18 29 1 0
BITMAP
1E0F00
1E0F00
1FBE00
0FFE00
07FC00
00E000
000000
000000
03F800
0FFE00
1FFF00
3FFF80
7E1F80
7C0FC0
7C0FC0
000FC0
007FC0
0FFFC0
3FFFC0
7FFFC0
7E0FC0
FC0FC0
FC0FC0
FC0FC0
FC1FC0
7FFFC0
7FFFC0
3FF7C0
1FE7C0
ENDCHAR
STARTCHAR 04D2
ENCODING 1234
SWIDTH 668 0
DWIDTH 26 0
BBX 26 34 0 0
BITMAP
01C0F000
03E1F000
03E1F000
03E0F000
00804000
00000000
003F0000
003F0000
003F8000
007F8000
007F8000
00FFC000
00FFC000
00FFC000
01FBE000
01F3E000
01F3F000
03F1F000
03E1F000
03E1F800
07E0F800
07C0F800
0FC0FC00
0FC0FC00
0FFFFC00
1FFFFE00
1FFFFE00
1FFFFF00
3F003F00
3F003F00
7E001F80
7E001F80
7E001F80
FC000FC0
ENDCHAR
STARTCHAR 04D3
ENCODING 1235
SWIDTH 514 0
DWIDTH 20 0
BBX 18 28 1 0
BITMAP
1E0F00
3E0F80
3E0F80
1E0F00
000000
000000
000000
03F800
0FFE00
1FFF00
3FFF80
7E1F80
7C0FC0
7C0FC0
000FC0
007FC0
0FFFC0
3FFFC0
7FFFC0
7E0FC0
FC0FC0
FC0FC0
FC0FC0
FC1FC0
7FFFC0
7FFFC0
3FF7C0
1FE7C0
ENDCHAR
STARTCHAR 04D4
ENCODING 1236
SWIDTH 925 0
DWIDTH 36 0
BBX 35 28 0 0
BITMAP
0001FFFFC0
0003FFFFC0
0003FFFFC0
0007FFFFC0
0007FFFFC0
000FFE0000
000FFE0000
001FBE0000
001F3E0000
003F3E0000
007E3E0000
007E3E0000
00FC3FFF80
00FC3FFF80
01F83FFF80
01F83FFF80
03F03E0000
03FFFE0000
07FFFE0000
07FFFF0000
0FFFFF0000
0FFFFF0000
1F803F0000
1F803F0000
3F003FFFE0
7F003FFFE0
7E003FFFE0
FE003FFFE0
ENDCHAR
STARTCHAR 04D5
ENCODING 1237
SWIDTH 822 0
DWIDTH 32 0
BBX 31 21 1 0
BITMAP
01F81F80
0FFE7FE0
1FFFFFF8
3FFFFFF8
7FBFFDFC
7E0FE07C
7C07E07E
0007C07E
0007C07E
0FFFFFFE
3FFFFFFE
7FFFFFFE
7F07C000
FC07C000
FC07E000
FC07E000
FC0FF818
7FFFFFFC
7FFFFFFC
3FFCFFFC
0FF83FF0
ENDCHAR
STARTCHAR 04D6
ENCODING 1238
SWIDTH 540 0
DWIDTH 21 0
BBX 19 35 2 0
BITMAP
1E0780
0F0F00
0F9F00
07FE00
03FC00
007000
000000
FFFFE0
FFFFE0
FFFFE0
FFFFE0
FFFFE0
FC0000
FC0000
FC0000
FC0000
FC0000
FC0000
FC0000
FFFF80
FFFF80
FFFF80
FFFF80
FC0000
FC0000
FC0000
FC0000
FC0000
FC0000
FC0000
FC0000
FFFFE0
FFFFE0
FFFFE0
FFFFE0
ENDCHAR
STARTCHAR 04D7
ENCODING 1239
SWIDTH 540 0
DWIDTH 21 0
BBX 19 29 1 0
BITMAP
1E0F00
1E0F00
1FBE00
0FFE00
07FC00
00E000
000000
000000
01F800
07FE00
1FFF00
1FFF80
3F9FC0
7E07C0
7E07E0
7C03E0
FC03E0
FFFFE0
FFFFE0
FFFFE0
FC0000
7C0000
7E0000
7E0180
3F0380
3FFFC0
1FFFC0
0FFF80
03FE00
ENDCHAR
STARTCHAR 04D8
ENCODING 1240
SWIDTH 694 0
DWIDTH 27 0
BBX 24 28 1 0
BITMAP
03FE00
1FFFC0
1FFFF0
1FFFF8
1FFFFC
1801FC
0000FE
00007E
00003F
00003F
00003F
00003F
FFFFFF
FFFFFF
FFFFFF
FFFFFF
FFFFFF
7C003F
7C003F
7C003F
7E007E
7E007E
3F00FE
3FF7FC
1FFFF8
0FFFF0
07FFE0
01FF80
ENDCHAR
STARTCHAR 04D9
ENCODING 1241
SWIDTH 514 0
DWIDTH 20 0
BBX 18 21 1 0
BITMAP
07F000
3FFC00
7FFE00
7FFF00
3E7F80
201FC0
000FC0
0007C0
0007C0
FFFFC0
FFFFC0
FFFFC0
FFFFC0
7C07C0
7C0FC0
7C0FC0
7E1F80
3FFF80
3FFF00
1FFE00
07F800
ENDCHAR
STARTCHAR 04DA
ENCODING 1242
SWIDTH 694 0
DWIDTH 27 0
BBX 24 33 1 0
BITMAP
0783C0
0F83E0
0F83E0
0783C0
000000
03FE00
1FFFC0
1FFFF0
1FFFF8
1FFFFC
1801FC
0000FE
00007E
00003F
00003F
00003F
00003F
FFFFFF
FFFFFF
FFFFFF
FFFFFF
FFFFFF
7C003F
7C003F
7C003F
7E007E
7E007E
3F00FE
3FF7FC
1FFFF8
0FFFF0
07FFE0
01FF80
ENDCHAR
STARTCHAR 04DB
ENCODING 1243
SWIDTH 514 0
DWIDTH 20 0
BBX 18 28 1 0
BITMAP
1E0F00
3E1F80
3E1F80
1E0F00
000000
000000
000000
07F000
3FFC00
7FFE00
7FFF00
3E7F80
201FC0
000FC0
0007C0
0007C0
FFFFC0
FFFFC0
FFFFC0
FFFFC0
7C07C0
7C0FC0
7C0FC0
7E1F80
3FFF80
3FFF00
1FFE00
07F800
ENDCHAR
STARTCHAR 04DC
ENCODING 1244
SWIDTH 977 0
DWIDTH 38 0
BBX 38 34 1 0
BITMAP
000F078000
001F07C000
001F07C000
000F078000
0000000000
0000000000
FE00FC03F8
FE00FC03F8
7F00FC07F0
3F80FC07E0
3F80FC0FE0
1FC0FC0FC0
0FC0FC1FC0
0FE0FC3F80
07E0FC3F00
03F0FC7F00
03F0FC7E00
01F8FCFC00
00FFFFFC00
00FFFFFC00
01FFFFFC00
01FFFFFE00
03FFFFFE00
07F0FC7F00
07E0FC3F00
0FE0FC3F80
0FC0FC1FC0
1FC0FC1FC0
3F80FC0FE0
3F80FC0FE0
7F00FC07F0
7F00FC07F0
FE00FC03F8
FE00FC03FC
ENDCHAR
STARTCHAR 04DD
ENCODING 1245
SWIDTH 848 0
DWIDTH 33 0
BBX 32 28 1 0
BITMAP
00781C00
007C3E00
007C3E00
00783E00
00000800
00000000
00000000
FE07C07F
7E07C0FE
7F07C0FC
3F07C1FC
1F87C1F8
1F87C3F0
0FC7C7F0
07E7C7E0
07FFFFC0
03FFFFC0
03FFFFC0
07FFFFC0
07FFFFE0
0FC7C7E0
0FC7C3F0
1F87C3F8
3F87C1F8
3F07C1FC
7F07C0FC
7E07C0FE
FE07C07F
ENDCHAR
STARTCHAR 04DE
ENCODING 1246
SWIDTH 617 0
DWIDTH 24 0
BBX 21 34 1 0
BITMAP
0F07C0
0F87C0
0F87C0
0F0780
000000
000000
01FE00
0FFF80
1FFFE0
3FFFF0
7FDFF0
7E03F8
7E01F8
7C01F8
0001F8
0001F8
0003F0
000FF0
01FFE0
01FF80
01FFC0
01FFE0
0007F0
0001F8
0001F8
0000F8
FC00F8
FC01F8
7E01F8
7F07F8
7FFFF0
3FFFE0
0FFFC0
03FF00
ENDCHAR
STARTCHAR 04DF
ENCODING 1247
SWIDTH 514 0
DWIDTH 20 0
BBX 18 28 1 0
BITMAP
3C0F00
3E1F00
3E1F00
3E0F00
000000
000000
000000
03F000
1FFE00
3FFF00
7FFF80
7E1F80
7C0F80
000F80
000F80
001F80
03FF00
03FC00
03FF00
001F80
000FC0
000FC0
FC0FC0
FE0FC0
7FFF80
7FFF80
1FFF00
0FFC00
ENDCHAR
STARTCHAR 04E0
ENCODING 1248
SWIDTH 565 0
DWIDTH 22 0
BBX 19 28 2 0
BITMAP
7FFFE0
7FFFE0
7FFFE0
7FFFE0
7FFFC0
000FC0
001F80
003F00
007E00
00FC00
01F800
03F000
03FE00
03FF80
03FFC0
001FC0
0007E0
0007E0
0003E0
0003E0
F803E0
F807E0
FC07E0
FE1FE0
7FFFC0
7FFF80
1FFF00
0FFC00
ENDCHAR
STARTCHAR 04E1
ENCODING 1249
SWIDTH 565 0
DWIDTH 22 0
BBX 19 29 2 -8
BITMAP
7FFFE0
7FFFE0
7FFFE0
7FFFE0
7FFFC0
000F80
001F00
003F00
007E00
00FC00
01F800
03F000
03FE00
03FF00
03FF80
001FC0
0007E0
0007E0
0003E0
0003E0
F803E0
F803E0
FC07E0
FE0FE0
7FFFC0
7FFF80
3FFF00
0FFE00
00C000
ENDCHAR
STARTCHAR 04E2
ENCODING 1250
SWIDTH 694 0
DWIDTH 27 0
BBX 23 34 2 0
BITMAP
07FFC0
07FFC0
07FFC0
07FFC0
000000
000000
FC007E
FC00FE
FC00FE
FC01FE
FC01FE
FC03FE
FC07FE
FC07FE
FC0FFE
FC0FFE
FC1F7E
FC3F7E
FC3E7E
FC7E7E
FC7C7E
FCF87E
FDF87E
FDF07E
FFF07E
FFE07E
FFC07E
FFC07E
FF807E
FF807E
FF007E
FE007E
FE007E
FC007E
ENDCHAR
STARTCHAR 04E3
ENCODING 1251
SWIDTH 565 0
DWIDTH 22 0
BBX 18 27 2 0
BITMAP
1FFF00
1FFF00
1FFF00
000000
000000
000000
FC0FC0
FC0FC0
FC1FC0
FC1FC0
FC3FC0
FC3FC0
FC7FC0
FC7FC0
FCFFC0
FCFFC0
FDEFC0
FDEFC0
FFCFC0
FFCFC0
FF8FC0
FF8FC0
FF0FC0
FE0FC0
FE0FC0
FC0FC0
FC0FC0
ENDCHAR
STARTCHAR 04E4
ENCODING 1252
SWIDTH 694 0
DWIDTH 27 0
BBX 23 34 2 0
BITMAP
0783C0
0F83E0
0F83E0
0783C0
000000
000000
FC007E
FC00FE
FC00FE
FC01FE
FC01FE
FC03FE
FC07FE
FC07FE
FC0FFE
FC0FFE
FC1F7E
FC3F7E
FC3E7E
FC7E7E
FC7C7E
FCF87E
FDF87E
FDF07E
FFF07E
FFE07E
FFC07E
FFC07E
FF807E
FF807E
FF007E
FE007E
FE007E
FC007E
ENDCHAR
STARTCHAR 04E5
ENCODING 1253
SWIDTH 565 0
DWIDTH 22 0
BBX 18 28 2 0
BITMAP
1C0F00
3E1F00
3E1F00
3E0F00
080000
000000
000000
FC0FC0
FC0FC0
FC1FC0
FC1FC0
FC3FC0
FC3FC0
FC7FC0
FC7FC0
FCFFC0
FCFFC0
FDEFC0
FDEFC0
FFCFC0
FFCFC0
FF8FC0
FF8FC0
FF0FC0
FE0FC0
FE0FC0
FC0FC0
FC0FC0
ENDCHAR
STARTCHAR 04E6
ENCODING 1254
SWIDTH 668 0
DWIDTH 26 0
BBX 23 34 2 0
BITMAP
0783C0
0F87E0
0F87E0
0783C0
000000
000000
00FE00
07FF80
0FFFE0
1FFFF0
3FFFF8
3F01F8
7E00FC
7E00FC
FC007E
FC007E
FC007E
F8007E
F8007E
F8007E
F8007E
F8007E
F8007E
FC007E
FC007E
FC007E
FC00FC
7E00FC
7F01F8
3F87F8
1FFFF0
0FFFE0
07FFC0
01FF00
ENDCHAR
STARTCHAR 04E7
ENCODING 1255
SWIDTH 540 0
DWIDTH 21 0
BBX 20 28 1 0
BITMAP
1E0780
1F0F80
1F0F80
1E0F80
000000
000000
000000
01F800
07FE00
1FFF80
3FFFC0
3F9FC0
7E07E0
7E07E0
7C03E0
FC03F0
FC03F0
FC03F0
FC03F0
FC03F0
FC03E0
7C03E0
7E07E0
7F0FC0
3FFFC0
1FFF80
0FFF00
03FC00
ENDCHAR
STARTCHAR 04E8
ENCODING 1256
SWIDTH 668 0
DWIDTH 26 0
BBX 23 28 2 0
BITMAP
00FE00
03FF80
0FFFE0
1FFFF0
3FFFF8
3F01F8
7E00FC
7E00FC
FC007E
FC007E
FC007E
FC007E
FFFFFE
FFFFFE
FFFFFE
FFFFFE
FC007E
FC007E
FC007E
FC007E
7C007C
7E00FC
7F01FC
3FC7F8
1FFFF0
0FFFE0
07FFC0
01FF00
ENDCHAR
STARTCHAR 04E9
ENCODING 1257
SWIDTH 540 0
DWIDTH 21 0
BBX 20 21 1 0
BITMAP
01F800
07FE00
1FFF80
3FFFC0
3F9FC0
7E07E0
7C07E0
7C03E0
FC03F0
FFFFF0
FFFFF0
FFFFF0
FC03F0
FC03E0
7C03E0
7E07E0
7F0FC0
3FFFC0
1FFF80
0FFF00
03FC00
ENDCHAR
STARTCHAR 04EA
ENCODING 1258
SWIDTH 668 0
DWIDTH 26 0
BBX 23 34 2 0
BITMAP
0783C0
07C3E0
07C3E0
0783E0
000000
000000
00FE00
03FF80
0FFFE0
1FFFF0
3FFFF8
3F01F8
7E00FC
7E00FC
FC007E
FC007E
FC007E
FC007E
FFFFFE
FFFFFE
FFFFFE
FFFFFE
FC007E
FC007E
FC007E
FC007E
7C007C
7E00FC
7F01FC
3FC7F8
1FFFF0
0FFFE0
07FFC0
01FF00
ENDCHAR
STARTCHAR 04EB
ENCODING 1259
SWIDTH 540 0
DWIDTH 21 0
BBX 20 28 1 0
BITMAP
1E0F00
1F0F80
1F0F80
1E0F00
000000
000000
000000
01F800
07FE00
1FFF80
3FFFC0
3F9FC0
7E07E0
7C07E0
7C03E0
FC03F0
FFFFF0
FFFFF0
FFFFF0
FC03F0
FC03E0
7C03E0
7E07E0
7F0FC0
3FFFC0
1FFF80
0FFF00
03FC00
ENDCHAR
STARTCHAR 04EC
ENCODING 1260
SWIDTH 642 0
DWIDTH 25 0
BBX 23 34 1 0
BITMAP
0783C0
0F87E0
0F87E0
0783C0
000000
000000
01FE00
07FF80
0FFFE0
1FFFF0
3FEFF0
7F03F8
7E01F8
FC00FC
FC00FC
FC007C
00007C
00007E
00FFFE
00FFFE
00FFFE
00FFFE
00007E
00007E
00007C
FC007C
FC00FC
7C00FC
7E01F8
7F83F8
3FFFF0
1FFFE0
0FFFC0
03FF00
ENDCHAR
STARTCHAR 04ED
ENCODING 1261
SWIDTH 514 0
DWIDTH 20 0
BBX 18 28 1 0
BITMAP
3C0F00
3E1F00
3E1F00
3C0F00
000000
000000
000000
03F000
0FFC00
3FFE00
7FFF00
7F3F80
FC1F80
F80FC0
F80FC0
000FC0
01FFC0
01FFC0
01FFC0
000FC0
F80FC0
F80FC0
FC0F80
7E1F80
7FFF00
3FFF00
1FFE00
0FF800
ENDCHAR
STARTCHAR 04EE
ENCODING 1262
SWIDTH 617 0
DWIDTH 24 0
BBX 23 34 1 0
BITMAP
07FFC0
07FFC0
07FFC0
07FFC0
000000
000000
FC007E
FC00FE
7E00FC
7E00FC
3F01F8
3F01F8
1F01F0
1F83F0
0F83F0
0FC7E0
07C7E0
07E7C0
03EFC0
03FFC0
01FF80
01FF80
00FF00
00FF00
007E00
007E00
007E00
007C00
00FC00
01F800
0FF800
0FF000
0FE000
0FC000
ENDCHAR
STARTCHAR 04EF
ENCODING 1263
SWIDTH 488 0
DWIDTH 19 0
BBX 20 36 0 -8
BITMAP
1FFF00
1FFF00
1FFF00
1FFF00
000000
000000
000000
FC03F0
FC07E0
7E07E0
7E07C0
7E0FC0
3E0FC0
3F0F80
1F0F80
1F1F80
1F9F00
0F9F00
0FBF00
0FFE00
07FE00
07FE00
07FC00
03FC00
03FC00
03F800
01F800
01F800
01F000
01F000
03F000
07E000
3FE000
3FC000
3F8000
3F0000
ENDCHAR
STARTCHAR 04F0
ENCODING 1264
SWIDTH 617 0
DWIDTH 24 0
BBX 23 34 1 0
BITMAP
0783C0
07C3E0
0FC3E0
0783C0
000000
000000
FC007E
FC00FE
7E00FC
7E00FC
3F01F8
3F01F8
1F01F0
1F83F0
0F83F0
0FC7E0
07C7E0
07E7C0
03EFC0
03FFC0
01FF80
01FF80
00FF00
00FF00
007E00
007E00
007E00
007C00
00FC00
01F800
0FF800
0FF000
0FE000
0FC000
ENDCHAR
STARTCHAR 04F1
ENCODING 1265
SWIDTH 488 0
DWIDTH 19 0
BBX 20 36 0 -8
BITMAP
1E0780
1F0F80
1F0F80
1E0F80
000000
000000
000000
FC03F0
FC07E0
7E07E0
7E07C0
7E0FC0
3E0FC0
3F0F80
1F0F80
1F1F80
1F9F00
0F9F00
0FBF00
0FFE00
07FE00
07FE00
07FC00
03FC00
03FC00
03F800
01F800
01F800
01F000
01F000
03F000
07E000
3FE000
3FC000
3F8000
3F0000
ENDCHAR
STARTCHAR 04F2
ENCODING 1266
SWIDTH 617 0
DWIDTH 24 0
BBX 23 35 1 0
BITMAP
007CF8
00F8F0
00F1E0
01F3E0
01E7C0
03C780
000000
FC007E
FC00FE
7E00FC
7E00FC
3F01F8
3F01F8
1F01F0
1F83F0
0F83F0
0FC7E0
07C7E0
07E7C0
03EFC0
03FFC0
01FF80
01FF80
00FF00
00FF00
007E00
007E00
007E00
007C00
00FC00
01F800
0FF800
0FF000
0FE000
0FC000
ENDCHAR
STARTCHAR 04F3
ENCODING 1267
SWIDTH 488 0
DWIDTH 19 0
BBX 20 37 0 -8
BITMAP
01F1F0
01E3E0
03C7C0
07CF80
078F00
0F1E00
000000
000000
FC03F0
FC07E0
7E07E0
7E07C0
7E0FC0
3E0FC0
3F0F80
1F0F80
1F1F80
1F9F00
0F9F00
0FBF00
0FFE00
07FE00
07FE00
07FC00
03FC00
03FC00
03F800
01F800
01F800
01F000
01F000
03F000
07E000
3FE000
3FC000
3F8000
3F0000
ENDCHAR
STARTCHAR 04F4
ENCODING 1268
SWIDTH 694 0
DWIDTH 27 0
BBX 22 34 3 0
BITMAP
0783C0
0F87E0
0F87E0
0783C0
000000
000000
F800FC
F800FC
F800FC
F800FC
F800FC
F800FC
F800FC
F800FC
F800FC
F800FC
FC00FC
FC00FC
FE00FC
7FDFFC
7FFFFC
3FFFFC
0FFFFC
03FEFC
0000FC
0000FC
0000FC
0000FC
0000FC
0000FC
0000FC
0000FC
0000FC
0000FC
ENDCHAR
STARTCHAR 04F5
ENCODING 1269
SWIDTH 540 0
DWIDTH 21 0
BBX 17 28 2 0
BITMAP
3C0E00
3E1F00
3E1F00
3C1F00
000400
000000
000000
F80F80
F80F80
F80F80
F80F80
F80F80
F80F80
F80F80
F80F80
F80F80
FC0F80
FFFF80
7FFF80
3FFF80
1FFF80
03FF80
000F80
000F80
000F80
000F80
000F80
000F80
ENDCHAR
STARTCHAR 04F6
ENCODING 1270
SWIDTH 540 0
DWIDTH 21 0
BBX 19 35 2 -7
BITMAP
FFFFE0
FFFFE0
FFFFE0
FFFFE0
FFFFE0
FC0000
FC0000
FC0000
FC0000
FC0000
FC0000
FC0000
FC0000
FC0000
FC0000
FC0000
FC0000
FC0000
FC0000
FC0000
FC0000
FC0000
FC0000
FC0000
FFC000
FFC000
FFC000
FFC000
07C000
07C000
07C000
07C000
07C000
07C000
07C000
ENDCHAR
STARTCHAR 04F7
ENCODING 1271
SWIDTH 411 0
DWIDTH 16 0
BBX 14 28 2 -7
BITMAP
FFFC
FFFC
FFFC
FFFC
FFFC
FC00
FC00
FC00
FC00
FC00
FC00
FC00
FC00
FC00
FC00
FC00
FC00
FFC0
FFC0
FFC0
FFC0
0FC0
0FC0
0FC0
0FC0
0FC0
0FC0
0FC0
ENDCHAR
STARTCHAR 04F8
ENCODING 1272
SWIDTH 848 0
DWIDTH 33 0
BBX 29 34 2 0
BITMAP
00F03C00
00F87C00
00F87C00
00F83C00
00000000
00000000
FC0000F8
FC0000F8
FC0000F8
FC0000F8
FC0000F8
FC0000F8
FC0000F8
FC0000F8
FC0000F8
FC0000F8
FFE000F8
FFFF00F8
FFFFC0F8
FFFFE0F8
FFFFF0F8
FC07F0F8
FC01F8F8
FC01F8F8
FC01F8F8
FC01F8F8
FC01F8F8
FC01F8F8
FC03F8F8
FC1FF0F8
FFFFE0F8
FFFFC0F8
FFFF80F8
FFFC00F8
ENDCHAR
STARTCHAR 04F9
ENCODING 1273
SWIDTH 822 0
DWIDTH 32 0
BBX 28 28 2 0
BITMAP
00E07800
01F0F800
01F0FC00
01F07800
00400000
00000000
00000000
FC0003F0
FC0003F0
FC0003F0
FC0003F0
FC0003F0
FC0003F0
FC0003F0
FFFE03F0
FFFF03F0
FFFF83F0
FFFFC3F0
FC0FC3F0
FC07E3F0
FC07E3F0
FC07E3F0
FC07E3F0
FC1FC3F0
FFFFC3F0
FFFF83F0
FFFF03F0
FFFC03F0
ENDCHAR
STARTCHAR 04FA
ENCODING 1274
SWIDTH 591 0
DWIDTH 23 0
BBX 21 36 1 -8
BITMAP
1FFFF8
1FFFF8
1FFFF8
1FFFF8
1FFFF8
1F8000
1F8000
1F8000
1F8000
1F8000
1F8000
1F8000
FFF800
FFF800
FFF800
1F8000
1F8000
1F8000
1F8000
1F8000
1F8000
1F8000
1F8000
1FFC00
1FFC00
1FFC00
1FFC00
1FFC00
00FC00
00FC00
00FC00
01FC00
0FF800
0FF800
0FF000
0FC000
ENDCHAR
STARTCHAR 04FB
ENCODING 1275
SWIDTH 437 0
DWIDTH 17 0
BBX 18 29 0 -8
BITMAP
0FFFC0
0FFFC0
0FFFC0
0FFFC0
0FFFC0
0F8000
0F8000
0F8000
FFFC00
FFFC00
FFFC00
FFFC00
0F8000
0F8000
0F8000
0F8000
0FF800
0FF800
0FF800
0FF800
0FF800
00F800
00F800
00F800
01F800
0FF800
0FF000
0FF000
0FC000
ENDCHAR
STARTCHAR 04FC
ENCODING 1276
SWIDTH 694 0
DWIDTH 27 0
BBX 26 36 1 -8
BITMAP
FC00FE00
FE00FC00
7E01FC00
7F01F800
3F03F800
1F83F000
1F87E000
0FC7E000
0FEFC000
07EFC000
03FF8000
03FF8000
01FF0000
01FE0000
01FE0000
01FF0000
03FF0000
03FF8000
07EFC000
0FEFC000
0FC7E000
1FC7E000
1F83F000
3F03FFC0
7F01FFC0
7E01FFC0
FE00FFC0
FC00FFC0
00000FC0
00000FC0
00000FC0
00001FC0
0000FF80
0000FF80
0000FF00
0000FC00
ENDCHAR
STARTCHAR 04FD
ENCODING 1277
SWIDTH 565 0
DWIDTH 22 0
BBX 21 29 1 -8
BITMAP
FC0FC0
FC0FC0
7E1F80
7E1F00
3F3F00
1F3E00
1FFE00
0FFC00
0FFC00
07F800
07F000
07F800
0FFC00
0FFC00
1FFE00
1F3E00
3F3FF8
7E1FF8
7E1FF8
FC0FF8
FC0FF8
0001F8
0001F8
0001F8
0001F8
001FF0
001FF0
001FE0
001F80
ENDCHAR
STARTCHAR 04FE
ENCODING 1278
SWIDTH 617 0
DWIDTH 24 0
BBX 23 28 1 0
BITMAP
FC00FE
FE00FC
7E01FC
7F01F8
3F03F8
1F83F0
1F87E0
0FC7E0
0FEFC0
07EFC0
03FF80
03FF80
07FFC0
07FFC0
07FFC0
07FFC0
03FF00
03FF80
07EFC0
0FEFC0
0FC7E0
1FC7E0
1F83F0
3F03F8
7F01F8
7E01FC
FE00FC
FC00FE
ENDCHAR
STARTCHAR 04FF
ENCODING 1279
SWIDTH 488 0
DWIDTH 19 0
BBX 18 21 1 0
BITMAP
FC0FC0
FC0FC0
7E1F80
7E1F00
3F3F00
1F3E00
1FFE00
0FFC00
0FFC00
3FFF00
3FFF00
3FFF00
0FFC00
0FFC00
1FFE00
1F3E00
3F3F00
7E1F00
7E1F80
FC0FC0
FC0FC0
ENDCHAR
STARTCHAR 0500
ENCODING 1280
SWIDTH 617 0
DWIDTH 24 0
BBX 21 28 1 0
BITMAP
0001F8
0001F8
0001F8
0001F8
0001F8
0001F8
0001F8
0001F8
0001F8
0001F8
01FFF8
07FFF8
1FFFF8
3FFFF8
7F81F8
7F01F8
7E01F8
FC01F8
FC01F8
FC01F8
FC01F8
7E01F8
7F01F8
3FC1F8
3FFFF8
1FFFF8
07FFF8
01FFF8
ENDCHAR
STARTCHAR 0501
ENCODING 1281
SWIDTH 540 0
DWIDTH 21 0
BBX 19 29 1 0
BITMAP
0007E0
0007E0
0007E0
0007E0
0007E0
0007E0
0007E0
0007E0
03E7E0
0FF7E0
1FFFE0
3FFFE0
7FBFE0
7E07E0
7C07E0
FC07E0
FC07E0
FC07E0
FC07E0
FC07E0
FC07E0
FC07E0
7C07E0
7E07E0
7F0FE0
3FFFE0
3FFFE0
1FFBE0
07F3E0
ENDCHAR
STARTCHAR 0502
ENCODING 1282
SWIDTH 900 0
DWIDTH 35 0
BBX 32 28 2 0
BITMAP
0001F800
0001F800
0001F800
0001F800
0001F800
0001F800
0001F800
0001F800
0001F800
0001F800
01FFF800
0FFFF87C
1FFFF87E
3FFFF87E
7F81F83E
7E01F83E
FE01F83E
FC01F83F
FC01F83F
FC01F83E
FC01F83E
7E01F87E
7E01F87E
7FC1F9FC
3FFFFFFC
1FFFFFF8
0FFFFFF0
01FFFFC0
ENDCHAR
STARTCHAR 0503
ENCODING 1283
SWIDTH 848 0
DWIDTH 33 0
BBX 30 30 2 0
BITMAP
000FC000
000FC000
000FC000
000FC000
000FC000
000FC000
000FC000
000FC000
000FC000
07CFC000
1FFFC000
3FFFC000
3FFFC1F0
7F3FC1F8
7E0FC0F8
FC0FC0F8
FC0FC0F8
F80FC0FC
F80FC0FC
F80FC0FC
F80FC0FC
F80FC0FC
F80FC0F8
FC0FC0F8
FC0FC1F8
7E1FE3F0
7FFFFFF0
3FFBFFE0
1FF3FFC0
0FE0FF00
ENDCHAR
STARTCHAR 0504
ENCODING 1284
SWIDTH 771 0
DWIDTH 30 0
BBX 28 28 1 0
BITMAP
FF800000
FFF80000
FFFE0000
FFFF0000
FFFF0000
003F8000
001F8000
001F8000
001F8000
001F8000
001F87E0
003F07E0
1FFE03E0
1FFC03E0
1FF003F0
1FFC03F0
1FFE03F0
003F03F0
001F83F0
001F83F0
001F83F0
001F83E0
001F87E0
001F8FE0
000FFFC0
000FFF80
0007FF00
0003FC00
ENDCHAR
STARTCHAR 0505
ENCODING 1285
SWIDTH 617 0
DWIDTH 24 0
BBX 24 22 1 -1
BITMAP
FC0000
FFC000
FFF000
FFF800
FFF800
01F800
00F800
00F87E
00F83E
7FF03E
7FE03E
7FF03F
7FF83F
7FFC3F
00FC3F
007C3E
007C7E
007C7E
007FFC
007FF8
003FF0
000100
ENDCHAR
STARTCHAR 0506
ENCODING 1286
SWIDTH 565 0
DWIDTH 22 0
BBX 21 34 1 -7
BITMAP
FF8000
FFF000
FFFC00
FFFE00
FFFE00
007F00
003F00
001F00
001F00
001F00
003F00
003F00
01FE00
7FFC00
7FF000
7FFC00
7FFE00
007F00
003F00
001F00
001F00
001F00
001F00
001FF8
001FF8
001FF8
001FF8
000FF8
0000F8
0000F0
0000F0
0001F0
0001E0
0001C0
ENDCHAR
STARTCHAR 0507
ENCODING 1287
SWIDTH 540 0
DWIDTH 21 0
BBX 19 28 2 -7
BITMAP
FC0000
FFE000
FFF800
FFFC00
FFFC00
00FE00
007E00
007E00
007E00
00FC00
7FF800
7FF000
7FF800
7FFC00
007E00
007E00
003E00
003FE0
003FE0
003FE0
003FE0
0003E0
0003E0
0003C0
0003C0
000780
000F80
000300
ENDCHAR
STARTCHAR 0508
ENCODING 1288
SWIDTH 951 0
DWIDTH 37 0
BBX 36 28 1 0
BITMAP
03FFFF0000
03FFFF0000
03FFFF0000
03FFFF0000
03FFFF0000
03E03F0000
03E03F0000
03E03F0000
03E03F0000
03E03F0000
07E03F07C0
07E03F07E0
07E03F07E0
07E03F07E0
07E03F03E0
07E03F03E0
07E03F03F0
07E03F03F0
07C03F03F0
07C03F03E0
0FC03F03E0
0FC03F07E0
1FC03F07E0
7F803F8FC0
FF801FFFC0
FF001FFF80
FE000FFF00
F80003FC00
ENDCHAR
STARTCHAR 0509
ENCODING 1289
SWIDTH 848 0
DWIDTH 33 0
BBX 30 21 1 0
BITMAP
0FFFE000
0FFFE000
0FFFE000
0FFFE000
0FFFE000
0F83E0F8
0F83E0FC
0F83E0FC
0F83E07C
0F83E07C
0F83E07C
0F83E07C
0F83E07C
1F83E07C
1F83E0FC
1F03E0FC
7F03F1F8
FF03FFF8
FE01FFF0
FC00FFE0
F8007FC0
ENDCHAR
STARTCHAR 050A
ENCODING 1290
SWIDTH 977 0
DWIDTH 38 0
BBX 35 28 2 0
BITMAP
FC007E0000
FC007E0000
FC007E0000
FC007E0000
FC007E0000
FC007E0000
FC007E0000
FC007E0000
FC007E0000
FC007E0000
FC007E0F80
FC007E0FC0
FFFFFE0FC0
FFFFFE0FC0
FFFFFE07C0
FFFFFE07C0
FFFFFE07C0
FC007E07E0
FC007E07E0
FC007E07C0
FC007E0FC0
FC007E0FC0
FC007E0FC0
FC003F1F80
FC003FFF80
FC003FFF00
FC001FFE00
FC0007F800
ENDCHAR
STARTCHAR 050B
ENCODING 1291
SWIDTH 822 0
DWIDTH 32 0
BBX 29 21 2 0
BITMAP
F80FC000
F80FC000
F80FC000
F80FC000
F80FC000
F80FC1F0
F80FC1F0
F80FC1F0
F80FC1F8
FFFFC1F8
FFFFC1F8
FFFFC1F8
FFFFC1F8
F80FC1F8
F80FC1F8
F80FC1F0
F807E3F0
F807FFE0
F803FFE0
F803FFC0
F800FF00
ENDCHAR
STARTCHAR 050C
ENCODING 1292
SWIDTH 617 0
DWIDTH 24 0
BBX 22 28 1 0
BITMAP
00FF80
03FFE0
07FFE0
1FFFE0
1FF7C0
3F8040
7F0000
7E0000
7E0000
FC0000
FC0000
FC0000
FC0000
FC00FC
FC00FC
FC00FC
FC007C
FC007C
FC007C
7C007C
7E007C
7E00FC
3F00FC
3FC3FC
1FFFF8
0FFFF0
07FFE0
01FF80
ENDCHAR
STARTCHAR 050D
ENCODING 1293
SWIDTH 514 0
DWIDTH 20 0
BBX 19 21 1 0
BITMAP
01FC00
07FF00
0FFE00
1FFE00
3F9E00
7F0000
7E0000
7C0000
FC0000
FC0000
FC0000
FC07C0
FC07C0
7C07E0
7E07E0
7E07E0
3F0FC0
3FFFC0
1FFFC0
0FFF80
03FE00
ENDCHAR
STARTCHAR 050E
ENCODING 1294
SWIDTH 694 0
DWIDTH 27 0
BBX 25 28 1 0
BITMAP
FFFFF800
FFFFF800
FFFFF800
FFFFF800
FFFFF800
00F80000
00F80000
00F80000
00F80000
00F80000
00F83F00
00F81F00
00F81F00
00F81F80
00F81F80
00F81F80
00F81F80
00F81F80
00F81F80
00F81F80
00F81F80
00FC1F80
00FC3F00
00FC7F00
007FFE00
007FFE00
003FF800
001FF000
ENDCHAR
STARTCHAR 050F
ENCODING 1295
SWIDTH 617 0
DWIDTH 24 0
BBX 23 21 1 0
BITMAP
FFFF80
FFFF80
FFFF80
FFFF80
FFFF80
03E000
03E000
03E0F8
03E0FC
03E07C
03E07C
03E07C
03E07E
03E07E
03E07C
03F0FC
03F0FC
01FFF8
01FFF8
00FFF0
007FC0
ENDCHAR
STARTCHAR 0510
ENCODING 1296
SWIDTH 642 0
DWIDTH 25 0
BBX 22 28 2 0
BITMAP
01FE00
0FFFC0
1FFFE0
3FFFF0
7FEFF8
7E01F8
FC00FC
FC00FC
FC0000
7C0000
7E0000
3F8000
1FFE00
0FFE00
1FFE00
3FFE00
7F0000
FE0000
FC0000
FC0000
FC00FC
FC00FC
FE01FC
7F03F8
7FFFF8
3FFFF0
1FFFE0
03FF80
ENDCHAR
STARTCHAR 0511
ENCODING 1297
SWIDTH 540 0
DWIDTH 21 0
BBX 18 21 2 0
BITMAP
03F000
1FFE00
3FFF00
7FFF80
FE1FC0
FC0FC0
FC0000
FC0000
7E0000
3FF800
1FF800
3FF800
7E0000
FC0000
F80000
F807C0
FC0FC0
FFFFC0
7FFF80
3FFF00
0FFC00
ENDCHAR
STARTCHAR 0512
ENCODING 1298
SWIDTH 797 0
DWIDTH 31 0
BBX 29 36 1 -8
BITMAP
07FFFF00
07FFFF00
07FFFF00
07FFFF00
07FFFF00
07E03F00
07E03F00
07E03F00
07E03F00
07E03F00
07E03F00
07E03F00
07E03F00
07C03F00
07C03F00
07C03F00
07C03F00
07C03F00
0FC03F00
0FC03F00
0FC03F00
1F803F00
1F803F00
FF803FF8
FF003FF8
FE003FF8
FE003FF8
F8003FF8
000000F8
000000F8
000000F8
000001F8
00000FF8
00000FF0
00001FE0
00001FC0
ENDCHAR
ENDFONT
